Thin.ufo
<glyph name="exclam" format="2">
  <advance width="736"/>
  <unicode hex="0021"/>
  <outline>
    <contour>
      <point x="400" y="2048" type="line"/>
      <point x="400" y="608" type="line"/>
      <point x="336" y="608" type="line"/>
      <point x="336" y="2048" type="line"/>
    </contour>
    <contour>
      <point x="368" y="-12" type="qcurve"/>
      <point x="338" y="-12"/>
      <point x="296" y="30"/>
      <point x="296" y="60" type="qcurve"/>
      <point x="296" y="90"/>
      <point x="338" y="132"/>
      <point x="368" y="132" type="qcurve"/>
      <point x="398" y="132"/>
      <point x="440" y="90"/>
      <point x="440" y="60" type="qcurve"/>
      <point x="440" y="30"/>
      <point x="398" y="-12"/>
    </contour>
  </outline>
</glyph>
<glyph name="numbersign" format="2">
  <advance width="1784"/>
  <unicode hex="0023"/>
  <outline>
    <contour>
      <point x="1052" y="0" type="line"/>
      <point x="1388" y="2048" type="line"/>
      <point x="1452" y="2048" type="line"/>
      <point x="1116" y="0" type="line"/>
    </contour>
    <contour>
      <point x="64" y="636" type="line"/>
      <point x="76" y="700" type="line"/>
      <point x="1604" y="700" type="line"/>
      <point x="1592" y="636" type="line"/>
    </contour>
    <contour>
      <point x="332" y="0" type="line"/>
      <point x="668" y="2048" type="line"/>
      <point x="732" y="2048" type="line"/>
      <point x="396" y="0" type="line"/>
    </contour>
    <contour>
      <point x="180" y="1348" type="line"/>
      <point x="192" y="1412" type="line"/>
      <point x="1720" y="1412" type="line"/>
      <point x="1708" y="1348" type="line"/>
    </contour>
  </outline>
</glyph>
<glyph name="percent" format="2">
  <advance width="2176"/>
  <unicode hex="0025"/>
  <outline>
    <contour>
      <point x="1280" y="372" type="qcurve"/>
      <point x="1280" y="436" type="line"/>
      <point x="1280" y="556"/>
      <point x="1369" y="736"/>
      <point x="1521" y="836"/>
      <point x="1616" y="836" type="qcurve"/>
      <point x="1711" y="836"/>
      <point x="1863" y="736"/>
      <point x="1952" y="556"/>
      <point x="1952" y="436" type="qcurve"/>
      <point x="1952" y="372" type="line"/>
      <point x="1952" y="252"/>
      <point x="1863" y="72"/>
      <point x="1711" y="-28"/>
      <point x="1616" y="-28" type="qcurve"/>
      <point x="1521" y="-28"/>
      <point x="1369" y="72"/>
      <point x="1280" y="252"/>
    </contour>
    <contour>
      <point x="1344" y="436" type="qcurve"/>
      <point x="1344" y="372" type="line"/>
      <point x="1344" y="219"/>
      <point x="1501" y="36"/>
      <point x="1616" y="36" type="qcurve"/>
      <point x="1731" y="36"/>
      <point x="1888" y="219"/>
      <point x="1888" y="372" type="qcurve"/>
      <point x="1888" y="436" type="line"/>
      <point x="1888" y="589"/>
      <point x="1731" y="772"/>
      <point x="1616" y="772" type="qcurve"/>
      <point x="1501" y="772"/>
      <point x="1344" y="589"/>
    </contour>
    <contour>
      <point x="224" y="1612" type="qcurve"/>
      <point x="224" y="1676" type="line"/>
      <point x="224" y="1796"/>
      <point x="313" y="1976"/>
      <point x="465" y="2076"/>
      <point x="560" y="2076" type="qcurve"/>
      <point x="655" y="2076"/>
      <point x="807" y="1976"/>
      <point x="896" y="1796"/>
      <point x="896" y="1676" type="qcurve"/>
      <point x="896" y="1612" type="line"/>
      <point x="896" y="1493"/>
      <point x="807" y="1312"/>
      <point x="655" y="1212"/>
      <point x="560" y="1212" type="qcurve"/>
      <point x="465" y="1212"/>
      <point x="313" y="1312"/>
      <point x="224" y="1493"/>
    </contour>
    <contour>
      <point x="288" y="1676" type="qcurve"/>
      <point x="288" y="1612" type="line"/>
      <point x="288" y="1459"/>
      <point x="445" y="1276"/>
      <point x="560" y="1276" type="qcurve"/>
      <point x="675" y="1276"/>
      <point x="832" y="1459"/>
      <point x="832" y="1612" type="qcurve"/>
      <point x="832" y="1676" type="line"/>
      <point x="832" y="1829"/>
      <point x="675" y="2012"/>
      <point x="560" y="2012" type="qcurve"/>
      <point x="445" y="2012"/>
      <point x="288" y="1829"/>
    </contour>
    <contour>
      <point x="348" y="0" type="line"/>
      <point x="1752" y="2048" type="line"/>
      <point x="1828" y="2048" type="line"/>
      <point x="424" y="0" type="line"/>
    </contour>
  </outline>
</glyph>
<glyph name="ampersand" format="2">
  <advance width="1644"/>
  <unicode hex="0026"/>
  <outline>
    <contour>
      <point x="756" y="-28" type="qcurve"/>
      <point x="594" y="-28"/>
      <point x="333" y="117"/>
      <point x="180" y="362"/>
      <point x="180" y="512" type="qcurve"/>
      <point x="180" y="604"/>
      <point x="248" y="765"/>
      <point x="402" y="932"/>
      <point x="532" y="1032" type="qcurve"/>
      <point x="832" y="1256" type="line"/>
      <point x="977" y="1369"/>
      <point x="1100" y="1551"/>
      <point x="1100" y="1660" type="qcurve"/>
      <point x="1100" y="1813"/>
      <point x="907" y="2012"/>
      <point x="760" y="2012" type="qcurve"/>
      <point x="660" y="2012"/>
      <point x="491" y="1910"/>
      <point x="388" y="1742"/>
      <point x="388" y="1644" type="qcurve"/>
      <point x="388" y="1578"/>
      <point x="446" y="1451"/>
      <point x="566" y="1290"/>
      <point x="660" y="1172" type="qcurve"/>
      <point x="1588" y="0" type="line"/>
      <point x="1508" y="0" type="line"/>
      <point x="612" y="1132" type="line"/>
      <point x="518" y="1250"/>
      <point x="390" y="1421"/>
      <point x="324" y="1566"/>
      <point x="324" y="1644" type="qcurve"/>
      <point x="324" y="1760"/>
      <point x="444" y="1957"/>
      <point x="642" y="2076"/>
      <point x="760" y="2076" type="qcurve"/>
      <point x="876" y="2076"/>
      <point x="1059" y="1968"/>
      <point x="1164" y="1780"/>
      <point x="1164" y="1660" type="qcurve"/>
      <point x="1164" y="1537"/>
      <point x="1028" y="1327"/>
      <point x="872" y="1204" type="qcurve"/>
      <point x="572" y="980" type="line"/>
      <point x="389" y="839"/>
      <point x="244" y="635"/>
      <point x="244" y="512" type="qcurve"/>
      <point x="244" y="380"/>
      <point x="380" y="166"/>
      <point x="612" y="38"/>
      <point x="756" y="36" type="qcurve"/>
      <point x="906" y="39"/>
      <point x="1146" y="145"/>
      <point x="1325" y="332"/>
      <point x="1442" y="589"/>
      <point x="1468" y="744" type="qcurve"/>
      <point x="1532" y="736" type="line"/>
      <point x="1518" y="650"/>
      <point x="1463" y="480"/>
      <point x="1388" y="326"/>
      <point x="1344" y="264" type="qcurve"/>
      <point x="1333" y="248"/>
      <point x="1309" y="218"/>
      <point x="1296" y="204" type="qcurve"/>
      <point x="1194" y="96"/>
      <point x="906" y="-28"/>
    </contour>
  </outline>
</glyph>
<glyph name="quotesingle" format="2">
  <advance width="576"/>
  <unicode hex="0027"/>
  <outline>
    <contour>
      <point x="320" y="2048" type="line"/>
      <point x="320" y="1408" type="line"/>
      <point x="256" y="1408" type="line"/>
      <point x="256" y="2048" type="line"/>
    </contour>
  </outline>
</glyph>
<glyph name="parenleft" format="2">
  <advance width="888"/>
  <unicode hex="0028"/>
  <outline>
    <contour>
      <point x="328" y="864" type="qcurve"/>
      <point x="328" y="1188"/>
      <point x="480" y="1838"/>
      <point x="624" y="2144" type="qcurve"/>
      <point x="692" y="2144" type="line"/>
      <point x="593" y="1937"/>
      <point x="459" y="1510"/>
      <point x="392" y="1079"/>
      <point x="392" y="864" type="qcurve"/>
      <point x="392" y="648"/>
      <point x="460" y="216"/>
      <point x="594" y="-210"/>
      <point x="692" y="-416" type="qcurve"/>
      <point x="624" y="-416" type="line"/>
      <point x="480" y="-107"/>
      <point x="328" y="543"/>
    </contour>
  </outline>
</glyph>
<glyph name="parenright" format="2">
  <advance width="888"/>
  <unicode hex="0029"/>
  <outline>
    <contour>
      <point x="560" y="864" type="qcurve"/>
      <point x="560" y="540"/>
      <point x="408" y="-110"/>
      <point x="264" y="-416" type="qcurve"/>
      <point x="196" y="-416" type="line"/>
      <point x="296" y="-209"/>
      <point x="429" y="218"/>
      <point x="496" y="650"/>
      <point x="496" y="864" type="qcurve"/>
      <point x="496" y="1080"/>
      <point x="428" y="1512"/>
      <point x="295" y="1938"/>
      <point x="196" y="2144" type="qcurve"/>
      <point x="264" y="2144" type="line"/>
      <point x="408" y="1835"/>
      <point x="560" y="1185"/>
    </contour>
  </outline>
</glyph>
<glyph name="asterisk" format="2">
  <advance width="1408"/>
  <unicode hex="002A"/>
  <outline>
    <contour>
      <point x="672" y="896" type="line"/>
      <point x="672" y="1416" type="line"/>
      <point x="220" y="1156" type="line"/>
      <point x="188" y="1212" type="line"/>
      <point x="640" y="1472" type="line"/>
      <point x="188" y="1732" type="line"/>
      <point x="220" y="1788" type="line"/>
      <point x="672" y="1528" type="line"/>
      <point x="672" y="2048" type="line"/>
      <point x="736" y="2048" type="line"/>
      <point x="736" y="1528" type="line"/>
      <point x="1188" y="1788" type="line"/>
      <point x="1220" y="1732" type="line"/>
      <point x="768" y="1472" type="line"/>
      <point x="1220" y="1212" type="line"/>
      <point x="1188" y="1156" type="line"/>
      <point x="736" y="1416" type="line"/>
      <point x="736" y="896" type="line"/>
    </contour>
  </outline>
</glyph>
<glyph name="plus" format="2">
  <advance width="1792"/>
  <unicode hex="002B"/>
  <outline>
    <contour>
      <point x="864" y="220" type="line"/>
      <point x="864" y="1380" type="line"/>
      <point x="928" y="1380" type="line"/>
      <point x="928" y="220" type="line"/>
    </contour>
    <contour>
      <point x="316" y="768" type="line"/>
      <point x="316" y="832" type="line"/>
      <point x="1476" y="832" type="line"/>
      <point x="1476" y="768" type="line"/>
    </contour>
  </outline>
</glyph>
<glyph name="comma" format="2">
  <advance width="723"/>
  <unicode hex="002C"/>
  <outline>
    <contour>
      <point x="456" y="280" type="line"/>
      <point x="436" y="176" type="line"/>
      <point x="418" y="79"/>
      <point x="370" y="-180"/>
      <point x="320" y="-424"/>
      <point x="296" y="-500" type="qcurve"/>
      <point x="244" y="-500" type="line"/>
      <point x="258" y="-424"/>
      <point x="298" y="-215"/>
      <point x="344" y="33"/>
      <point x="368" y="168" type="qcurve"/>
      <point x="388" y="280" type="line"/>
    </contour>
  </outline>
</glyph>
<glyph name="period" format="2">
  <advance width="712"/>
  <unicode hex="002E"/>
  <outline>
    <contour>
      <point x="356" y="-12" type="qcurve"/>
      <point x="326" y="-12"/>
      <point x="284" y="30"/>
      <point x="284" y="60" type="qcurve"/>
      <point x="284" y="90"/>
      <point x="326" y="132"/>
      <point x="356" y="132" type="qcurve"/>
      <point x="386" y="132"/>
      <point x="428" y="90"/>
      <point x="428" y="60" type="qcurve"/>
      <point x="428" y="30"/>
      <point x="386" y="-12"/>
    </contour>
  </outline>
</glyph>
<glyph name="slash" format="2">
  <advance width="910"/>
  <unicode hex="002F"/>
  <outline>
    <contour>
      <point x="820" y="2144" type="line"/>
      <point x="160" y="-308" type="line"/>
      <point x="92" y="-308" type="line"/>
      <point x="752" y="2144" type="line"/>
    </contour>
  </outline>
</glyph>
<glyph name="zero" format="2">
  <advance width="1664"/>
  <unicode hex="0030"/>
  <outline>
    <contour>
      <point x="832" y="-28" type="qcurve"/>
      <point x="637" y="-28"/>
      <point x="356" y="226"/>
      <point x="204" y="698"/>
      <point x="204" y="1024" type="qcurve"/>
      <point x="204" y="1350"/>
      <point x="356" y="1822"/>
      <point x="637" y="2076"/>
      <point x="832" y="2076" type="qcurve"/>
      <point x="1027" y="2076"/>
      <point x="1308" y="1822"/>
      <point x="1460" y="1350"/>
      <point x="1460" y="1024" type="qcurve"/>
      <point x="1460" y="698"/>
      <point x="1308" y="226"/>
      <point x="1027" y="-28"/>
    </contour>
    <contour>
      <point x="832" y="36" type="qcurve"/>
      <point x="1094" y="36"/>
      <point x="1396" y="562"/>
      <point x="1396" y="1024" type="qcurve"/>
      <point x="1396" y="1486"/>
      <point x="1094" y="2012"/>
      <point x="832" y="2012" type="qcurve"/>
      <point x="570" y="2012"/>
      <point x="268" y="1486"/>
      <point x="268" y="1024" type="qcurve"/>
      <point x="268" y="562"/>
      <point x="570" y="36"/>
    </contour>
  </outline>
</glyph>
<glyph name="one" format="2">
  <advance width="1136"/>
  <unicode hex="0031"/>
  <unicode hex="E06C"/>
  <outline>
    <contour>
      <point x="704" y="2048" type="line"/>
      <point x="704" y="0" type="line"/>
      <point x="640" y="0" type="line"/>
      <point x="640" y="1904" type="line"/>
      <point x="624" y="1904" type="line"/>
      <point x="609" y="1883"/>
      <point x="497" y="1770"/>
      <point x="318" y="1669"/>
      <point x="200" y="1664" type="qcurve"/>
      <point x="200" y="1728" type="line"/>
      <point x="302" y="1733"/>
      <point x="464" y="1825"/>
      <point x="579" y="1945"/>
      <point x="644" y="2041"/>
      <point x="648" y="2048" type="qcurve"/>
    </contour>
  </outline>
</glyph>
<glyph name="two" format="2">
  <advance width="1748"/>
  <unicode hex="0032"/>
  <outline>
    <contour>
      <point x="260" y="0" type="line"/>
      <point x="260" y="52" type="line"/>
      <point x="916" y="828" type="line"/>
      <point x="1070" y="1010"/>
      <point x="1242" y="1255"/>
      <point x="1312" y="1446"/>
      <point x="1312" y="1548" type="qcurve"/>
      <point x="1312" y="1682"/>
      <point x="1189" y="1892"/>
      <point x="976" y="2012"/>
      <point x="840" y="2012" type="qcurve"/>
      <point x="698" y="2012"/>
      <point x="482" y="1883"/>
      <point x="360" y="1667"/>
      <point x="360" y="1536" type="qcurve"/>
      <point x="296" y="1536" type="line"/>
      <point x="296" y="1685"/>
      <point x="435" y="1930"/>
      <point x="680" y="2076"/>
      <point x="840" y="2076" type="qcurve"/>
      <point x="994" y="2076"/>
      <point x="1236" y="1939"/>
      <point x="1376" y="1700"/>
      <point x="1376" y="1548" type="qcurve"/>
      <point x="1376" y="1435"/>
      <point x="1301" y="1229"/>
      <point x="1122" y="975"/>
      <point x="964" y="788" type="qcurve"/>
      <point x="360" y="72" type="line"/>
      <point x="360" y="64" type="line"/>
      <point x="1496" y="64" type="line"/>
      <point x="1496" y="0" type="line"/>
    </contour>
  </outline>
</glyph>
<glyph name="three" format="2">
  <advance width="1688"/>
  <unicode hex="0033"/>
  <unicode hex="E06D"/>
  <outline>
    <contour>
      <point x="224" y="512" type="qcurve"/>
      <point x="288" y="512" type="line"/>
      <point x="288" y="374"/>
      <point x="432" y="159"/>
      <point x="678" y="36"/>
      <point x="832" y="36" type="qcurve"/>
      <point x="1005" y="36"/>
      <point x="1248" y="184"/>
      <point x="1376" y="427"/>
      <point x="1376" y="568" type="qcurve"/>
      <point x="1376" y="726"/>
      <point x="1212" y="967"/>
      <point x="889" y="1104"/>
      <point x="652" y="1104" type="qcurve"/>
      <point x="648" y="1104" type="line"/>
      <point x="648" y="1168" type="line"/>
      <point x="1292" y="1976" type="line"/>
      <point x="1292" y="1984" type="line"/>
      <point x="308" y="1984" type="line"/>
      <point x="308" y="2048" type="line"/>
      <point x="1388" y="2048" type="line"/>
      <point x="1388" y="1996" type="line"/>
      <point x="732" y="1172" type="line"/>
      <point x="732" y="1164" type="line"/>
      <point x="944" y="1155"/>
      <point x="1262" y="1008"/>
      <point x="1440" y="749"/>
      <point x="1440" y="568" type="qcurve"/>
      <point x="1440" y="406"/>
      <point x="1293" y="135"/>
      <point x="1021" y="-28"/>
      <point x="832" y="-28" type="qcurve"/>
      <point x="660" y="-28"/>
      <point x="384" y="112"/>
      <point x="224" y="356"/>
    </contour>
  </outline>
</glyph>
<glyph name="four" format="2">
  <advance width="1676"/>
  <unicode hex="0034"/>
  <unicode hex="E06E"/>
  <outline>
    <contour>
      <point x="208" y="480" type="line"/>
      <point x="208" y="528" type="line"/>
      <point x="1144" y="2048" type="line"/>
      <point x="1220" y="2048" type="line"/>
      <point x="300" y="552" type="line"/>
      <point x="300" y="544" type="line"/>
      <point x="1468" y="544" type="line"/>
      <point x="1468" y="480" type="line"/>
    </contour>
    <contour>
      <point x="1148" y="0" type="line"/>
      <point x="1148" y="500" type="line"/>
      <point x="1148" y="520" type="line"/>
      <point x="1148" y="1280" type="line"/>
      <point x="1212" y="1280" type="line"/>
      <point x="1212" y="0" type="line"/>
    </contour>
  </outline>
</glyph>
<glyph name="five" format="2">
  <advance width="1608"/>
  <unicode hex="0035"/>
  <outline>
    <contour>
      <point x="776" y="-28" type="qcurve"/>
      <point x="617" y="-28"/>
      <point x="373" y="110"/>
      <point x="235" y="354"/>
      <point x="236" y="512" type="qcurve"/>
      <point x="300" y="512" type="line"/>
      <point x="299" y="302"/>
      <point x="562" y="36"/>
      <point x="776" y="36" type="qcurve"/>
      <point x="937" y="36"/>
      <point x="1183" y="194"/>
      <point x="1321" y="466"/>
      <point x="1320" y="636" type="qcurve"/>
      <point x="1319" y="818"/>
      <point x="1168" y="1084"/>
      <point x="919" y="1228"/>
      <point x="772" y="1228" type="qcurve"/>
      <point x="651" y="1228"/>
      <point x="455" y="1136"/>
      <point x="384" y="1064" type="qcurve"/>
      <point x="288" y="1064" type="line"/>
      <point x="408" y="2048" type="line"/>
      <point x="1316" y="2048" type="line"/>
      <point x="1316" y="1984" type="line"/>
      <point x="464" y="1984" type="line"/>
      <point x="360" y="1136" type="line"/>
      <point x="368" y="1136" type="line"/>
      <point x="445" y="1207"/>
      <point x="649" y="1292"/>
      <point x="772" y="1292" type="qcurve"/>
      <point x="937" y="1292"/>
      <point x="1216" y="1129"/>
      <point x="1385" y="834"/>
      <point x="1384" y="636" type="qcurve"/>
      <point x="1383" y="446"/>
      <point x="1227" y="146"/>
      <point x="953" y="-28"/>
    </contour>
  </outline>
</glyph>
<glyph name="six" format="2">
  <advance width="1600"/>
  <unicode hex="0036"/>
  <unicode hex="E06F"/>
  <outline>
    <contour>
      <point x="208" y="612" type="qcurve"/>
      <point x="208" y="690"/>
      <point x="243" y="833"/>
      <point x="305" y="963"/>
      <point x="344" y="1020" type="qcurve"/>
      <point x="1052" y="2048" type="line"/>
      <point x="1128" y="2048" type="line"/>
      <point x="532" y="1184" type="line"/>
      <point x="592" y="1216"/>
      <point x="727" y="1252"/>
      <point x="800" y="1252" type="qcurve"/>
      <point x="964" y="1252"/>
      <point x="1232" y="1079"/>
      <point x="1392" y="789"/>
      <point x="1392" y="612" type="qcurve"/>
      <point x="1392" y="436"/>
      <point x="1232" y="145"/>
      <point x="964" y="-28"/>
      <point x="800" y="-28" type="qcurve"/>
      <point x="637" y="-28"/>
      <point x="368" y="145"/>
      <point x="208" y="436"/>
    </contour>
    <contour>
      <point x="272" y="612" type="qcurve"/>
      <point x="272" y="453"/>
      <point x="415" y="192"/>
      <point x="655" y="36"/>
      <point x="800" y="36" type="qcurve"/>
      <point x="946" y="36"/>
      <point x="1185" y="192"/>
      <point x="1328" y="453"/>
      <point x="1328" y="612" type="qcurve"/>
      <point x="1328" y="771"/>
      <point x="1185" y="1033"/>
      <point x="946" y="1188"/>
      <point x="800" y="1188" type="qcurve"/>
      <point x="655" y="1188"/>
      <point x="415" y="1033"/>
      <point x="272" y="771"/>
    </contour>
  </outline>
</glyph>
<glyph name="seven" format="2">
  <advance width="1541"/>
  <unicode hex="0037"/>
  <outline>
    <contour>
      <point x="308" y="0" type="line"/>
      <point x="1276" y="1976" type="line"/>
      <point x="1276" y="1984" type="line"/>
      <point x="164" y="1984" type="line"/>
      <point x="164" y="2048" type="line"/>
      <point x="1352" y="2048" type="line"/>
      <point x="1352" y="1984" type="line"/>
      <point x="380" y="0" type="line"/>
    </contour>
  </outline>
</glyph>
<glyph name="eight" format="2">
  <advance width="1696"/>
  <unicode hex="0038"/>
  <outline>
    <contour>
      <point x="848" y="-28" type="qcurve"/>
      <point x="672" y="-28"/>
      <point x="383" y="122"/>
      <point x="212" y="374"/>
      <point x="212" y="528" type="qcurve"/>
      <point x="212" y="650"/>
      <point x="323" y="870"/>
      <point x="518" y="1027"/>
      <point x="644" y="1056" type="qcurve"/>
      <point x="644" y="1064" type="line"/>
      <point x="485" y="1119"/>
      <point x="280" y="1387"/>
      <point x="280" y="1556" type="qcurve"/>
      <point x="280" y="1702"/>
      <point x="433" y="1937"/>
      <point x="691" y="2076"/>
      <point x="848" y="2076" type="qcurve"/>
      <point x="1003" y="2076"/>
      <point x="1261" y="1938"/>
      <point x="1416" y="1703"/>
      <point x="1416" y="1556" type="qcurve"/>
      <point x="1416" y="1389"/>
      <point x="1214" y="1118"/>
      <point x="1052" y="1064" type="qcurve"/>
      <point x="1052" y="1056" type="line"/>
      <point x="1178" y="1029"/>
      <point x="1373" y="871"/>
      <point x="1484" y="650"/>
      <point x="1484" y="528" type="qcurve"/>
      <point x="1484" y="374"/>
      <point x="1313" y="122"/>
      <point x="1024" y="-28"/>
    </contour>
    <contour>
      <point x="848" y="36" type="qcurve"/>
      <point x="1008" y="36"/>
      <point x="1267" y="171"/>
      <point x="1420" y="396"/>
      <point x="1420" y="532" type="qcurve"/>
      <point x="1420" y="668"/>
      <point x="1267" y="893"/>
      <point x="1008" y="1028"/>
      <point x="848" y="1028" type="qcurve"/>
      <point x="688" y="1028"/>
      <point x="429" y="893"/>
      <point x="276" y="668"/>
      <point x="276" y="532" type="qcurve"/>
      <point x="276" y="396"/>
      <point x="429" y="171"/>
      <point x="689" y="36"/>
    </contour>
    <contour>
      <point x="848" y="1084" type="qcurve"/>
      <point x="987" y="1084"/>
      <point x="1215" y="1214"/>
      <point x="1352" y="1429"/>
      <point x="1352" y="1556" type="qcurve"/>
      <point x="1352" y="1684"/>
      <point x="1215" y="1891"/>
      <point x="987" y="2012"/>
      <point x="848" y="2012" type="qcurve"/>
      <point x="710" y="2012"/>
      <point x="481" y="1891"/>
      <point x="344" y="1684"/>
      <point x="344" y="1556" type="qcurve"/>
      <point x="344" y="1429"/>
      <point x="481" y="1214"/>
      <point x="710" y="1084"/>
    </contour>
  </outline>
</glyph>
<glyph name="nine" format="2">
  <advance width="1600"/>
  <unicode hex="0039"/>
  <unicode hex="E070"/>
  <outline>
    <contour>
      <point x="208" y="1436" type="qcurve"/>
      <point x="208" y="1612"/>
      <point x="367" y="1903"/>
      <point x="636" y="2076"/>
      <point x="800" y="2076" type="qcurve"/>
      <point x="964" y="2076"/>
      <point x="1233" y="1903"/>
      <point x="1392" y="1612"/>
      <point x="1392" y="1436" type="qcurve"/>
      <point x="1392" y="1358"/>
      <point x="1357" y="1215"/>
      <point x="1296" y="1086"/>
      <point x="1256" y="1028" type="qcurve"/>
      <point x="548" y="0" type="line"/>
      <point x="472" y="0" type="line"/>
      <point x="1068" y="864" type="line"/>
      <point x="1008" y="831"/>
      <point x="872" y="796"/>
      <point x="800" y="796" type="qcurve"/>
      <point x="636" y="796"/>
      <point x="367" y="969"/>
      <point x="208" y="1260"/>
    </contour>
    <contour>
      <point x="272" y="1436" type="qcurve"/>
      <point x="272" y="1276"/>
      <point x="414" y="1015"/>
      <point x="654" y="860"/>
      <point x="800" y="860" type="qcurve"/>
      <point x="946" y="860"/>
      <point x="1186" y="1015"/>
      <point x="1328" y="1276"/>
      <point x="1328" y="1436" type="qcurve"/>
      <point x="1328" y="1594"/>
      <point x="1186" y="1856"/>
      <point x="946" y="2012"/>
      <point x="800" y="2012" type="qcurve"/>
      <point x="654" y="2012"/>
      <point x="414" y="1856"/>
      <point x="272" y="1594"/>
    </contour>
  </outline>
</glyph>
<glyph name="colon" format="2">
  <advance width="712"/>
  <unicode hex="003A"/>
  <outline>
    <contour>
      <point x="356" y="148" type="qcurve"/>
      <point x="326" y="148"/>
      <point x="284" y="190"/>
      <point x="284" y="220" type="qcurve"/>
      <point x="284" y="250"/>
      <point x="326" y="292"/>
      <point x="356" y="292" type="qcurve"/>
      <point x="386" y="292"/>
      <point x="428" y="250"/>
      <point x="428" y="220" type="qcurve"/>
      <point x="428" y="190"/>
      <point x="386" y="148"/>
    </contour>
    <contour>
      <point x="356" y="1192" type="qcurve"/>
      <point x="326" y="1192"/>
      <point x="284" y="1234"/>
      <point x="284" y="1264" type="qcurve"/>
      <point x="284" y="1294"/>
      <point x="326" y="1336"/>
      <point x="356" y="1336" type="qcurve"/>
      <point x="386" y="1336"/>
      <point x="428" y="1294"/>
      <point x="428" y="1264" type="qcurve"/>
      <point x="428" y="1234"/>
      <point x="386" y="1192"/>
    </contour>
  </outline>
</glyph>
<glyph name="semicolon" format="2">
  <advance width="728"/>
  <unicode hex="003B"/>
  <outline>
    <contour>
      <point x="456" y="280" type="line"/>
      <point x="436" y="176" type="line"/>
      <point x="418" y="79"/>
      <point x="370" y="-180"/>
      <point x="320" y="-424"/>
      <point x="296" y="-500" type="qcurve"/>
      <point x="244" y="-500" type="line"/>
      <point x="258" y="-424"/>
      <point x="298" y="-215"/>
      <point x="344" y="33"/>
      <point x="368" y="168" type="qcurve"/>
      <point x="388" y="280" type="line"/>
    </contour>
    <contour>
      <point x="392" y="1192" type="qcurve"/>
      <point x="362" y="1192"/>
      <point x="320" y="1234"/>
      <point x="320" y="1264" type="qcurve"/>
      <point x="320" y="1294"/>
      <point x="362" y="1336"/>
      <point x="392" y="1336" type="qcurve"/>
      <point x="422" y="1336"/>
      <point x="464" y="1294"/>
      <point x="464" y="1264" type="qcurve"/>
      <point x="464" y="1234"/>
      <point x="422" y="1192"/>
    </contour>
  </outline>
</glyph>
<glyph name="less" format="2">
  <advance width="1792"/>
  <unicode hex="003C"/>
  <outline>
    <contour>
      <point x="348" y="768" type="line"/>
      <point x="348" y="832" type="line"/>
      <point x="1444" y="1544" type="line"/>
      <point x="1444" y="1468" type="line"/>
      <point x="408" y="796" type="line"/>
      <point x="420" y="816" type="line"/>
      <point x="420" y="784" type="line"/>
      <point x="408" y="804" type="line"/>
      <point x="1444" y="132" type="line"/>
      <point x="1444" y="56" type="line"/>
    </contour>
  </outline>
</glyph>
<glyph name="equal" format="2">
  <advance width="1792"/>
  <unicode hex="003D"/>
  <outline>
    <contour>
      <point x="420" y="1036" type="line"/>
      <point x="420" y="1100" type="line"/>
      <point x="1372" y="1100" type="line"/>
      <point x="1372" y="1036" type="line"/>
    </contour>
    <contour>
      <point x="420" y="500" type="line"/>
      <point x="420" y="564" type="line"/>
      <point x="1372" y="564" type="line"/>
      <point x="1372" y="500" type="line"/>
    </contour>
  </outline>
</glyph>
<glyph name="greater" format="2">
  <advance width="1792"/>
  <unicode hex="003E"/>
  <outline>
    <contour>
      <point x="1444" y="768" type="line"/>
      <point x="348" y="56" type="line"/>
      <point x="348" y="132" type="line"/>
      <point x="1384" y="804" type="line"/>
      <point x="1372" y="784" type="line"/>
      <point x="1372" y="816" type="line"/>
      <point x="1384" y="796" type="line"/>
      <point x="348" y="1468" type="line"/>
      <point x="348" y="1544" type="line"/>
      <point x="1444" y="832" type="line"/>
    </contour>
  </outline>
</glyph>
<glyph name="at" format="2">
  <advance width="2636"/>
  <unicode hex="0040"/>
  <outline>
    <contour>
      <point x="1320" y="-544" type="qcurve"/>
      <point x="1076" y="-544"/>
      <point x="648" y="-348"/>
      <point x="323" y="-3"/>
      <point x="140" y="453"/>
      <point x="140" y="712" type="qcurve"/>
      <point x="140" y="973"/>
      <point x="323" y="1429"/>
      <point x="648" y="1773"/>
      <point x="1076" y="1968"/>
      <point x="1320" y="1968" type="qcurve"/>
      <point x="1563" y="1968"/>
      <point x="1989" y="1773"/>
      <point x="2313" y="1429"/>
      <point x="2496" y="973"/>
      <point x="2496" y="712" type="qcurve"/>
      <point x="2496" y="576"/>
      <point x="2424" y="344"/>
      <point x="2293" y="171"/>
      <point x="2115" y="76"/>
      <point x="2008" y="76" type="qcurve"/>
      <point x="1928" y="76"/>
      <point x="1833" y="135"/>
      <point x="1792" y="270"/>
      <point x="1792" y="384" type="qcurve"/>
      <point x="1784" y="384" type="line"/>
      <point x="1736" y="284"/>
      <point x="1586" y="133"/>
      <point x="1398" y="48"/>
      <point x="1292" y="48" type="qcurve"/>
      <point x="1174" y="48"/>
      <point x="967" y="151"/>
      <point x="812" y="333"/>
      <point x="724" y="574"/>
      <point x="724" y="712" type="qcurve"/>
      <point x="724" y="850"/>
      <point x="812" y="1091"/>
      <point x="967" y="1273"/>
      <point x="1174" y="1376"/>
      <point x="1292" y="1376" type="qcurve"/>
      <point x="1398" y="1376"/>
      <point x="1586" y="1291"/>
      <point x="1736" y="1138"/>
      <point x="1784" y="1036" type="qcurve"/>
      <point x="1792" y="1036" type="line"/>
      <point x="1792" y="1356" type="line"/>
      <point x="1856" y="1356" type="line"/>
      <point x="1856" y="384" type="line"/>
      <point x="1856" y="237"/>
      <point x="1918" y="140"/>
      <point x="2008" y="140" type="qcurve"/>
      <point x="2130" y="140"/>
      <point x="2322" y="289"/>
      <point x="2432" y="548"/>
      <point x="2432" y="712" type="qcurve"/>
      <point x="2432" y="910"/>
      <point x="2319" y="1268"/>
      <point x="2115" y="1565"/>
      <point x="1837" y="1784"/>
      <point x="1504" y="1904"/>
      <point x="1320" y="1904" type="qcurve"/>
      <point x="1089" y="1904"/>
      <point x="685" y="1719"/>
      <point x="378" y="1392"/>
      <point x="204" y="960"/>
      <point x="204" y="712" type="qcurve"/>
      <point x="204" y="465"/>
      <point x="378" y="32"/>
      <point x="685" y="-295"/>
      <point x="1089" y="-480"/>
      <point x="1320" y="-480" type="qcurve"/>
      <point x="1430" y="-480"/>
      <point x="1641" y="-435"/>
      <point x="1838" y="-348"/>
      <point x="1928" y="-284" type="qcurve"/>
      <point x="1968" y="-336" type="line"/>
      <point x="1872" y="-404"/>
      <point x="1661" y="-497"/>
      <point x="1436" y="-544"/>
    </contour>
    <contour>
      <point x="1292" y="112" type="qcurve"/>
      <point x="1431" y="112"/>
      <point x="1657" y="273"/>
      <point x="1792" y="545"/>
      <point x="1792" y="712" type="qcurve"/>
      <point x="1792" y="878"/>
      <point x="1657" y="1150"/>
      <point x="1430" y="1312"/>
      <point x="1292" y="1312" type="qcurve"/>
      <point x="1154" y="1312"/>
      <point x="925" y="1150"/>
      <point x="788" y="878"/>
      <point x="788" y="712" type="qcurve"/>
      <point x="788" y="546"/>
      <point x="925" y="274"/>
      <point x="1154" y="112"/>
    </contour>
  </outline>
</glyph>
<glyph name="A" format="2">
  <advance width="1736"/>
  <unicode hex="0041"/>
  <outline>
    <contour>
      <point x="160" y="0" type="line"/>
      <point x="92" y="0" type="line"/>
      <point x="824" y="2048" type="line"/>
      <point x="912" y="2048" type="line"/>
      <point x="1644" y="0" type="line"/>
      <point x="1576" y="0" type="line"/>
      <point x="872" y="1968" type="line"/>
      <point x="864" y="1968" type="line"/>
    </contour>
    <contour>
      <point x="392" y="756" type="line"/>
      <point x="1344" y="756" type="line"/>
      <point x="1344" y="692" type="line"/>
      <point x="392" y="692" type="line"/>
    </contour>
  </outline>
</glyph>
<glyph name="B" format="2">
  <advance width="1804"/>
  <unicode hex="0042"/>
  <outline>
    <contour>
      <point x="320" y="0" type="line"/>
      <point x="320" y="2048" type="line"/>
      <point x="960" y="2048" type="line"/>
      <point x="1132" y="2048"/>
      <point x="1377" y="1923"/>
      <point x="1508" y="1690"/>
      <point x="1508" y="1528" type="qcurve"/>
      <point x="1508" y="1408"/>
      <point x="1435" y="1206"/>
      <point x="1295" y="1069"/>
      <point x="1196" y="1044" type="qcurve"/>
      <point x="1196" y="1036" type="line"/>
      <point x="1307" y="1027"/>
      <point x="1485" y="891"/>
      <point x="1588" y="667"/>
      <point x="1588" y="524" type="qcurve"/>
      <point x="1588" y="366"/>
      <point x="1455" y="130"/>
      <point x="1204" y="0"/>
      <point x="1028" y="0" type="qcurve"/>
    </contour>
    <contour>
      <point x="384" y="64" type="line"/>
      <point x="1028" y="64" type="line"/>
      <point x="1253" y="64"/>
      <point x="1524" y="317"/>
      <point x="1524" y="524" type="qcurve"/>
      <point x="1524" y="666"/>
      <point x="1396" y="884"/>
      <point x="1173" y="1008"/>
      <point x="1028" y="1008" type="qcurve"/>
      <point x="384" y="1008" type="line"/>
    </contour>
    <contour>
      <point x="384" y="1072" type="line"/>
      <point x="1028" y="1072" type="line"/>
      <point x="1168" y="1072"/>
      <point x="1352" y="1198"/>
      <point x="1444" y="1406"/>
      <point x="1444" y="1528" type="qcurve"/>
      <point x="1444" y="1746"/>
      <point x="1184" y="1984"/>
      <point x="960" y="1984" type="qcurve"/>
      <point x="384" y="1984" type="line"/>
    </contour>
  </outline>
</glyph>
<glyph name="E" format="2">
  <advance width="1644"/>
  <unicode hex="0045"/>
  <outline>
    <contour>
      <point x="320" y="0" type="line"/>
      <point x="320" y="2048" type="line"/>
      <point x="1412" y="2048" type="line"/>
      <point x="1412" y="1984" type="line"/>
      <point x="384" y="1984" type="line"/>
      <point x="384" y="1056" type="line"/>
      <point x="1352" y="1056" type="line"/>
      <point x="1352" y="992" type="line"/>
      <point x="384" y="992" type="line"/>
      <point x="384" y="64" type="line"/>
      <point x="1440" y="64" type="line"/>
      <point x="1440" y="0" type="line"/>
    </contour>
  </outline>
</glyph>
<glyph name="F" format="2">
  <advance width="1648"/>
  <unicode hex="0046"/>
  <outline>
    <contour>
      <point x="320" y="0" type="line"/>
      <point x="320" y="2048" type="line"/>
      <point x="1420" y="2048" type="line"/>
      <point x="1420" y="1984" type="line"/>
      <point x="384" y="1984" type="line"/>
      <point x="384" y="1056" type="line"/>
      <point x="1324" y="1056" type="line"/>
      <point x="1324" y="992" type="line"/>
      <point x="384" y="992" type="line"/>
      <point x="384" y="0" type="line"/>
    </contour>
  </outline>
</glyph>
<glyph name="G" format="2">
  <advance width="2080"/>
  <unicode hex="0047"/>
  <unicode hex="E002"/>
  <outline>
    <contour>
      <point x="1060" y="-28" type="qcurve"/>
      <point x="800" y="-28"/>
      <point x="415" y="237"/>
      <point x="204" y="711"/>
      <point x="204" y="1024" type="qcurve"/>
      <point x="204" y="1260"/>
      <point x="325" y="1647"/>
      <point x="550" y="1926"/>
      <point x="862" y="2076"/>
      <point x="1052" y="2076" type="qcurve"/>
      <point x="1232" y="2076"/>
      <point x="1509" y="1952"/>
      <point x="1703" y="1751"/>
      <point x="1818" y="1518"/>
      <point x="1836" y="1408" type="qcurve"/>
      <point x="1772" y="1408" type="line"/>
      <point x="1754" y="1513"/>
      <point x="1643" y="1726"/>
      <point x="1461" y="1904"/>
      <point x="1210" y="2012"/>
      <point x="1052" y="2012" type="qcurve"/>
      <point x="817" y="2012"/>
      <point x="464" y="1765"/>
      <point x="268" y="1320"/>
      <point x="268" y="1024" type="qcurve"/>
      <point x="268" y="732"/>
      <point x="462" y="287"/>
      <point x="818" y="36"/>
      <point x="1060" y="36" type="qcurve"/>
      <point x="1274" y="36"/>
      <point x="1606" y="239"/>
      <point x="1792" y="620"/>
      <point x="1788" y="888" type="qcurve"/>
      <point x="1816" y="864" type="line"/>
      <point x="1080" y="864" type="line"/>
      <point x="1080" y="928" type="line"/>
      <point x="1852" y="928" type="line"/>
      <point x="1852" y="0" type="line"/>
      <point x="1788" y="0" type="line"/>
      <point x="1788" y="474" type="line"/>
      <point x="1780" y="474" type="line"/>
      <point x="1689" y="228"/>
      <point x="1310" y="-28"/>
    </contour>
  </outline>
</glyph>
<glyph name="H" format="2">
  <advance width="2072"/>
  <unicode hex="0048"/>
  <outline>
    <contour>
      <point x="320" y="0" type="line"/>
      <point x="320" y="2048" type="line"/>
      <point x="384" y="2048" type="line"/>
      <point x="384" y="1056" type="line"/>
      <point x="1688" y="1056" type="line"/>
      <point x="1688" y="2048" type="line"/>
      <point x="1752" y="2048" type="line"/>
      <point x="1752" y="0" type="line"/>
      <point x="1688" y="0" type="line"/>
      <point x="1688" y="992" type="line"/>
      <point x="384" y="992" type="line"/>
      <point x="384" y="0" type="line"/>
    </contour>
  </outline>
</glyph>
<glyph name="I" format="2">
  <advance width="984"/>
  <unicode hex="0049"/>
  <unicode hex="E00C"/>
  <outline>
    <contour>
      <point x="172" y="1984" type="line"/>
      <point x="172" y="2048" type="line"/>
      <point x="812" y="2048" type="line"/>
      <point x="812" y="1984" type="line"/>
    </contour>
    <contour>
      <point x="172" y="0" type="line"/>
      <point x="172" y="64" type="line"/>
      <point x="812" y="64" type="line"/>
      <point x="812" y="0" type="line"/>
    </contour>
    <contour>
      <point x="524" y="2048" type="line"/>
      <point x="524" y="0" type="line"/>
      <point x="460" y="0" type="line"/>
      <point x="460" y="2048" type="line"/>
    </contour>
  </outline>
</glyph>
<glyph name="J" format="2">
  <advance width="1464"/>
  <unicode hex="004A"/>
  <outline>
    <contour>
      <point x="1080" y="2048" type="line"/>
      <point x="1144" y="2048" type="line"/>
      <point x="1144" y="544" type="line"/>
      <point x="1143" y="336"/>
      <point x="1004" y="85"/>
      <point x="779" y="-28"/>
      <point x="648" y="-28" type="qcurve"/>
      <point x="507" y="-28"/>
      <point x="282" y="80"/>
      <point x="151" y="266"/>
      <point x="152" y="384" type="qcurve"/>
      <point x="216" y="384" type="line"/>
      <point x="215" y="284"/>
      <point x="329" y="127"/>
      <point x="526" y="36"/>
      <point x="648" y="36" type="qcurve"/>
      <point x="760" y="36"/>
      <point x="957" y="132"/>
      <point x="1079" y="354"/>
      <point x="1080" y="544" type="qcurve"/>
    </contour>
    <contour>
      <point x="644" y="2048" type="line"/>
      <point x="1107" y="2048" type="line"/>
      <point x="1107" y="1973" type="line"/>
      <point x="644" y="1973" type="line"/>
    </contour>
  </outline>
</glyph>
<glyph name="K" format="2">
  <advance width="1736"/>
  <unicode hex="004B"/>
  <outline>
    <contour>
      <point x="320" y="0" type="line"/>
      <point x="320" y="2048" type="line"/>
      <point x="384" y="2048" type="line"/>
      <point x="384" y="772" type="line"/>
      <point x="392" y="772" type="line"/>
      <point x="1552" y="2048" type="line"/>
      <point x="1640" y="2048" type="line"/>
      <point x="736" y="1056" type="line"/>
      <point x="1628" y="0" type="line"/>
      <point x="1544" y="0" type="line"/>
      <point x="692" y="1008" type="line"/>
      <point x="384" y="668" type="line"/>
      <point x="384" y="0" type="line"/>
    </contour>
  </outline>
</glyph>
<glyph name="L" format="2">
  <advance width="1584"/>
  <unicode hex="004C"/>
  <outline>
    <contour>
      <point x="320" y="0" type="line"/>
      <point x="320" y="2048" type="line"/>
      <point x="384" y="2048" type="line"/>
      <point x="384" y="64" type="line"/>
      <point x="1408" y="64" type="line"/>
      <point x="1408" y="0" type="line"/>
    </contour>
  </outline>
</glyph>
<glyph name="M" format="2">
  <advance width="2432"/>
  <unicode hex="004D"/>
  <outline>
    <contour>
      <point x="320" y="2048" type="line"/>
      <point x="376" y="2048" type="line"/>
      <point x="1212" y="96" type="line"/>
      <point x="1220" y="96" type="line"/>
      <point x="2056" y="2048" type="line"/>
      <point x="2112" y="2048" type="line"/>
      <point x="2112" y="0" type="line"/>
      <point x="2048" y="0" type="line"/>
      <point x="2048" y="1848" type="line"/>
      <point x="2040" y="1848" type="line"/>
      <point x="1248" y="0" type="line"/>
      <point x="1184" y="0" type="line"/>
      <point x="392" y="1848" type="line"/>
      <point x="384" y="1848" type="line"/>
      <point x="384" y="0" type="line"/>
      <point x="320" y="0" type="line"/>
    </contour>
  </outline>
</glyph>
<glyph name="N" format="2">
  <advance width="2176"/>
  <unicode hex="004E"/>
  <outline>
    <contour>
      <point x="1856" y="2048" type="line"/>
      <point x="1856" y="0" type="line"/>
      <point x="1792" y="0" type="line"/>
      <point x="392" y="1928" type="line"/>
      <point x="384" y="1928" type="line"/>
      <point x="384" y="0" type="line"/>
      <point x="320" y="0" type="line"/>
      <point x="320" y="2048" type="line"/>
      <point x="384" y="2048" type="line"/>
      <point x="1784" y="120" type="line"/>
      <point x="1792" y="120" type="line"/>
      <point x="1792" y="2048" type="line"/>
    </contour>
  </outline>
</glyph>
<glyph name="P" format="2">
  <advance width="1708"/>
  <unicode hex="0050"/>
  <outline>
    <contour>
      <point x="320" y="0" type="line"/>
      <point x="320" y="2048" type="line"/>
      <point x="920" y="2048" type="line"/>
      <point x="1092" y="2048"/>
      <point x="1357" y="1894"/>
      <point x="1508" y="1624"/>
      <point x="1508" y="1448" type="qcurve"/>
      <point x="1508" y="1274"/>
      <point x="1357" y="1005"/>
      <point x="1092" y="852"/>
      <point x="920" y="852" type="qcurve"/>
      <point x="352" y="852" type="line"/>
      <point x="352" y="916" type="line"/>
      <point x="920" y="916" type="line"/>
      <point x="1074" y="916"/>
      <point x="1310" y="1052"/>
      <point x="1444" y="1292"/>
      <point x="1444" y="1449" type="qcurve"/>
      <point x="1444" y="1605"/>
      <point x="1310" y="1847"/>
      <point x="1074" y="1984"/>
      <point x="920" y="1984" type="qcurve"/>
      <point x="384" y="1984" type="line"/>
      <point x="384" y="0" type="line"/>
    </contour>
  </outline>
</glyph>
<glyph name="R" format="2">
  <advance width="1732"/>
  <unicode hex="0052"/>
  <outline>
    <contour>
      <point x="320" y="0" type="line"/>
      <point x="320" y="2048" type="line"/>
      <point x="920" y="2048" type="line"/>
      <point x="1092" y="2048"/>
      <point x="1357" y="1902"/>
      <point x="1508" y="1640"/>
      <point x="1508" y="1464" type="qcurve"/>
      <point x="1508" y="1290"/>
      <point x="1357" y="1029"/>
      <point x="1092" y="884"/>
      <point x="920" y="884" type="qcurve"/>
      <point x="352" y="884" type="line"/>
      <point x="352" y="948" type="line"/>
      <point x="920" y="948" type="line"/>
      <point x="1074" y="948"/>
      <point x="1310" y="1076"/>
      <point x="1444" y="1308"/>
      <point x="1444" y="1464" type="qcurve"/>
      <point x="1444" y="1621"/>
      <point x="1310" y="1855"/>
      <point x="1074" y="1984"/>
      <point x="920" y="1984" type="qcurve"/>
      <point x="384" y="1984" type="line"/>
      <point x="384" y="0" type="line"/>
    </contour>
    <contour>
      <point x="1100" y="932" type="line"/>
      <point x="1604" y="0" type="line"/>
      <point x="1532" y="0" type="line"/>
      <point x="1028" y="932" type="line"/>
    </contour>
  </outline>
</glyph>
<glyph name="S" format="2">
  <advance width="1724"/>
  <unicode hex="0053"/>
  <outline>
    <contour>
      <point x="1416" y="1536" type="line"/>
      <point x="1401" y="1746"/>
      <point x="1110" y="2016"/>
      <point x="872" y="2016" type="qcurve"/>
      <point x="716" y="2016"/>
      <point x="470" y="1896"/>
      <point x="328" y="1687"/>
      <point x="328" y="1552" type="qcurve"/>
      <point x="328" y="1448"/>
      <point x="421" y="1283"/>
      <point x="613" y="1157"/>
      <point x="760" y="1112" type="qcurve"/>
      <point x="992" y="1040" type="line"/>
      <point x="1125" y="999"/>
      <point x="1319" y="897"/>
      <point x="1446" y="770"/>
      <point x="1508" y="615"/>
      <point x="1508" y="520" type="qcurve"/>
      <point x="1508" y="360"/>
      <point x="1344" y="110"/>
      <point x="1050" y="-32"/>
      <point x="856" y="-32" type="qcurve"/>
      <point x="669" y="-32"/>
      <point x="389" y="99"/>
      <point x="226" y="330"/>
      <point x="216" y="480" type="qcurve"/>
      <point x="280" y="480" type="line"/>
      <point x="290" y="348"/>
      <point x="436" y="146"/>
      <point x="687" y="32"/>
      <point x="856" y="32" type="qcurve"/>
      <point x="1032" y="32"/>
      <point x="1297" y="155"/>
      <point x="1444" y="375"/>
      <point x="1444" y="520" type="qcurve"/>
      <point x="1444" y="630"/>
      <point x="1348" y="797"/>
      <point x="1142" y="925"/>
      <point x="976" y="976" type="qcurve"/>
      <point x="744" y="1048" type="line"/>
      <point x="503" y="1124"/>
      <point x="264" y="1374"/>
      <point x="264" y="1552" type="qcurve"/>
      <point x="264" y="1703"/>
      <point x="422" y="1942"/>
      <point x="697" y="2080"/>
      <point x="872" y="2080" type="qcurve"/>
      <point x="1048" y="2080"/>
      <point x="1314" y="1940"/>
      <point x="1470" y="1694"/>
      <point x="1480" y="1536" type="qcurve"/>
    </contour>
  </outline>
</glyph>
<glyph name="T" format="2">
  <advance width="1728"/>
  <unicode hex="0054"/>
  <outline>
    <contour>
      <point x="172" y="1984" type="line"/>
      <point x="172" y="2048" type="line"/>
      <point x="1556" y="2048" type="line"/>
      <point x="1556" y="1984" type="line"/>
      <point x="896" y="1984" type="line"/>
      <point x="896" y="0" type="line"/>
      <point x="832" y="0" type="line"/>
      <point x="832" y="1984" type="line"/>
    </contour>
  </outline>
</glyph>
<glyph name="U" format="2">
  <advance width="2112"/>
  <unicode hex="0055"/>
  <outline>
    <contour>
      <point x="1728" y="2048" type="line"/>
      <point x="1792" y="2048" type="line"/>
      <point x="1792" y="692" type="line"/>
      <point x="1792" y="484"/>
      <point x="1599" y="157"/>
      <point x="1267" y="-32"/>
      <point x="1056" y="-32" type="qcurve"/>
      <point x="847" y="-32"/>
      <point x="513" y="158"/>
      <point x="319" y="485"/>
      <point x="320" y="692" type="qcurve"/>
      <point x="320" y="2048" type="line"/>
      <point x="384" y="2048" type="line"/>
      <point x="384" y="692" type="line"/>
      <point x="384" y="502"/>
      <point x="559" y="204"/>
      <point x="863" y="32"/>
      <point x="1056" y="32" type="qcurve"/>
      <point x="1249" y="32"/>
      <point x="1553" y="204"/>
      <point x="1728" y="502"/>
      <point x="1728" y="692" type="qcurve"/>
    </contour>
  </outline>
</glyph>
<glyph name="V" format="2">
  <advance width="1736"/>
  <unicode hex="0056"/>
  <outline>
    <contour>
      <point x="160" y="2048" type="line"/>
      <point x="864" y="80" type="line"/>
      <point x="872" y="80" type="line"/>
      <point x="1576" y="2048" type="line"/>
      <point x="1644" y="2048" type="line"/>
      <point x="912" y="0" type="line"/>
      <point x="824" y="0" type="line"/>
      <point x="92" y="2048" type="line"/>
    </contour>
  </outline>
</glyph>
<glyph name="W" format="2">
  <advance width="2512"/>
  <unicode hex="0057"/>
  <outline>
    <contour>
      <point x="644" y="0" type="line"/>
      <point x="80" y="2048" type="line"/>
      <point x="148" y="2048" type="line"/>
      <point x="684" y="100" type="line"/>
      <point x="692" y="100" type="line"/>
      <point x="1212" y="2048" type="line"/>
      <point x="1300" y="2048" type="line"/>
      <point x="1820" y="100" type="line"/>
      <point x="1828" y="100" type="line"/>
      <point x="2364" y="2048" type="line"/>
      <point x="2432" y="2048" type="line"/>
      <point x="1868" y="0" type="line"/>
      <point x="1780" y="0" type="line"/>
      <point x="1260" y="1948" type="line"/>
      <point x="1252" y="1948" type="line"/>
      <point x="732" y="0" type="line"/>
    </contour>
  </outline>
</glyph>
<glyph name="X" format="2">
  <advance width="1648"/>
  <unicode hex="0058"/>
  <outline>
    <contour>
      <point x="176" y="2048" type="line"/>
      <point x="820" y="1084" type="line"/>
      <point x="828" y="1084" type="line"/>
      <point x="1472" y="2048" type="line"/>
      <point x="1552" y="2048" type="line"/>
      <point x="864" y="1024" type="line"/>
      <point x="1552" y="0" type="line"/>
      <point x="1472" y="0" type="line"/>
      <point x="828" y="964" type="line"/>
      <point x="820" y="964" type="line"/>
      <point x="176" y="0" type="line"/>
      <point x="96" y="0" type="line"/>
      <point x="784" y="1024" type="line"/>
      <point x="96" y="2048" type="line"/>
    </contour>
  </outline>
</glyph>
<glyph name="Y" format="2">
  <advance width="1728"/>
  <unicode hex="0059"/>
  <outline>
    <contour>
      <point x="96" y="2048" type="line"/>
      <point x="176" y="2048" type="line"/>
      <point x="860" y="1044" type="line"/>
      <point x="868" y="1044" type="line"/>
      <point x="1552" y="2048" type="line"/>
      <point x="1632" y="2048" type="line"/>
      <point x="896" y="972" type="line"/>
      <point x="896" y="0" type="line"/>
      <point x="832" y="0" type="line"/>
      <point x="832" y="972" type="line"/>
    </contour>
  </outline>
</glyph>
<glyph name="Z" format="2">
  <advance width="1704"/>
  <unicode hex="005A"/>
  <outline>
    <contour>
      <point x="212" y="0" type="line"/>
      <point x="212" y="64" type="line"/>
      <point x="1416" y="1984" type="line"/>
      <point x="220" y="1984" type="line"/>
      <point x="220" y="2048" type="line"/>
      <point x="1492" y="2048" type="line"/>
      <point x="1492" y="1984" type="line"/>
      <point x="288" y="64" type="line"/>
      <point x="1500" y="64" type="line"/>
      <point x="1500" y="0" type="line"/>
    </contour>
  </outline>
</glyph>
<glyph name="bracketleft" format="2">
  <advance width="888"/>
  <unicode hex="005B"/>
  <outline>
    <contour>
      <point x="352" y="-416" type="line"/>
      <point x="352" y="2144" type="line"/>
      <point x="704" y="2144" type="line"/>
      <point x="704" y="2080" type="line"/>
      <point x="416" y="2080" type="line"/>
      <point x="416" y="-352" type="line"/>
      <point x="704" y="-352" type="line"/>
      <point x="704" y="-416" type="line"/>
    </contour>
  </outline>
</glyph>
<glyph name="backslash" format="2">
  <advance width="910"/>
  <unicode hex="005C"/>
  <outline>
    <contour>
      <point x="750" y="-308" type="line"/>
      <point x="90" y="2144" type="line"/>
      <point x="158" y="2144" type="line"/>
      <point x="818" y="-308" type="line"/>
    </contour>
  </outline>
</glyph>
<glyph name="bracketright" format="2">
  <advance width="888"/>
  <unicode hex="005D"/>
  <outline>
    <contour>
      <point x="536" y="2144" type="line"/>
      <point x="536" y="-416" type="line"/>
      <point x="184" y="-416" type="line"/>
      <point x="184" y="-352" type="line"/>
      <point x="472" y="-352" type="line"/>
      <point x="472" y="2080" type="line"/>
      <point x="184" y="2080" type="line"/>
      <point x="184" y="2144" type="line"/>
    </contour>
  </outline>
</glyph>
<glyph name="asciicircum" format="2">
  <advance width="1128"/>
  <unicode hex="005E"/>
  <outline>
    <contour>
      <point x="544" y="1944" type="line"/>
      <point x="584" y="1944" type="line"/>
      <point x="584" y="1880" type="line"/>
      <point x="544" y="1880" type="line"/>
    </contour>
    <contour>
      <point x="132" y="1120" type="line"/>
      <point x="540" y="1984" type="line"/>
      <point x="588" y="1984" type="line"/>
      <point x="996" y="1120" type="line"/>
      <point x="924" y="1120" type="line"/>
      <point x="548" y="1920" type="line"/>
      <point x="580" y="1920" type="line"/>
      <point x="204" y="1120" type="line"/>
    </contour>
  </outline>
</glyph>
<glyph name="underscore" format="2">
  <advance width="1202"/>
  <unicode hex="005F"/>
  <outline>
    <contour>
      <point x="1208" y="0" type="line"/>
      <point x="1208" y="-64" type="line"/>
      <point x="-8" y="-64" type="line"/>
      <point x="-8" y="0" type="line"/>
    </contour>
  </outline>
</glyph>
<glyph name="grave" format="2">
  <advance width="1400"/>
  <unicode hex="0060"/>
  <outline>
    <contour>
      <point x="802" y="1760" type="line"/>
      <point x="506" y="2192" type="line"/>
      <point x="586" y="2192" type="line"/>
      <point x="866" y="1760" type="line"/>
    </contour>
  </outline>
</glyph>
<glyph name="a" format="2">
  <advance width="1524"/>
  <unicode hex="0061"/>
  <outline>
    <contour>
      <point x="656" y="-32" type="qcurve"/>
      <point x="530" y="-32"/>
      <point x="317" y="72"/>
      <point x="188" y="272"/>
      <point x="188" y="416" type="qcurve"/>
      <point x="188" y="494"/>
      <point x="238" y="631"/>
      <point x="364" y="743"/>
      <point x="591" y="823"/>
      <point x="768" y="844" type="qcurve"/>
      <point x="874" y="856"/>
      <point x="1062" y="888"/>
      <point x="1180" y="952"/>
      <point x="1180" y="1012" type="qcurve"/>
      <point x="1180" y="1104" type="line"/>
      <point x="1180" y="1281"/>
      <point x="942" y="1496"/>
      <point x="744" y="1496" type="qcurve"/>
      <point x="582" y="1496"/>
      <point x="336" y="1353"/>
      <point x="288" y="1224" type="qcurve"/>
      <point x="232" y="1224" type="line"/>
      <point x="247" y="1296"/>
      <point x="348" y="1419"/>
      <point x="492" y="1510"/>
      <point x="654" y="1560"/>
      <point x="744" y="1560" type="qcurve"/>
      <point x="861" y="1560"/>
      <point x="1046" y="1491"/>
      <point x="1176" y="1368"/>
      <point x="1244" y="1202"/>
      <point x="1244" y="1104" type="qcurve"/>
      <point x="1244" y="0" type="line"/>
      <point x="1180" y="0" type="line"/>
      <point x="1180" y="312" type="line"/>
      <point x="1172" y="312" type="line"/>
      <point x="1124" y="208"/>
      <point x="971" y="53"/>
      <point x="772" y="-32"/>
    </contour>
    <contour>
      <point x="656" y="32" type="qcurve"/>
      <point x="802" y="32"/>
      <point x="1040" y="189"/>
      <point x="1180" y="470"/>
      <point x="1180" y="656" type="qcurve"/>
      <point x="1180" y="888" type="line"/>
      <point x="1152" y="867"/>
      <point x="1073" y="835"/>
      <point x="974" y="810"/>
      <point x="858" y="792"/>
      <point x="792" y="784" type="qcurve"/>
      <point x="586" y="760"/>
      <point x="350" y="662"/>
      <point x="252" y="514"/>
      <point x="252" y="416" type="qcurve"/>
      <point x="252" y="242"/>
      <point x="485" y="32"/>
    </contour>
  </outline>
</glyph>
<glyph name="b" format="2">
  <advance width="1684"/>
  <unicode hex="0062"/>
  <outline>
    <contour>
      <point x="320" y="0" type="line"/>
      <point x="320" y="2048" type="line"/>
      <point x="384" y="2048" type="line"/>
      <point x="384" y="1144" type="line"/>
      <point x="392" y="1144" type="line"/>
      <point x="432" y="1272"/>
      <point x="584" y="1459"/>
      <point x="790" y="1560"/>
      <point x="912" y="1560" type="qcurve"/>
      <point x="1092" y="1560"/>
      <point x="1358" y="1350"/>
      <point x="1504" y="990"/>
      <point x="1504" y="764" type="qcurve"/>
      <point x="1504" y="537"/>
      <point x="1359" y="177"/>
      <point x="1094" y="-32"/>
      <point x="912" y="-32" type="qcurve"/>
      <point x="789" y="-32"/>
      <point x="584" y="70"/>
      <point x="434" y="257"/>
      <point x="392" y="384" type="qcurve"/>
      <point x="384" y="384" type="line"/>
      <point x="384" y="0" type="line"/>
    </contour>
    <contour>
      <point x="384" y="764" type="qcurve"/>
      <point x="384" y="556"/>
      <point x="512" y="225"/>
      <point x="749" y="32"/>
      <point x="912" y="32" type="qcurve"/>
      <point x="1075" y="32"/>
      <point x="1312" y="225"/>
      <point x="1440" y="556"/>
      <point x="1440" y="764" type="qcurve"/>
      <point x="1440" y="972"/>
      <point x="1311" y="1303"/>
      <point x="1074" y="1496"/>
      <point x="912" y="1496" type="qcurve"/>
      <point x="750" y="1496"/>
      <point x="513" y="1303"/>
      <point x="384" y="972"/>
    </contour>
  </outline>
</glyph>
<glyph name="c" format="2">
  <advance width="1556"/>
  <unicode hex="0063"/>
  <outline>
    <contour>
      <point x="824" y="-32" type="qcurve"/>
      <point x="638" y="-32"/>
      <point x="347" y="177"/>
      <point x="180" y="537"/>
      <point x="180" y="764" type="qcurve"/>
      <point x="180" y="989"/>
      <point x="346" y="1350"/>
      <point x="637" y="1560"/>
      <point x="824" y="1560" type="qcurve"/>
      <point x="962" y="1560"/>
      <point x="1193" y="1441"/>
      <point x="1349" y="1228"/>
      <point x="1372" y="1088" type="qcurve"/>
      <point x="1304" y="1088" type="line"/>
      <point x="1273" y="1269"/>
      <point x="1006" y="1496"/>
      <point x="824" y="1496" type="qcurve"/>
      <point x="659" y="1496"/>
      <point x="396" y="1305"/>
      <point x="244" y="974"/>
      <point x="244" y="764" type="qcurve"/>
      <point x="244" y="560"/>
      <point x="391" y="228"/>
      <point x="653" y="32"/>
      <point x="824" y="32" type="qcurve"/>
      <point x="1008" y="32"/>
      <point x="1280" y="260"/>
      <point x="1308" y="448" type="qcurve"/>
      <point x="1376" y="448" type="line"/>
      <point x="1354" y="303"/>
      <point x="1198" y="87"/>
      <point x="964" y="-32"/>
    </contour>
  </outline>
</glyph>
<glyph name="e" format="2">
  <advance width="1624"/>
  <unicode hex="0065"/>
  <outline>
    <contour>
      <point x="848" y="-32" type="qcurve"/>
      <point x="647" y="-32"/>
      <point x="346" y="178"/>
      <point x="180" y="538"/>
      <point x="180" y="764" type="qcurve"/>
      <point x="180" y="990"/>
      <point x="347" y="1350"/>
      <point x="635" y="1560"/>
      <point x="816" y="1560" type="qcurve"/>
      <point x="950" y="1560"/>
      <point x="1179" y="1446"/>
      <point x="1349" y="1244"/>
      <point x="1444" y="981"/>
      <point x="1444" y="832" type="qcurve"/>
      <point x="1444" y="768" type="line"/>
      <point x="212" y="768" type="line"/>
      <point x="212" y="832" type="line"/>
      <point x="1380" y="832" type="line"/>
      <point x="1380" y="1017"/>
      <point x="1228" y="1318"/>
      <point x="972" y="1496"/>
      <point x="816" y="1496" type="qcurve"/>
      <point x="658" y="1496"/>
      <point x="402" y="1308"/>
      <point x="248" y="984"/>
      <point x="244" y="780" type="qcurve"/>
      <point x="244" y="772" type="line"/>
      <point x="244" y="571"/>
      <point x="385" y="234"/>
      <point x="655" y="32"/>
      <point x="848" y="32" type="qcurve"/>
      <point x="990" y="32"/>
      <point x="1183" y="132"/>
      <point x="1300" y="262"/>
      <point x="1308" y="308" type="qcurve"/>
      <point x="1375" y="308" type="line"/>
      <point x="1346" y="214"/>
      <point x="1210" y="72"/>
      <point x="998" y="-32"/>
    </contour>
  </outline>
</glyph>
<glyph name="g" format="2">
  <advance width="1644"/>
  <unicode hex="0067"/>
  <outline>
    <contour>
      <point x="760" y="-608" type="curve" smooth="yes"/>
      <point x="1115" y="-608"/>
      <point x="1332" y="-411"/>
      <point x="1332" y="-32" type="curve"/>
      <point x="1332" y="1536" type="line"/>
      <point x="1268" y="1536" type="line"/>
      <point x="1268" y="1144" type="line"/>
      <point x="1260" y="1144" type="line"/>
      <point x="1176" y="1400"/>
      <point x="988" y="1560"/>
      <point x="740" y="1560" type="curve"/>
      <point x="376" y="1560"/>
      <point x="148" y="1220"/>
      <point x="148" y="764" type="curve"/>
      <point x="148" y="312"/>
      <point x="380" y="0"/>
      <point x="740" y="0" type="curve"/>
      <point x="968" y="0"/>
      <point x="1180" y="128"/>
      <point x="1260" y="384" type="curve"/>
      <point x="1268" y="384" type="line"/>
      <point x="1268" y="-32" type="line"/>
      <point x="1268" y="-377"/>
      <point x="1080" y="-544"/>
      <point x="760" y="-544" type="curve"/>
      <point x="529" y="-544"/>
      <point x="325" y="-457"/>
      <point x="276" y="-276" type="curve"/>
      <point x="206" y="-276" type="line"/>
      <point x="264" y="-506"/>
      <point x="502" y="-608"/>
    </contour>
    <contour>
      <point x="740" y="64" type="curve" smooth="yes"/>
      <point x="416" y="64"/>
      <point x="212" y="348"/>
      <point x="212" y="764" type="curve"/>
      <point x="212" y="1180"/>
      <point x="414" y="1496"/>
      <point x="740" y="1496" type="curve"/>
      <point x="1066" y="1496"/>
      <point x="1268" y="1180"/>
      <point x="1268" y="764" type="curve"/>
      <point x="1268" y="333"/>
      <point x="1060" y="64"/>
    </contour>
  </outline>
</glyph>
<glyph name="i" format="2">
  <advance width="624"/>
  <unicode hex="0069"/>
  <outline>
    <contour>
      <point x="280" y="0" type="line"/>
      <point x="280" y="1536" type="line"/>
      <point x="344" y="1536" type="line"/>
      <point x="344" y="0" type="line"/>
    </contour>
    <contour>
      <point x="312" y="1816" type="qcurve"/>
      <point x="286" y="1816"/>
      <point x="248" y="1854"/>
      <point x="248" y="1880" type="qcurve"/>
      <point x="248" y="1906"/>
      <point x="286" y="1944"/>
      <point x="312" y="1944" type="qcurve"/>
      <point x="338" y="1944"/>
      <point x="376" y="1906"/>
      <point x="376" y="1880" type="qcurve"/>
      <point x="376" y="1854"/>
      <point x="338" y="1816"/>
    </contour>
  </outline>
</glyph>
<glyph name="j" format="2">
  <advance width="624"/>
  <unicode hex="006A"/>
  <outline>
    <contour>
      <point x="280" y="1536" type="line"/>
      <point x="344" y="1536" type="line"/>
      <point x="344" y="-224" type="line"/>
      <point x="344" y="-332"/>
      <point x="246" y="-490"/>
      <point x="86" y="-576"/>
      <point x="-8" y="-576" type="qcurve"/>
      <point x="-14" y="-576"/>
      <point x="-28" y="-575"/>
      <point x="-40" y="-572" type="qcurve"/>
      <point x="-32" y="-512" type="line"/>
      <point x="-26" y="-512"/>
      <point x="-14" y="-512"/>
      <point x="-8" y="-512" type="qcurve"/>
      <point x="106" y="-512"/>
      <point x="280" y="-358"/>
      <point x="280" y="-224" type="qcurve"/>
    </contour>
    <contour>
      <point x="312" y="1816" type="qcurve"/>
      <point x="286" y="1816"/>
      <point x="248" y="1854"/>
      <point x="248" y="1880" type="qcurve"/>
      <point x="248" y="1906"/>
      <point x="286" y="1944"/>
      <point x="312" y="1944" type="qcurve"/>
      <point x="338" y="1944"/>
      <point x="376" y="1906"/>
      <point x="376" y="1880" type="qcurve"/>
      <point x="376" y="1854"/>
      <point x="338" y="1816"/>
    </contour>
  </outline>
</glyph>
<glyph name="k" format="2">
  <advance width="1372"/>
  <unicode hex="006B"/>
  <outline>
    <contour>
      <point x="320" y="620" type="line"/>
      <point x="320" y="736" type="line"/>
      <point x="344" y="736" type="line"/>
      <point x="1160" y="1536" type="line"/>
      <point x="1252" y="1536" type="line"/>
      <point x="552" y="848" type="line"/>
      <point x="544" y="840" type="line"/>
    </contour>
    <contour>
      <point x="272" y="0" type="line"/>
      <point x="272" y="2048" type="line"/>
      <point x="336" y="2048" type="line"/>
      <point x="336" y="0" type="line"/>
    </contour>
    <contour>
      <point x="1192" y="0" type="line"/>
      <point x="520" y="848" type="line"/>
      <point x="568" y="888" type="line"/>
      <point x="1276" y="0" type="line"/>
    </contour>
  </outline>
</glyph>
<glyph name="l" format="2">
  <advance width="620"/>
  <unicode hex="006C"/>
  <unicode hex="E050"/>
  <outline>
    <contour>
      <point x="272" y="2048" type="line"/>
      <point x="336" y="2048" type="line"/>
      <point x="336" y="248" type="line"/>
      <point x="336" y="113"/>
      <point x="471" y="43"/>
      <point x="580" y="68" type="qcurve"/>
      <point x="586" y="70"/>
      <point x="592" y="72"/>
      <point x="592" y="72" type="qcurve"/>
      <point x="608" y="12" type="line"/>
      <point x="608" y="12"/>
      <point x="590" y="6"/>
      <point x="584" y="4" type="qcurve"/>
      <point x="442" y="-26"/>
      <point x="272" y="88"/>
      <point x="272" y="248" type="qcurve"/>
    </contour>
  </outline>
</glyph>
<glyph name="m" format="2">
  <advance width="2352"/>
  <unicode hex="006D"/>
  <outline>
    <contour>
      <point x="272" y="0" type="line"/>
      <point x="272" y="1536" type="line"/>
      <point x="336" y="1536" type="line"/>
      <point x="336" y="1308" type="line"/>
      <point x="344" y="1308" type="line"/>
      <point x="386" y="1420"/>
      <point x="603" y="1556"/>
      <point x="756" y="1556" type="qcurve"/>
      <point x="930" y="1556"/>
      <point x="1137" y="1384"/>
      <point x="1176" y="1240" type="qcurve"/>
      <point x="1184" y="1240" type="line"/>
      <point x="1222" y="1384"/>
      <point x="1454" y="1556"/>
      <point x="1628" y="1556" type="qcurve"/>
      <point x="1859" y="1556"/>
      <point x="2080" y="1263"/>
      <point x="2080" y="1032" type="qcurve"/>
      <point x="2080" y="0" type="line"/>
      <point x="2016" y="0" type="line"/>
      <point x="2016" y="1032" type="line"/>
      <point x="2016" y="1236"/>
      <point x="1832" y="1492"/>
      <point x="1628" y="1492" type="qcurve"/>
      <point x="1424" y="1492"/>
      <point x="1208" y="1233"/>
      <point x="1208" y="1032" type="qcurve"/>
      <point x="1208" y="0" type="line"/>
      <point x="1144" y="0" type="line"/>
      <point x="1144" y="1032" type="line"/>
      <point x="1144" y="1236"/>
      <point x="960" y="1492"/>
      <point x="756" y="1492" type="qcurve"/>
      <point x="620" y="1492"/>
      <point x="433" y="1374"/>
      <point x="336" y="1166"/>
      <point x="336" y="1032" type="qcurve"/>
      <point x="336" y="0" type="line"/>
    </contour>
  </outline>
</glyph>
<glyph name="n" format="2">
  <advance width="1600"/>
  <unicode hex="006E"/>
  <outline>
    <contour>
      <point x="336" y="1032" type="qcurve"/>
      <point x="336" y="0" type="line"/>
      <point x="272" y="0" type="line"/>
      <point x="272" y="1536" type="line"/>
      <point x="336" y="1536" type="line"/>
      <point x="336" y="1292" type="line"/>
      <point x="344" y="1292" type="line"/>
      <point x="398" y="1412"/>
      <point x="645" y="1556"/>
      <point x="804" y="1556" type="qcurve"/>
      <point x="958" y="1556"/>
      <point x="1194" y="1422"/>
      <point x="1328" y="1186"/>
      <point x="1328" y="1032" type="qcurve"/>
      <point x="1328" y="0" type="line"/>
      <point x="1264" y="0" type="line"/>
      <point x="1264" y="1032" type="line"/>
      <point x="1264" y="1236"/>
      <point x="1008" y="1492"/>
      <point x="804" y="1492" type="qcurve"/>
      <point x="668" y="1492"/>
      <point x="457" y="1374"/>
      <point x="336" y="1166"/>
    </contour>
  </outline>
</glyph>
<glyph name="q" format="2">
  <advance width="1636"/>
  <unicode hex="0071"/>
  <outline>
    <contour>
      <point x="1300" y="-576" type="line"/>
      <point x="1300" y="384" type="line"/>
      <point x="1292" y="384" type="line"/>
      <point x="1252" y="256"/>
      <point x="1100" y="69"/>
      <point x="894" y="-32"/>
      <point x="772" y="-32" type="qcurve"/>
      <point x="592" y="-32"/>
      <point x="326" y="178"/>
      <point x="180" y="538"/>
      <point x="180" y="764" type="qcurve"/>
      <point x="180" y="991"/>
      <point x="325" y="1351"/>
      <point x="591" y="1560"/>
      <point x="772" y="1560" type="qcurve"/>
      <point x="896" y="1560"/>
      <point x="1100" y="1458"/>
      <point x="1251" y="1272"/>
      <point x="1292" y="1144" type="qcurve"/>
      <point x="1300" y="1144" type="line"/>
      <point x="1300" y="1536" type="line"/>
      <point x="1364" y="1536" type="line"/>
      <point x="1364" y="-576" type="line"/>
    </contour>
    <contour>
      <point x="772" y="32" type="qcurve"/>
      <point x="934" y="32"/>
      <point x="1171" y="225"/>
      <point x="1300" y="556"/>
      <point x="1300" y="764" type="qcurve"/>
      <point x="1300" y="972"/>
      <point x="1172" y="1303"/>
      <point x="935" y="1496"/>
      <point x="772" y="1496" type="qcurve"/>
      <point x="609" y="1496"/>
      <point x="372" y="1303"/>
      <point x="244" y="972"/>
      <point x="244" y="764" type="qcurve"/>
      <point x="244" y="556"/>
      <point x="373" y="225"/>
      <point x="610" y="32"/>
    </contour>
  </outline>
</glyph>
<glyph name="r" format="2">
  <advance width="1020"/>
  <unicode hex="0072"/>
  <unicode hex="E05F"/>
  <outline>
    <contour>
      <point x="272" y="0" type="line"/>
      <point x="272" y="1536" type="line"/>
      <point x="336" y="1536" type="line"/>
      <point x="336" y="1292" type="line"/>
      <point x="344" y="1292" type="line"/>
      <point x="398" y="1412"/>
      <point x="645" y="1556"/>
      <point x="804" y="1556" type="qcurve"/>
      <point x="854" y="1556"/>
      <point x="943" y="1541"/>
      <point x="980" y="1528" type="qcurve"/>
      <point x="956" y="1468" type="line"/>
      <point x="925" y="1479"/>
      <point x="848" y="1492"/>
      <point x="804" y="1492" type="qcurve"/>
      <point x="668" y="1492"/>
      <point x="457" y="1374"/>
      <point x="336" y="1166"/>
      <point x="336" y="1032" type="qcurve"/>
      <point x="336" y="0" type="line"/>
    </contour>
  </outline>
</glyph>
<glyph name="s" format="2">
  <advance width="1388"/>
  <unicode hex="0073"/>
  <outline>
    <contour>
      <point x="1160" y="1204" type="line"/>
      <point x="1120" y="1411"/>
      <point x="948" y="1558"/>
      <point x="688" y="1560" type="curve"/>
      <point x="408" y="1562"/>
      <point x="212" y="1397"/>
      <point x="212" y="1156" type="curve"/>
      <point x="212" y="964"/>
      <point x="336" y="827"/>
      <point x="572" y="768" type="curve"/>
      <point x="812" y="708" type="line"/>
      <point x="1010" y="659"/>
      <point x="1108" y="542"/>
      <point x="1108" y="384" type="curve"/>
      <point x="1108" y="171"/>
      <point x="929" y="32"/>
      <point x="660" y="32" type="curve"/>
      <point x="414" y="32"/>
      <point x="256" y="149"/>
      <point x="220" y="360" type="curve"/>
      <point x="152" y="360" type="line"/>
      <point x="190" y="113"/>
      <point x="379" y="-32"/>
      <point x="660" y="-32" type="curve"/>
      <point x="965" y="-32"/>
      <point x="1172" y="139"/>
      <point x="1172" y="388" type="curve"/>
      <point x="1172" y="576"/>
      <point x="1054" y="716"/>
      <point x="828" y="772" type="curve"/>
      <point x="588" y="832" type="line"/>
      <point x="380" y="884"/>
      <point x="276" y="997"/>
      <point x="276" y="1156" type="curve"/>
      <point x="276" y="1357"/>
      <point x="444" y="1498"/>
      <point x="688" y="1496" type="curve"/>
      <point x="902" y="1494"/>
      <point x="1054" y="1385"/>
      <point x="1092" y="1204" type="curve"/>
    </contour>
  </outline>
</glyph>
<glyph name="v" format="2">
  <advance width="1472"/>
  <unicode hex="0076"/>
  <outline>
    <contour>
      <point x="1328" y="1536" type="line"/>
      <point x="780" y="0" type="line"/>
      <point x="692" y="0" type="line"/>
      <point x="144" y="1536" type="line"/>
      <point x="212" y="1536" type="line"/>
      <point x="732" y="80" type="line"/>
      <point x="740" y="80" type="line"/>
      <point x="1260" y="1536" type="line"/>
    </contour>
  </outline>
</glyph>
<glyph name="w" format="2">
  <advance width="2224"/>
  <unicode hex="0077"/>
  <outline>
    <contour>
      <point x="600" y="0" type="line"/>
      <point x="144" y="1536" type="line"/>
      <point x="212" y="1536" type="line"/>
      <point x="640" y="88" type="line"/>
      <point x="648" y="88" type="line"/>
      <point x="1080" y="1536" type="line"/>
      <point x="1144" y="1536" type="line"/>
      <point x="1576" y="88" type="line"/>
      <point x="1584" y="88" type="line"/>
      <point x="2012" y="1536" type="line"/>
      <point x="2080" y="1536" type="line"/>
      <point x="1624" y="0" type="line"/>
      <point x="1536" y="0" type="line"/>
      <point x="1116" y="1416" type="line"/>
      <point x="1108" y="1416" type="line"/>
      <point x="688" y="0" type="line"/>
    </contour>
  </outline>
</glyph>
<glyph name="x" format="2">
  <advance width="1408"/>
  <unicode hex="0078"/>
  <outline>
    <contour>
      <point x="252" y="1536" type="line"/>
      <point x="704" y="826" type="line"/>
      <point x="1156" y="1536" type="line"/>
      <point x="1232" y="1536" type="line"/>
      <point x="742" y="768" type="line"/>
      <point x="1232" y="0" type="line"/>
      <point x="1156" y="0" type="line"/>
      <point x="704" y="710" type="line"/>
      <point x="252" y="0" type="line"/>
      <point x="176" y="0" type="line"/>
      <point x="666" y="768" type="line"/>
      <point x="176" y="1536" type="line"/>
    </contour>
  </outline>
</glyph>
<glyph name="y" format="2">
  <advance width="1472"/>
  <unicode hex="0079"/>
  <outline>
    <contour>
      <point x="342" y="-576" type="qcurve"/>
      <point x="303" y="-576"/>
      <point x="215" y="-555"/>
      <point x="170" y="-536" type="qcurve"/>
      <point x="194" y="-480" type="line"/>
      <point x="293" y="-522"/>
      <point x="456" y="-499"/>
      <point x="581" y="-371"/>
      <point x="622" y="-256" type="qcurve"/>
      <point x="704" y="-28" type="line"/>
      <point x="144" y="1536" type="line"/>
      <point x="212" y="1536" type="line"/>
      <point x="732" y="80" type="line"/>
      <point x="740" y="80" type="line"/>
      <point x="1260" y="1536" type="line"/>
      <point x="1328" y="1536" type="line"/>
      <point x="682" y="-280" type="line"/>
      <point x="648" y="-376"/>
      <point x="546" y="-508"/>
      <point x="417" y="-576"/>
    </contour>
  </outline>
</glyph>
<glyph name="z" format="2">
  <advance width="1432"/>
  <unicode hex="007A"/>
  <outline>
    <contour>
      <point x="216" y="0" type="line"/>
      <point x="216" y="64" type="line"/>
      <point x="1136" y="1464" type="line"/>
      <point x="1136" y="1472" type="line"/>
      <point x="276" y="1472" type="line"/>
      <point x="276" y="1536" type="line"/>
      <point x="1216" y="1536" type="line"/>
      <point x="1216" y="1472" type="line"/>
      <point x="296" y="72" type="line"/>
      <point x="296" y="64" type="line"/>
      <point x="1256" y="64" type="line"/>
      <point x="1256" y="0" type="line"/>
    </contour>
  </outline>
</glyph>
<glyph name="braceleft" format="2">
  <advance width="888"/>
  <unicode hex="007B"/>
  <outline>
    <contour>
      <point x="184" y="832" type="qcurve"/>
      <point x="184" y="896" type="line"/>
      <point x="357" y="897"/>
      <point x="480" y="1020"/>
      <point x="480" y="1192" type="qcurve"/>
      <point x="480" y="1716" type="line"/>
      <point x="480" y="1825"/>
      <point x="524" y="1986"/>
      <point x="614" y="2092"/>
      <point x="751" y="2144"/>
      <point x="844" y="2144" type="qcurve"/>
      <point x="844" y="2080" type="line"/>
      <point x="740" y="2081"/>
      <point x="607" y="2005"/>
      <point x="544" y="1844"/>
      <point x="544" y="1716" type="qcurve"/>
      <point x="544" y="1192" type="line"/>
      <point x="544" y="1093"/>
      <point x="506" y="956"/>
      <point x="422" y="871"/>
      <point x="284" y="832"/>
    </contour>
    <contour>
      <point x="844" y="-416" type="line"/>
      <point x="751" y="-416"/>
      <point x="614" y="-364"/>
      <point x="524" y="-258"/>
      <point x="480" y="-97"/>
      <point x="480" y="12" type="qcurve"/>
      <point x="480" y="536" type="line"/>
      <point x="480" y="708"/>
      <point x="357" y="831"/>
      <point x="184" y="832" type="qcurve"/>
      <point x="184" y="896" type="line"/>
      <point x="284" y="895"/>
      <point x="422" y="856"/>
      <point x="506" y="772"/>
      <point x="544" y="635"/>
      <point x="544" y="536" type="qcurve"/>
      <point x="544" y="12" type="line"/>
      <point x="544" y="-116"/>
      <point x="607" y="-277"/>
      <point x="740" y="-352"/>
      <point x="844" y="-352" type="qcurve"/>
    </contour>
    <contour>
      <point x="184" y="832" type="line"/>
      <point x="184" y="896" type="line"/>
      <point x="400" y="896" type="line"/>
      <point x="400" y="832" type="line"/>
    </contour>
  </outline>
</glyph>
<glyph name="bar" format="2">
  <advance width="768"/>
  <unicode hex="007C"/>
  <outline>
    <contour>
      <point x="416" y="2708" type="line"/>
      <point x="416" y="-660" type="line"/>
      <point x="352" y="-660" type="line"/>
      <point x="352" y="2708" type="line"/>
    </contour>
  </outline>
</glyph>
<glyph name="braceright" format="2">
  <advance width="888"/>
  <unicode hex="007D"/>
  <outline>
    <contour>
      <point x="704" y="896" type="qcurve"/>
      <point x="704" y="832" type="line"/>
      <point x="531" y="831"/>
      <point x="408" y="708"/>
      <point x="408" y="536" type="qcurve"/>
      <point x="408" y="12" type="line"/>
      <point x="408" y="-97"/>
      <point x="364" y="-258"/>
      <point x="274" y="-364"/>
      <point x="137" y="-416"/>
      <point x="44" y="-416" type="qcurve"/>
      <point x="44" y="-352" type="line"/>
      <point x="149" y="-352"/>
      <point x="281" y="-277"/>
      <point x="344" y="-116"/>
      <point x="344" y="12" type="qcurve"/>
      <point x="344" y="536" type="line"/>
      <point x="344" y="635"/>
      <point x="382" y="772"/>
      <point x="466" y="857"/>
      <point x="604" y="896"/>
    </contour>
    <contour>
      <point x="44" y="2144" type="line"/>
      <point x="137" y="2144"/>
      <point x="274" y="2092"/>
      <point x="364" y="1986"/>
      <point x="408" y="1825"/>
      <point x="408" y="1716" type="qcurve"/>
      <point x="408" y="1192" type="line"/>
      <point x="408" y="1020"/>
      <point x="531" y="897"/>
      <point x="704" y="896" type="qcurve"/>
      <point x="704" y="832" type="line"/>
      <point x="604" y="833"/>
      <point x="466" y="872"/>
      <point x="382" y="956"/>
      <point x="344" y="1093"/>
      <point x="344" y="1192" type="qcurve"/>
      <point x="344" y="1716" type="line"/>
      <point x="344" y="1844"/>
      <point x="281" y="2005"/>
      <point x="149" y="2081"/>
      <point x="44" y="2080" type="qcurve"/>
    </contour>
    <contour>
      <point x="704" y="896" type="line"/>
      <point x="704" y="832" type="line"/>
      <point x="488" y="832" type="line"/>
      <point x="488" y="896" type="line"/>
    </contour>
  </outline>
</glyph>
<glyph name="asciitilde" format="2">
  <advance width="1792"/>
  <unicode hex="007E"/>
  <outline>
    <contour>
      <point x="264" y="672" type="line"/>
      <point x="276" y="753"/>
      <point x="375" y="878"/>
      <point x="529" y="949"/>
      <point x="624" y="948" type="qcurve"/>
      <point x="727" y="947"/>
      <point x="875" y="869"/>
      <point x="936" y="828" type="qcurve"/>
      <point x="995" y="788"/>
      <point x="1107" y="729"/>
      <point x="1180" y="728" type="qcurve"/>
      <point x="1285" y="727"/>
      <point x="1440" y="849"/>
      <point x="1464" y="944" type="qcurve"/>
      <point x="1528" y="928" type="line"/>
      <point x="1507" y="850"/>
      <point x="1407" y="731"/>
      <point x="1265" y="664"/>
      <point x="1180" y="664" type="qcurve"/>
      <point x="1092" y="665"/>
      <point x="960" y="736"/>
      <point x="900" y="776" type="qcurve"/>
      <point x="839" y="817"/>
      <point x="712" y="883"/>
      <point x="624" y="884" type="qcurve"/>
      <point x="505" y="885"/>
      <point x="342" y="761"/>
      <point x="328" y="664" type="qcurve"/>
    </contour>
  </outline>
</glyph>
<glyph name="exclamdown" format="2">
  <advance width="736"/>
  <unicode hex="00A1"/>
  <outline>
    <contour>
      <point x="400" y="-520" type="line"/>
      <point x="336" y="-520" type="line"/>
      <point x="336" y="920" type="line"/>
      <point x="400" y="920" type="line"/>
    </contour>
    <contour>
      <point x="368" y="1540" type="qcurve"/>
      <point x="398" y="1540"/>
      <point x="440" y="1498"/>
      <point x="440" y="1468" type="qcurve"/>
      <point x="440" y="1438"/>
      <point x="398" y="1396"/>
      <point x="368" y="1396" type="qcurve"/>
      <point x="338" y="1396"/>
      <point x="296" y="1438"/>
      <point x="296" y="1468" type="qcurve"/>
      <point x="296" y="1498"/>
      <point x="338" y="1540"/>
    </contour>
  </outline>
</glyph>
<glyph name="cent" format="2">
  <advance width="1556"/>
  <unicode hex="00A2"/>
  <outline>
    <contour>
      <point x="786" y="0" type="line"/>
      <point x="786" y="2048" type="line"/>
      <point x="850" y="2048" type="line"/>
      <point x="850" y="0" type="line"/>
    </contour>
    <contour>
      <point x="824" y="228" type="qcurve"/>
      <point x="638" y="228"/>
      <point x="347" y="437"/>
      <point x="180" y="797"/>
      <point x="180" y="1024" type="qcurve"/>
      <point x="180" y="1249"/>
      <point x="346" y="1610"/>
      <point x="637" y="1820"/>
      <point x="824" y="1820" type="qcurve"/>
      <point x="962" y="1820"/>
      <point x="1193" y="1701"/>
      <point x="1349" y="1488"/>
      <point x="1372" y="1348" type="qcurve"/>
      <point x="1304" y="1348" type="line"/>
      <point x="1273" y="1529"/>
      <point x="1006" y="1756"/>
      <point x="824" y="1756" type="qcurve"/>
      <point x="659" y="1756"/>
      <point x="396" y="1565"/>
      <point x="244" y="1234"/>
      <point x="244" y="1024" type="qcurve"/>
      <point x="244" y="820"/>
      <point x="391" y="488"/>
      <point x="653" y="292"/>
      <point x="824" y="292" type="qcurve"/>
      <point x="1008" y="292"/>
      <point x="1280" y="520"/>
      <point x="1308" y="708" type="qcurve"/>
      <point x="1376" y="708" type="line"/>
      <point x="1354" y="563"/>
      <point x="1198" y="347"/>
      <point x="964" y="228"/>
    </contour>
  </outline>
</glyph>
<glyph name="sterling" format="2">
  <advance width="1776"/>
  <unicode hex="00A3"/>
  <outline>
    <contour>
      <point x="1472" y="0" type="line"/>
      <point x="224" y="0" type="line"/>
      <point x="224" y="64" type="line"/>
      <point x="1472" y="64" type="line"/>
    </contour>
    <contour>
      <point x="1088" y="950" type="line"/>
      <point x="224" y="950" type="line"/>
      <point x="224" y="1014" type="line"/>
      <point x="1088" y="1014" type="line"/>
    </contour>
    <contour>
      <point x="560" y="1508" type="qcurve"/>
      <point x="588" y="400" type="line"/>
      <point x="593" y="235"/>
      <point x="481" y="19"/>
      <point x="352" y="4" type="qcurve"/>
      <point x="328" y="64" type="line"/>
      <point x="401" y="64"/>
      <point x="489" y="155"/>
      <point x="527" y="307"/>
      <point x="524" y="400" type="qcurve"/>
      <point x="496" y="1508" type="line"/>
      <point x="492" y="1675"/>
      <point x="624" y="1931"/>
      <point x="865" y="2076"/>
      <point x="1024" y="2076" type="qcurve"/>
      <point x="1140" y="2076"/>
      <point x="1334" y="1996"/>
      <point x="1470" y="1855"/>
      <point x="1528" y="1673"/>
      <point x="1508" y="1588" type="qcurve"/>
      <point x="1444" y="1588" type="line"/>
      <point x="1467" y="1701"/>
      <point x="1365" y="1895"/>
      <point x="1159" y="2013"/>
      <point x="1024" y="2012" type="qcurve"/>
      <point x="883" y="2012"/>
      <point x="671" y="1884"/>
      <point x="556" y="1658"/>
    </contour>
  </outline>
</glyph>
<glyph name="currency" format="2">
  <advance width="1918"/>
  <unicode hex="00A4"/>
  <outline>
    <contour>
      <point x="954" y="-28" type="qcurve"/>
      <point x="787" y="-28"/>
      <point x="498" y="103"/>
      <point x="281" y="339"/>
      <point x="160" y="653"/>
      <point x="160" y="836" type="qcurve"/>
      <point x="160" y="1019"/>
      <point x="281" y="1332"/>
      <point x="498" y="1566"/>
      <point x="787" y="1696"/>
      <point x="954" y="1696" type="qcurve"/>
      <point x="1124" y="1696"/>
      <point x="1414" y="1566"/>
      <point x="1631" y="1332"/>
      <point x="1752" y="1019"/>
      <point x="1752" y="836" type="qcurve"/>
      <point x="1752" y="653"/>
      <point x="1631" y="339"/>
      <point x="1414" y="103"/>
      <point x="1124" y="-28"/>
    </contour>
    <contour>
      <point x="954" y="36" type="qcurve"/>
      <point x="1161" y="36"/>
      <point x="1493" y="248"/>
      <point x="1687" y="610"/>
      <point x="1688" y="836" type="qcurve"/>
      <point x="1689" y="1063"/>
      <point x="1494" y="1423"/>
      <point x="1160" y="1632"/>
      <point x="954" y="1632" type="qcurve"/>
      <point x="750" y="1632"/>
      <point x="419" y="1423"/>
      <point x="224" y="1063"/>
      <point x="224" y="836" type="qcurve"/>
      <point x="224" y="610"/>
      <point x="418" y="248"/>
      <point x="749" y="36"/>
    </contour>
    <contour>
      <point x="1526" y="1380" type="line"/>
      <point x="1484" y="1426" type="line"/>
      <point x="1724" y="1674" type="line"/>
      <point x="1766" y="1628" type="line"/>
    </contour>
    <contour>
      <point x="1724" y="0" type="line"/>
      <point x="1484" y="248" type="line"/>
      <point x="1526" y="294" type="line"/>
      <point x="1766" y="46" type="line"/>
    </contour>
    <contour>
      <point x="186" y="0" type="line"/>
      <point x="144" y="46" type="line"/>
      <point x="384" y="294" type="line"/>
      <point x="426" y="248" type="line"/>
    </contour>
    <contour>
      <point x="384" y="1380" type="line"/>
      <point x="144" y="1628" type="line"/>
      <point x="186" y="1674" type="line"/>
      <point x="426" y="1426" type="line"/>
    </contour>
  </outline>
</glyph>
<glyph name="yen" format="2">
  <advance width="1472"/>
  <unicode hex="00A5"/>
  <outline>
    <contour>
      <point x="132" y="2048" type="line"/>
      <point x="768" y="884" type="line"/>
      <point x="696" y="884" type="line"/>
      <point x="60" y="2048" type="line"/>
    </contour>
    <contour>
      <point x="704" y="884" type="line"/>
      <point x="1340" y="2048" type="line"/>
      <point x="1412" y="2048" type="line"/>
      <point x="776" y="884" type="line"/>
    </contour>
    <contour>
      <point x="768" y="952" type="line"/>
      <point x="768" y="0" type="line"/>
      <point x="704" y="0" type="line"/>
      <point x="704" y="952" type="line"/>
    </contour>
    <contour>
      <point x="1248" y="916" type="line"/>
      <point x="1248" y="852" type="line"/>
      <point x="224" y="852" type="line"/>
      <point x="224" y="916" type="line"/>
    </contour>
    <contour>
      <point x="1248" y="672" type="line"/>
      <point x="1248" y="608" type="line"/>
      <point x="224" y="608" type="line"/>
      <point x="224" y="672" type="line"/>
    </contour>
  </outline>
</glyph>
<glyph name="brokenbar" format="2">
  <advance width="525"/>
  <unicode hex="00A6"/>
  <outline>
    <contour>
      <point x="230" y="532" type="line"/>
      <point x="294" y="532" type="line"/>
      <point x="294" y="-384" type="line"/>
      <point x="230" y="-384" type="line"/>
    </contour>
    <contour>
      <point x="294" y="2048" type="line"/>
      <point x="294" y="1136" type="line"/>
      <point x="230" y="1136" type="line"/>
      <point x="230" y="2048" type="line"/>
    </contour>
  </outline>
</glyph>
<glyph name="section" format="2">
  <advance width="1492"/>
  <unicode hex="00A7"/>
  <outline>
    <contour>
      <point x="1192" y="1636" type="qcurve"/>
      <point x="1128" y="1636" type="line"/>
      <point x="1119" y="1792"/>
      <point x="922" y="2012"/>
      <point x="748" y="2012" type="qcurve"/>
      <point x="634" y="2012"/>
      <point x="463" y="1913"/>
      <point x="368" y="1748"/>
      <point x="368" y="1648" type="qcurve"/>
      <point x="368" y="1550"/>
      <point x="454" y="1420"/>
      <point x="596" y="1322"/>
      <point x="680" y="1272" type="qcurve"/>
      <point x="848" y="1172" type="line"/>
      <point x="931" y="1123"/>
      <point x="1094" y="1023"/>
      <point x="1227" y="911"/>
      <point x="1308" y="773"/>
      <point x="1308" y="684" type="qcurve"/>
      <point x="1308" y="594"/>
      <point x="1213" y="455"/>
      <point x="1053" y="376"/>
      <point x="956" y="376" type="qcurve"/>
      <point x="956" y="372" type="line"/>
      <point x="1118" y="264"/>
      <point x="1228" y="99"/>
      <point x="1228" y="0" type="qcurve"/>
      <point x="1228" y="-128"/>
      <point x="1103" y="-315"/>
      <point x="884" y="-416"/>
      <point x="744" y="-416" type="qcurve"/>
      <point x="604" y="-416"/>
      <point x="384" y="-304"/>
      <point x="252" y="-102"/>
      <point x="244" y="32" type="qcurve"/>
      <point x="308" y="32" type="line"/>
      <point x="320" y="-139"/>
      <point x="555" y="-352"/>
      <point x="744" y="-352" type="qcurve"/>
      <point x="921" y="-352"/>
      <point x="1164" y="-165"/>
      <point x="1164" y="0" type="qcurve"/>
      <point x="1164" y="66"/>
      <point x="1109" y="176"/>
      <point x="964" y="296"/>
      <point x="828" y="376" type="qcurve"/>
      <point x="656" y="476" type="line"/>
      <point x="527" y="551"/>
      <point x="347" y="674"/>
      <point x="235" y="785"/>
      <point x="184" y="901"/>
      <point x="184" y="968" type="qcurve"/>
      <point x="184" y="1060"/>
      <point x="268" y="1208"/>
      <point x="422" y="1290"/>
      <point x="528" y="1284" type="qcurve"/>
      <point x="528" y="1292" type="line"/>
      <point x="423" y="1364"/>
      <point x="304" y="1528"/>
      <point x="304" y="1648" type="qcurve"/>
      <point x="304" y="1766"/>
      <point x="418" y="1960"/>
      <point x="618" y="2076"/>
      <point x="748" y="2076" type="qcurve"/>
      <point x="878" y="2076"/>
      <point x="1072" y="1963"/>
      <point x="1184" y="1764"/>
    </contour>
    <contour>
      <point x="1244" y="684" type="qcurve"/>
      <point x="1244" y="782"/>
      <point x="1116" y="931"/>
      <point x="922" y="1054"/>
      <point x="824" y="1112" type="qcurve"/>
      <point x="616" y="1236" type="line"/>
      <point x="490" y="1244"/>
      <point x="327" y="1178"/>
      <point x="248" y="1054"/>
      <point x="248" y="976" type="qcurve"/>
      <point x="248" y="853"/>
      <point x="455" y="666"/>
      <point x="680" y="536" type="qcurve"/>
      <point x="860" y="432" type="line"/>
      <point x="960" y="424"/>
      <point x="1135" y="476"/>
      <point x="1244" y="594"/>
    </contour>
  </outline>
</glyph>
<glyph name="dieresis" format="2">
  <advance width="1856"/>
  <unicode hex="00A8"/>
  <outline>
    <contour>
      <point x="736" y="1816" type="qcurve"/>
      <point x="710" y="1816"/>
      <point x="672" y="1854"/>
      <point x="672" y="1880" type="qcurve"/>
      <point x="672" y="1906"/>
      <point x="710" y="1944"/>
      <point x="736" y="1944" type="qcurve"/>
      <point x="762" y="1944"/>
      <point x="800" y="1906"/>
      <point x="800" y="1880" type="qcurve"/>
      <point x="800" y="1854"/>
      <point x="762" y="1816"/>
    </contour>
    <contour>
      <point x="1120" y="1816" type="qcurve"/>
      <point x="1094" y="1816"/>
      <point x="1056" y="1854"/>
      <point x="1056" y="1880" type="qcurve"/>
      <point x="1056" y="1906"/>
      <point x="1094" y="1944"/>
      <point x="1120" y="1944" type="qcurve"/>
      <point x="1146" y="1944"/>
      <point x="1184" y="1906"/>
      <point x="1184" y="1880" type="qcurve"/>
      <point x="1184" y="1854"/>
      <point x="1146" y="1816"/>
    </contour>
  </outline>
</glyph>
<glyph name="copyright" format="2">
  <advance width="2576"/>
  <unicode hex="00A9"/>
  <outline>
    <contour>
      <point x="722" y="1024" type="qcurve"/>
      <point x="722" y="1188"/>
      <point x="882" y="1458"/>
      <point x="1152" y="1618"/>
      <point x="1316" y="1618" type="qcurve"/>
      <point x="1434" y="1618"/>
      <point x="1631" y="1532"/>
      <point x="1774" y="1380"/>
      <point x="1812" y="1280" type="qcurve"/>
      <point x="1740" y="1280" type="line"/>
      <point x="1688" y="1403"/>
      <point x="1466" y="1554"/>
      <point x="1316" y="1554" type="qcurve"/>
      <point x="1170" y="1554"/>
      <point x="929" y="1411"/>
      <point x="786" y="1171"/>
      <point x="786" y="1024" type="qcurve"/>
      <point x="786" y="878"/>
      <point x="929" y="637"/>
      <point x="1170" y="494"/>
      <point x="1316" y="494" type="qcurve"/>
      <point x="1466" y="494"/>
      <point x="1688" y="645"/>
      <point x="1740" y="768" type="qcurve"/>
      <point x="1812" y="768" type="line"/>
      <point x="1774" y="668"/>
      <point x="1631" y="516"/>
      <point x="1434" y="430"/>
      <point x="1316" y="430" type="qcurve"/>
      <point x="1152" y="430"/>
      <point x="882" y="590"/>
      <point x="722" y="860"/>
    </contour>
    <contour>
      <point x="1288" y="-32" type="qcurve"/>
      <point x="1070" y="-32"/>
      <point x="687" y="132"/>
      <point x="396" y="423"/>
      <point x="231" y="805"/>
      <point x="232" y="1024" type="qcurve"/>
      <point x="233" y="1243"/>
      <point x="398" y="1625"/>
      <point x="688" y="1916"/>
      <point x="1070" y="2080"/>
      <point x="1288" y="2080" type="qcurve"/>
      <point x="1507" y="2080"/>
      <point x="1890" y="1916"/>
      <point x="2179" y="1625"/>
      <point x="2343" y="1243"/>
      <point x="2344" y="1024" type="qcurve"/>
      <point x="2345" y="805"/>
      <point x="2181" y="423"/>
      <point x="1891" y="132"/>
      <point x="1507" y="-32"/>
    </contour>
    <contour>
      <point x="1289" y="32" type="qcurve"/>
      <point x="1494" y="32"/>
      <point x="1855" y="186"/>
      <point x="2127" y="459"/>
      <point x="2281" y="819"/>
      <point x="2280" y="1024" type="qcurve"/>
      <point x="2279" y="1230"/>
      <point x="2125" y="1590"/>
      <point x="1853" y="1862"/>
      <point x="1494" y="2016"/>
      <point x="1288" y="2016" type="qcurve"/>
      <point x="1083" y="2016"/>
      <point x="725" y="1862"/>
      <point x="452" y="1589"/>
      <point x="297" y="1229"/>
      <point x="296" y="1024" type="qcurve"/>
      <point x="295" y="819"/>
      <point x="449" y="460"/>
      <point x="722" y="187"/>
      <point x="1083" y="32"/>
    </contour>
  </outline>
</glyph>
<glyph name="ordfeminine" format="2">
  <advance width="1016"/>
  <unicode hex="00AA"/>
  <outline>
    <contour>
      <point x="774" y="1184" type="qcurve"/>
      <point x="774" y="1652" type="line"/>
      <point x="772" y="1817"/>
      <point x="652" y="1968"/>
      <point x="524" y="1968" type="qcurve"/>
      <point x="387" y="1968"/>
      <point x="236" y="1838"/>
      <point x="226" y="1710" type="qcurve"/>
      <point x="162" y="1716" type="line"/>
      <point x="168" y="1861"/>
      <point x="364" y="2032"/>
      <point x="524" y="2032" type="qcurve"/>
      <point x="685" y="2032"/>
      <point x="837" y="1848"/>
      <point x="838" y="1652" type="qcurve"/>
      <point x="838" y="1220" type="line"/>
      <point x="837" y="1147"/>
      <point x="853" y="1029"/>
      <point x="870" y="976" type="qcurve"/>
      <point x="802" y="976" type="line"/>
      <point x="786" y="1023"/>
      <point x="772" y="1132"/>
    </contour>
    <contour>
      <point x="786" y="1548" type="line"/>
      <point x="786" y="1488" type="line"/>
      <point x="550" y="1488" type="line"/>
      <point x="381" y="1488"/>
      <point x="209" y="1365"/>
      <point x="210" y="1244" type="qcurve"/>
      <point x="209" y="1140"/>
      <point x="332" y="1018"/>
      <point x="438" y="1016" type="qcurve"/>
      <point x="498" y="1015"/>
      <point x="616" y="1050"/>
      <point x="728" y="1122"/>
      <point x="780" y="1174" type="qcurve"/>
      <point x="804" y="1132" type="line"/>
      <point x="701" y="1035"/>
      <point x="532" y="952"/>
      <point x="438" y="952" type="qcurve"/>
      <point x="305" y="952"/>
      <point x="144" y="1113"/>
      <point x="144" y="1244" type="qcurve"/>
      <point x="146" y="1393"/>
      <point x="352" y="1548"/>
      <point x="550" y="1548" type="qcurve"/>
    </contour>
  </outline>
</glyph>
<glyph name="logicalnot" format="2">
  <advance width="1407"/>
  <unicode hex="00AC"/>
  <outline>
    <contour>
      <point x="1264" y="1108" type="line"/>
      <point x="1264" y="1044" type="line"/>
      <point x="148" y="1044" type="line"/>
      <point x="148" y="1108" type="line"/>
    </contour>
    <contour>
      <point x="1264" y="1080" type="line"/>
      <point x="1264" y="516" type="line"/>
      <point x="1200" y="516" type="line"/>
      <point x="1200" y="1080" type="line"/>
    </contour>
  </outline>
</glyph>
<glyph name="registered" format="2">
  <advance width="1888"/>
  <unicode hex="00AE"/>
  <outline>
    <contour>
      <point x="690" y="916" type="line"/>
      <point x="690" y="1654" type="line"/>
      <point x="1006" y="1654" type="line"/>
      <point x="1082" y="1654"/>
      <point x="1187" y="1597"/>
      <point x="1242" y="1498"/>
      <point x="1242" y="1434" type="qcurve"/>
      <point x="1242" y="1370"/>
      <point x="1187" y="1269"/>
      <point x="1082" y="1210"/>
      <point x="1006" y="1210" type="qcurve"/>
      <point x="724" y="1210" type="line"/>
      <point x="724" y="1274" type="line"/>
      <point x="1004" y="1274" type="line"/>
      <point x="1091" y="1274"/>
      <point x="1178" y="1361"/>
      <point x="1178" y="1434" type="qcurve"/>
      <point x="1178" y="1508"/>
      <point x="1091" y="1590"/>
      <point x="1004" y="1590" type="qcurve"/>
      <point x="754" y="1590" type="line"/>
      <point x="754" y="916" type="line"/>
    </contour>
    <contour>
      <point x="1090" y="1248" type="line"/>
      <point x="1272" y="916" type="line"/>
      <point x="1198" y="916" type="line"/>
      <point x="1020" y="1248" type="line"/>
    </contour>
    <contour>
      <point x="944" y="476" type="qcurve"/>
      <point x="778" y="476"/>
      <point x="488" y="600"/>
      <point x="268" y="820"/>
      <point x="144" y="1110"/>
      <point x="144" y="1276" type="qcurve"/>
      <point x="144" y="1442"/>
      <point x="268" y="1732"/>
      <point x="488" y="1952"/>
      <point x="778" y="2076"/>
      <point x="944" y="2076" type="qcurve"/>
      <point x="1110" y="2076"/>
      <point x="1400" y="1952"/>
      <point x="1620" y="1732"/>
      <point x="1744" y="1442"/>
      <point x="1744" y="1276" type="qcurve"/>
      <point x="1744" y="1110"/>
      <point x="1620" y="820"/>
      <point x="1400" y="600"/>
      <point x="1110" y="476"/>
    </contour>
    <contour>
      <point x="944" y="540" type="qcurve"/>
      <point x="1148" y="540"/>
      <point x="1482" y="738"/>
      <point x="1680" y="1073"/>
      <point x="1680" y="1276" type="qcurve"/>
      <point x="1680" y="1480"/>
      <point x="1482" y="1814"/>
      <point x="1148" y="2012"/>
      <point x="944" y="2012" type="qcurve"/>
      <point x="741" y="2012"/>
      <point x="406" y="1814"/>
      <point x="208" y="1480"/>
      <point x="208" y="1276" type="qcurve"/>
      <point x="208" y="1073"/>
      <point x="406" y="738"/>
      <point x="741" y="540"/>
    </contour>
  </outline>
</glyph>
<glyph name="macron" format="2">
  <advance width="824"/>
  <unicode hex="00AF"/>
  <outline>
    <contour>
      <point x="732" y="1912" type="line"/>
      <point x="732" y="1848" type="line"/>
      <point x="92" y="1848" type="line"/>
      <point x="92" y="1912" type="line"/>
    </contour>
  </outline>
</glyph>
<glyph name="degree" format="2">
  <advance width="1280"/>
  <unicode hex="00B0"/>
  <outline>
    <contour>
      <point x="640" y="1244" type="qcurve"/>
      <point x="525" y="1244"/>
      <point x="336" y="1356"/>
      <point x="224" y="1545"/>
      <point x="224" y="1660" type="qcurve"/>
      <point x="224" y="1775"/>
      <point x="336" y="1964"/>
      <point x="525" y="2076"/>
      <point x="640" y="2076" type="qcurve"/>
      <point x="755" y="2076"/>
      <point x="944" y="1964"/>
      <point x="1056" y="1775"/>
      <point x="1056" y="1660" type="qcurve"/>
      <point x="1056" y="1545"/>
      <point x="944" y="1356"/>
      <point x="755" y="1244"/>
    </contour>
    <contour>
      <point x="640" y="1308" type="qcurve"/>
      <point x="738" y="1308"/>
      <point x="897" y="1403"/>
      <point x="992" y="1563"/>
      <point x="992" y="1660" type="qcurve"/>
      <point x="992" y="1758"/>
      <point x="897" y="1917"/>
      <point x="738" y="2012"/>
      <point x="640" y="2012" type="qcurve"/>
      <point x="543" y="2012"/>
      <point x="383" y="1917"/>
      <point x="288" y="1758"/>
      <point x="288" y="1660" type="qcurve"/>
      <point x="288" y="1563"/>
      <point x="383" y="1403"/>
      <point x="543" y="1308"/>
    </contour>
  </outline>
</glyph>
<glyph name="plusminus" format="2">
  <advance width="1792"/>
  <unicode hex="00B1"/>
  <outline>
    <contour>
      <point x="316" y="192" type="line"/>
      <point x="316" y="256" type="line"/>
      <point x="1476" y="256" type="line"/>
      <point x="1476" y="192" type="line"/>
    </contour>
    <contour>
      <point x="316" y="960" type="line"/>
      <point x="316" y="1024" type="line"/>
      <point x="1476" y="1024" type="line"/>
      <point x="1476" y="960" type="line"/>
    </contour>
    <contour>
      <point x="864" y="448" type="line"/>
      <point x="864" y="1536" type="line"/>
      <point x="928" y="1536" type="line"/>
      <point x="928" y="448" type="line"/>
    </contour>
  </outline>
</glyph>
<glyph name="twosuperior" format="2">
  <advance width="1160"/>
  <unicode hex="00B2"/>
  <outline>
    <contour>
      <point x="168" y="1024" type="line"/>
      <point x="168" y="1072" type="line"/>
      <point x="608" y="1532" type="line"/>
      <point x="749" y="1679"/>
      <point x="864" y="1852"/>
      <point x="864" y="1948" type="qcurve"/>
      <point x="864" y="2062"/>
      <point x="692" y="2212"/>
      <point x="560" y="2212" type="qcurve"/>
      <point x="422" y="2212"/>
      <point x="252" y="2050"/>
      <point x="252" y="1936" type="qcurve"/>
      <point x="188" y="1936" type="line"/>
      <point x="188" y="2077"/>
      <point x="398" y="2268"/>
      <point x="560" y="2268" type="qcurve"/>
      <point x="666" y="2268"/>
      <point x="832" y="2183"/>
      <point x="928" y="2038"/>
      <point x="928" y="1948" type="qcurve"/>
      <point x="928" y="1880"/>
      <point x="878" y="1755"/>
      <point x="756" y="1600"/>
      <point x="648" y="1488" type="qcurve"/>
      <point x="260" y="1088" type="line"/>
      <point x="260" y="1084" type="line"/>
      <point x="996" y="1084" type="line"/>
      <point x="996" y="1024" type="line"/>
    </contour>
  </outline>
</glyph>
<glyph name="threesuperior" format="2">
  <advance width="1156"/>
  <unicode hex="00B3"/>
  <outline>
    <contour>
      <point x="584" y="1008" type="qcurve"/>
      <point x="466" y="1008"/>
      <point x="278" y="1092"/>
      <point x="168" y="1238"/>
      <point x="168" y="1332" type="qcurve"/>
      <point x="232" y="1332" type="line"/>
      <point x="232" y="1215"/>
      <point x="437" y="1068"/>
      <point x="584" y="1068" type="qcurve"/>
      <point x="740" y="1068"/>
      <point x="936" y="1231"/>
      <point x="936" y="1348" type="qcurve"/>
      <point x="936" y="1471"/>
      <point x="718" y="1628"/>
      <point x="544" y="1628" type="qcurve"/>
      <point x="508" y="1628" type="line"/>
      <point x="508" y="1688" type="line"/>
      <point x="544" y="1688" type="line"/>
      <point x="691" y="1688"/>
      <point x="892" y="1829"/>
      <point x="892" y="1952" type="qcurve"/>
      <point x="892" y="2063"/>
      <point x="718" y="2212"/>
      <point x="580" y="2212" type="qcurve"/>
      <point x="445" y="2212"/>
      <point x="263" y="2064"/>
      <point x="260" y="1944" type="qcurve"/>
      <point x="200" y="1944" type="line"/>
      <point x="200" y="2040"/>
      <point x="300" y="2186"/>
      <point x="472" y="2268"/>
      <point x="580" y="2268" type="qcurve"/>
      <point x="690" y="2268"/>
      <point x="860" y="2185"/>
      <point x="956" y="2042"/>
      <point x="956" y="1952" type="qcurve"/>
      <point x="956" y="1844"/>
      <point x="819" y="1691"/>
      <point x="708" y="1664" type="qcurve"/>
      <point x="708" y="1656" type="line"/>
      <point x="840" y="1629"/>
      <point x="996" y="1462"/>
      <point x="996" y="1348" type="qcurve"/>
      <point x="996" y="1252"/>
      <point x="890" y="1098"/>
      <point x="704" y="1008"/>
    </contour>
  </outline>
</glyph>
<glyph name="acute" format="2">
  <advance width="1400"/>
  <unicode hex="00B4"/>
  <outline>
    <contour>
      <point x="662" y="1760" type="line"/>
      <point x="942" y="2192" type="line"/>
      <point x="1022" y="2192" type="line"/>
      <point x="726" y="1760" type="line"/>
    </contour>
  </outline>
</glyph>
<glyph name="mu" format="2">
  <advance width="1588"/>
  <unicode hex="00B5"/>
  <outline>
    <contour>
      <point x="264" y="-596" type="line"/>
      <point x="264" y="1536" type="line"/>
      <point x="328" y="1536" type="line"/>
      <point x="328" y="504" type="line"/>
      <point x="328" y="370"/>
      <point x="449" y="162"/>
      <point x="660" y="44"/>
      <point x="796" y="44" type="qcurve"/>
      <point x="932" y="44"/>
      <point x="1143" y="162"/>
      <point x="1264" y="370"/>
      <point x="1264" y="504" type="qcurve"/>
      <point x="1264" y="1536" type="line"/>
      <point x="1328" y="1536" type="line"/>
      <point x="1328" y="0" type="line"/>
      <point x="1264" y="0" type="line"/>
      <point x="1264" y="244" type="line"/>
      <point x="1256" y="244" type="line"/>
      <point x="1202" y="124"/>
      <point x="955" y="-20"/>
      <point x="796" y="-20" type="qcurve"/>
      <point x="637" y="-20"/>
      <point x="390" y="124"/>
      <point x="336" y="244" type="qcurve"/>
      <point x="328" y="244" type="line"/>
      <point x="328" y="-596" type="line"/>
    </contour>
  </outline>
</glyph>
<glyph name="paragraph" format="2">
  <advance width="1560"/>
  <unicode hex="00B6"/>
  <outline>
    <contour>
      <point x="1240" y="1984" type="line"/>
      <point x="984" y="1984" type="line"/>
      <point x="984" y="760" type="line"/>
      <point x="868" y="760" type="line"/>
      <point x="650" y="760"/>
      <point x="348" y="927"/>
      <point x="192" y="1218"/>
      <point x="192" y="1404" type="qcurve"/>
      <point x="192" y="1588"/>
      <point x="348" y="1879"/>
      <point x="650" y="2048"/>
      <point x="868" y="2048" type="qcurve"/>
      <point x="1240" y="2048" type="line"/>
    </contour>
    <contour>
      <point x="1176" y="0" type="line"/>
      <point x="1176" y="2048" type="line"/>
      <point x="1240" y="2048" type="line"/>
      <point x="1240" y="0" type="line"/>
    </contour>
  </outline>
</glyph>
<glyph name="cedilla" format="2">
  <advance width="576"/>
  <unicode hex="00B8"/>
  <outline>
    <contour>
      <point x="262" y="8" type="line"/>
      <point x="326" y="8" type="line"/>
      <point x="312" y="-72" type="line"/>
      <point x="414" y="-88"/>
      <point x="519" y="-211"/>
      <point x="520" y="-304" type="qcurve"/>
      <point x="519" y="-410"/>
      <point x="382" y="-511"/>
      <point x="250" y="-516" type="qcurve"/>
      <point x="248" y="-452" type="line"/>
      <point x="360" y="-448"/>
      <point x="455" y="-377"/>
      <point x="456" y="-304" type="qcurve"/>
      <point x="455" y="-218"/>
      <point x="344" y="-130"/>
      <point x="234" y="-132" type="qcurve"/>
    </contour>
  </outline>
</glyph>
<glyph name="onesuperior" format="2">
  <advance width="768"/>
  <unicode hex="00B9"/>
  <outline>
    <contour>
      <point x="424" y="1024" type="line"/>
      <point x="424" y="2184" type="line"/>
      <point x="412" y="2184" type="line"/>
      <point x="126" y="1994" type="line"/>
      <point x="126" y="2070" type="line"/>
      <point x="400" y="2252" type="line"/>
      <point x="488" y="2252" type="line"/>
      <point x="488" y="1024" type="line"/>
    </contour>
  </outline>
</glyph>
<glyph name="ordmasculine" format="2">
  <advance width="1100"/>
  <unicode hex="00BA"/>
  <outline>
    <contour>
      <point x="120" y="1438" type="qcurve"/>
      <point x="120" y="1554" type="line"/>
      <point x="120" y="1781"/>
      <point x="347" y="2032"/>
      <point x="552" y="2032" type="qcurve"/>
      <point x="755" y="2032"/>
      <point x="980" y="1780"/>
      <point x="980" y="1554" type="qcurve"/>
      <point x="980" y="1438" type="line"/>
      <point x="980" y="1209"/>
      <point x="754" y="957"/>
      <point x="548" y="956" type="qcurve"/>
      <point x="346" y="955"/>
      <point x="120" y="1209"/>
    </contour>
    <contour>
      <point x="180" y="1554" type="qcurve"/>
      <point x="180" y="1438" type="line"/>
      <point x="180" y="1241"/>
      <point x="376" y="1017"/>
      <point x="548" y="1016" type="qcurve"/>
      <point x="724" y="1015"/>
      <point x="920" y="1239"/>
      <point x="920" y="1438" type="qcurve"/>
      <point x="920" y="1554" type="line"/>
      <point x="920" y="1749"/>
      <point x="724" y="1972"/>
      <point x="552" y="1972" type="qcurve"/>
      <point x="377" y="1972"/>
      <point x="180" y="1750"/>
    </contour>
  </outline>
</glyph>
<glyph name="questiondown" format="2">
  <advance width="1348"/>
  <unicode hex="00BF"/>
  <outline>
    <contour>
      <point x="732" y="1560" type="qcurve"/>
      <point x="762" y="1560"/>
      <point x="804" y="1518"/>
      <point x="804" y="1488" type="qcurve"/>
      <point x="804" y="1458"/>
      <point x="762" y="1416"/>
      <point x="732" y="1416" type="qcurve"/>
      <point x="702" y="1416"/>
      <point x="660" y="1458"/>
      <point x="660" y="1488" type="qcurve"/>
      <point x="660" y="1518"/>
      <point x="702" y="1560"/>
    </contour>
    <contour>
      <point x="764" y="940" type="line"/>
      <point x="764" y="800" type="line"/>
      <point x="764" y="708"/>
      <point x="714" y="566"/>
      <point x="595" y="437"/>
      <point x="492" y="364" type="qcurve"/>
      <point x="340" y="257"/>
      <point x="224" y="81"/>
      <point x="224" y="-28" type="qcurve"/>
      <point x="224" y="-155"/>
      <point x="345" y="-352"/>
      <point x="551" y="-464"/>
      <point x="680" y="-464" type="qcurve"/>
      <point x="816" y="-464"/>
      <point x="1029" y="-339"/>
      <point x="1152" y="-124"/>
      <point x="1152" y="12" type="qcurve"/>
      <point x="1216" y="12" type="line"/>
      <point x="1216" y="-142"/>
      <point x="1076" y="-386"/>
      <point x="834" y="-528"/>
      <point x="680" y="-528" type="qcurve"/>
      <point x="534" y="-528"/>
      <point x="298" y="-398"/>
      <point x="160" y="-172"/>
      <point x="160" y="-28" type="qcurve"/>
      <point x="160" y="99"/>
      <point x="293" y="298"/>
      <point x="456" y="416" type="qcurve"/>
      <point x="552" y="485"/>
      <point x="658" y="598"/>
      <point x="700" y="719"/>
      <point x="700" y="800" type="qcurve"/>
      <point x="700" y="940" type="line"/>
    </contour>
  </outline>
</glyph>
<glyph name="Adieresis" format="2">
  <advance width="1736"/>
  <unicode hex="00C4"/>
  <outline>
    <contour>
      <point x="160" y="0" type="line"/>
      <point x="92" y="0" type="line"/>
      <point x="824" y="2048" type="line"/>
      <point x="912" y="2048" type="line"/>
      <point x="1644" y="0" type="line"/>
      <point x="1576" y="0" type="line"/>
      <point x="872" y="1968" type="line"/>
      <point x="864" y="1968" type="line"/>
    </contour>
    <contour>
      <point x="392" y="756" type="line"/>
      <point x="1344" y="756" type="line"/>
      <point x="1344" y="692" type="line"/>
      <point x="392" y="692" type="line"/>
    </contour>
    <contour>
      <point x="676" y="2328" type="qcurve"/>
      <point x="650" y="2328"/>
      <point x="612" y="2366"/>
      <point x="612" y="2392" type="qcurve"/>
      <point x="612" y="2418"/>
      <point x="650" y="2456"/>
      <point x="676" y="2456" type="qcurve"/>
      <point x="702" y="2456"/>
      <point x="740" y="2418"/>
      <point x="740" y="2392" type="qcurve"/>
      <point x="740" y="2366"/>
      <point x="702" y="2328"/>
    </contour>
    <contour>
      <point x="1060" y="2328" type="qcurve"/>
      <point x="1034" y="2328"/>
      <point x="996" y="2366"/>
      <point x="996" y="2392" type="qcurve"/>
      <point x="996" y="2418"/>
      <point x="1034" y="2456"/>
      <point x="1060" y="2456" type="qcurve"/>
      <point x="1086" y="2456"/>
      <point x="1124" y="2418"/>
      <point x="1124" y="2392" type="qcurve"/>
      <point x="1124" y="2366"/>
      <point x="1086" y="2328"/>
    </contour>
  </outline>
</glyph>
<glyph name="Aring" format="2">
  <advance width="1736"/>
  <unicode hex="00C5"/>
  <outline>
    <contour>
      <point x="160" y="0" type="line"/>
      <point x="92" y="0" type="line"/>
      <point x="824" y="2048" type="line"/>
      <point x="912" y="2048" type="line"/>
      <point x="1644" y="0" type="line"/>
      <point x="1576" y="0" type="line"/>
      <point x="872" y="1968" type="line"/>
      <point x="864" y="1968" type="line"/>
    </contour>
    <contour>
      <point x="392" y="756" type="line"/>
      <point x="1344" y="756" type="line"/>
      <point x="1344" y="692" type="line"/>
      <point x="392" y="692" type="line"/>
    </contour>
    <contour>
      <point x="868" y="2148" type="qcurve"/>
      <point x="773" y="2148"/>
      <point x="640" y="2281"/>
      <point x="640" y="2376" type="qcurve"/>
      <point x="640" y="2471"/>
      <point x="773" y="2604"/>
      <point x="868" y="2604" type="qcurve"/>
      <point x="963" y="2604"/>
      <point x="1096" y="2471"/>
      <point x="1096" y="2376" type="qcurve"/>
      <point x="1096" y="2281"/>
      <point x="963" y="2148"/>
    </contour>
    <contour>
      <point x="868" y="2212" type="qcurve"/>
      <point x="937" y="2212"/>
      <point x="1032" y="2308"/>
      <point x="1032" y="2376" type="qcurve"/>
      <point x="1032" y="2445"/>
      <point x="936" y="2540"/>
      <point x="868" y="2540" type="qcurve"/>
      <point x="799" y="2540"/>
      <point x="704" y="2444"/>
      <point x="704" y="2376" type="qcurve"/>
      <point x="704" y="2307"/>
      <point x="800" y="2212"/>
    </contour>
  </outline>
</glyph>
<glyph name="AE" format="2">
  <advance width="2700"/>
  <unicode hex="00C6"/>
  <outline>
    <contour>
      <point x="92" y="0" type="line"/>
      <point x="1136" y="2048" type="line"/>
      <point x="2468" y="2048" type="line"/>
      <point x="2468" y="1984" type="line"/>
      <point x="1440" y="1984" type="line"/>
      <point x="1440" y="1056" type="line"/>
      <point x="2408" y="1056" type="line"/>
      <point x="2408" y="992" type="line"/>
      <point x="1440" y="992" type="line"/>
      <point x="1440" y="64" type="line"/>
      <point x="2496" y="64" type="line"/>
      <point x="2496" y="0" type="line"/>
      <point x="1376" y="0" type="line"/>
      <point x="1376" y="1984" type="line"/>
      <point x="1176" y="1984" type="line"/>
      <point x="164" y="0" type="line"/>
    </contour>
    <contour>
      <point x="492" y="692" type="line"/>
      <point x="492" y="756" type="line"/>
      <point x="1412" y="756" type="line"/>
      <point x="1412" y="692" type="line"/>
    </contour>
  </outline>
</glyph>
<glyph name="Odieresis" format="2">
  <advance width="2104"/>
  <unicode hex="00D6"/>
  <outline>
    <contour>
      <point x="1900" y="1024" type="qcurve"/>
      <point x="1900" y="711"/>
      <point x="1686" y="237"/>
      <point x="1304" y="-28"/>
      <point x="1052" y="-28" type="qcurve"/>
      <point x="799" y="-28"/>
      <point x="417" y="238"/>
      <point x="204" y="712"/>
      <point x="204" y="1024" type="qcurve"/>
      <point x="204" y="1337"/>
      <point x="418" y="1810"/>
      <point x="800" y="2076"/>
      <point x="1052" y="2076" type="qcurve"/>
      <point x="1304" y="2076"/>
      <point x="1686" y="1811"/>
      <point x="1900" y="1337"/>
    </contour>
    <contour>
      <point x="1836" y="1024" type="qcurve"/>
      <point x="1836" y="1318"/>
      <point x="1638" y="1763"/>
      <point x="1285" y="2012"/>
      <point x="1052" y="2012" type="qcurve"/>
      <point x="820" y="2012"/>
      <point x="467" y="1765"/>
      <point x="268" y="1320"/>
      <point x="268" y="1024" type="qcurve"/>
      <point x="268" y="732"/>
      <point x="464" y="287"/>
      <point x="817" y="36"/>
      <point x="1052" y="36" type="qcurve"/>
      <point x="1285" y="36"/>
      <point x="1639" y="285"/>
      <point x="1837" y="730"/>
    </contour>
    <contour>
      <point x="860" y="2328" type="qcurve"/>
      <point x="834" y="2328"/>
      <point x="796" y="2366"/>
      <point x="796" y="2392" type="qcurve"/>
      <point x="796" y="2418"/>
      <point x="834" y="2456"/>
      <point x="860" y="2456" type="qcurve"/>
      <point x="886" y="2456"/>
      <point x="924" y="2418"/>
      <point x="924" y="2392" type="qcurve"/>
      <point x="924" y="2366"/>
      <point x="886" y="2328"/>
    </contour>
    <contour>
      <point x="1244" y="2328" type="qcurve"/>
      <point x="1218" y="2328"/>
      <point x="1180" y="2366"/>
      <point x="1180" y="2392" type="qcurve"/>
      <point x="1180" y="2418"/>
      <point x="1218" y="2456"/>
      <point x="1244" y="2456" type="qcurve"/>
      <point x="1270" y="2456"/>
      <point x="1308" y="2418"/>
      <point x="1308" y="2392" type="qcurve"/>
      <point x="1308" y="2366"/>
      <point x="1270" y="2328"/>
    </contour>
  </outline>
</glyph>
<glyph name="multiply" format="2">
  <advance width="1792"/>
  <unicode hex="00D7"/>
  <outline>
    <contour>
      <point x="1437" y="213" type="line"/>
      <point x="309" y="1341" type="line"/>
      <point x="355" y="1387" type="line"/>
      <point x="1483" y="259" type="line"/>
    </contour>
    <contour>
      <point x="355" y="213" type="line"/>
      <point x="309" y="259" type="line"/>
      <point x="1437" y="1387" type="line"/>
      <point x="1483" y="1341" type="line"/>
    </contour>
  </outline>
</glyph>
<glyph name="Thorn" format="2">
  <advance width="1663"/>
  <unicode hex="00DE"/>
  <outline>
    <contour>
      <point x="292" y="2048" type="line"/>
      <point x="352" y="2048" type="line"/>
      <point x="352" y="0" type="line"/>
      <point x="292" y="0" type="line"/>
    </contour>
    <contour>
      <point x="324" y="1556" type="line"/>
      <point x="844" y="1556" type="line"/>
      <point x="1027" y="1556"/>
      <point x="1295" y="1427"/>
      <point x="1440" y="1191"/>
      <point x="1440" y="1028" type="qcurve"/>
      <point x="1440" y="862"/>
      <point x="1298" y="624"/>
      <point x="1031" y="498"/>
      <point x="844" y="498" type="qcurve"/>
      <point x="324" y="498" type="line"/>
      <point x="324" y="562" type="line"/>
      <point x="844" y="562" type="line"/>
      <point x="1013" y="562"/>
      <point x="1250" y="670"/>
      <point x="1375" y="877"/>
      <point x="1376" y="1024" type="qcurve"/>
      <point x="1375" y="1171"/>
      <point x="1248" y="1381"/>
      <point x="1010" y="1492"/>
      <point x="844" y="1492" type="qcurve"/>
      <point x="324" y="1492" type="line"/>
    </contour>
  </outline>
</glyph>
<glyph name="germandbls" format="2">
  <advance width="1618"/>
  <unicode hex="00DF"/>
  <outline>
    <contour>
      <point x="320" y="0" type="line"/>
      <point x="320" y="1540" type="line"/>
      <point x="320" y="1703"/>
      <point x="446" y="1944"/>
      <point x="674" y="2076"/>
      <point x="826" y="2076" type="qcurve"/>
      <point x="971" y="2076"/>
      <point x="1189" y="1953"/>
      <point x="1309" y="1731"/>
      <point x="1308" y="1584" type="qcurve"/>
      <point x="1307" y="1396"/>
      <point x="1106" y="1122"/>
      <point x="924" y="1066" type="qcurve"/>
      <point x="924" y="1058" type="line"/>
      <point x="1160" y="1006"/>
      <point x="1402" y="742"/>
      <point x="1402" y="536" type="qcurve"/>
      <point x="1402" y="374"/>
      <point x="1256" y="133"/>
      <point x="989" y="0"/>
      <point x="808" y="0" type="qcurve"/>
      <point x="668" y="0" type="line"/>
      <point x="668" y="64" type="line"/>
      <point x="824" y="64" type="line"/>
      <point x="978" y="64"/>
      <point x="1210" y="181"/>
      <point x="1340" y="388"/>
      <point x="1340" y="524" type="qcurve"/>
      <point x="1340" y="754"/>
      <point x="997" y="1024"/>
      <point x="706" y="1024" type="qcurve"/>
      <point x="676" y="1024" type="line"/>
      <point x="676" y="1088" type="line"/>
      <point x="708" y="1088" type="line"/>
      <point x="870" y="1088"/>
      <point x="1111" y="1215"/>
      <point x="1244" y="1439"/>
      <point x="1244" y="1584" type="qcurve"/>
      <point x="1244" y="1782"/>
      <point x="1016" y="2012"/>
      <point x="828" y="2012" type="qcurve"/>
      <point x="622" y="2014"/>
      <point x="384" y="1754"/>
      <point x="384" y="1524" type="qcurve"/>
      <point x="384" y="0" type="line"/>
    </contour>
  </outline>
</glyph>
<glyph name="ae" format="2">
  <advance width="2596"/>
  <unicode hex="00E6"/>
  <outline>
    <contour>
      <point x="1820" y="-32" type="qcurve"/>
      <point x="1589" y="-32"/>
      <point x="1265" y="241"/>
      <point x="1196" y="460" type="qcurve"/>
      <point x="1216" y="1124" type="line"/>
      <point x="1292" y="1321"/>
      <point x="1594" y="1560"/>
      <point x="1788" y="1560" type="qcurve"/>
      <point x="1922" y="1560"/>
      <point x="2150" y="1445"/>
      <point x="2321" y="1244"/>
      <point x="2416" y="981"/>
      <point x="2416" y="832" type="qcurve"/>
      <point x="2416" y="768" type="line"/>
      <point x="1196" y="768" type="line"/>
      <point x="1196" y="832" type="line"/>
      <point x="2352" y="832" type="line"/>
      <point x="2352" y="1016"/>
      <point x="2200" y="1317"/>
      <point x="1944" y="1496"/>
      <point x="1788" y="1496" type="qcurve"/>
      <point x="1630" y="1496"/>
      <point x="1374" y="1308"/>
      <point x="1220" y="984"/>
      <point x="1216" y="780" type="qcurve"/>
      <point x="1216" y="772" type="line"/>
      <point x="1216" y="570"/>
      <point x="1356" y="234"/>
      <point x="1626" y="32"/>
      <point x="1820" y="32" type="qcurve"/>
      <point x="1962" y="32"/>
      <point x="2155" y="132"/>
      <point x="2272" y="262"/>
      <point x="2300" y="308" type="qcurve"/>
      <point x="2364" y="308" type="line"/>
      <point x="2318" y="214"/>
      <point x="2183" y="72"/>
      <point x="1970" y="-32"/>
    </contour>
    <contour>
      <point x="656" y="32" type="qcurve"/>
      <point x="802" y="32"/>
      <point x="1040" y="189"/>
      <point x="1180" y="470"/>
      <point x="1180" y="656" type="qcurve"/>
      <point x="1180" y="888" type="line"/>
      <point x="1152" y="867"/>
      <point x="1073" y="835"/>
      <point x="974" y="810"/>
      <point x="858" y="792"/>
      <point x="792" y="784" type="qcurve"/>
      <point x="586" y="760"/>
      <point x="350" y="662"/>
      <point x="252" y="514"/>
      <point x="252" y="416" type="qcurve"/>
      <point x="252" y="242"/>
      <point x="485" y="32"/>
    </contour>
    <contour>
      <point x="656" y="-32" type="qcurve"/>
      <point x="530" y="-32"/>
      <point x="317" y="72"/>
      <point x="188" y="272"/>
      <point x="188" y="416" type="qcurve"/>
      <point x="188" y="494"/>
      <point x="238" y="631"/>
      <point x="364" y="743"/>
      <point x="591" y="823"/>
      <point x="768" y="844" type="qcurve"/>
      <point x="874" y="856"/>
      <point x="1062" y="888"/>
      <point x="1180" y="952"/>
      <point x="1180" y="1012" type="qcurve"/>
      <point x="1180" y="1104" type="line"/>
      <point x="1180" y="1281"/>
      <point x="942" y="1496"/>
      <point x="744" y="1496" type="qcurve"/>
      <point x="582" y="1496"/>
      <point x="340" y="1353"/>
      <point x="292" y="1224" type="qcurve"/>
      <point x="232" y="1224" type="line"/>
      <point x="268" y="1344"/>
      <point x="418" y="1484"/>
      <point x="624" y="1560"/>
      <point x="744" y="1560" type="qcurve"/>
      <point x="861" y="1560"/>
      <point x="1046" y="1491"/>
      <point x="1176" y="1368"/>
      <point x="1244" y="1202"/>
      <point x="1244" y="1104" type="qcurve"/>
      <point x="1244" y="480" type="line"/>
      <point x="1232" y="480" type="line"/>
      <point x="1186" y="296"/>
      <point x="1002" y="71"/>
      <point x="772" y="-32"/>
    </contour>
  </outline>
</glyph>
<glyph name="idieresis" format="2">
  <advance width="624"/>
  <unicode hex="00EF"/>
  <outline>
    <contour>
      <point x="280" y="0" type="line"/>
      <point x="280" y="1536" type="line"/>
      <point x="344" y="1536" type="line"/>
      <point x="344" y="0" type="line"/>
    </contour>
    <contour>
      <point x="120" y="1816" type="qcurve"/>
      <point x="94" y="1816"/>
      <point x="56" y="1854"/>
      <point x="56" y="1880" type="qcurve"/>
      <point x="56" y="1906"/>
      <point x="94" y="1944"/>
      <point x="120" y="1944" type="qcurve"/>
      <point x="146" y="1944"/>
      <point x="184" y="1906"/>
      <point x="184" y="1880" type="qcurve"/>
      <point x="184" y="1854"/>
      <point x="146" y="1816"/>
    </contour>
    <contour>
      <point x="504" y="1816" type="qcurve"/>
      <point x="478" y="1816"/>
      <point x="440" y="1854"/>
      <point x="440" y="1880" type="qcurve"/>
      <point x="440" y="1906"/>
      <point x="478" y="1944"/>
      <point x="504" y="1944" type="qcurve"/>
      <point x="530" y="1944"/>
      <point x="568" y="1906"/>
      <point x="568" y="1880" type="qcurve"/>
      <point x="568" y="1854"/>
      <point x="530" y="1816"/>
    </contour>
  </outline>
</glyph>
<glyph name="eth" format="2">
  <advance width="1670"/>
  <unicode hex="00F0"/>
  <outline>
    <contour>
      <point x="1348" y="2010" type="line"/>
      <point x="564" y="1654" type="line"/>
      <point x="548" y="1716" type="line"/>
      <point x="1332" y="2072" type="line"/>
    </contour>
    <contour>
      <point x="836" y="-32" type="qcurve"/>
      <point x="652" y="-32"/>
      <point x="355" y="166"/>
      <point x="180" y="505"/>
      <point x="180" y="714" type="qcurve"/>
      <point x="180" y="924"/>
      <point x="355" y="1262"/>
      <point x="652" y="1460"/>
      <point x="836" y="1460" type="qcurve"/>
      <point x="951" y="1460"/>
      <point x="1148" y="1385"/>
      <point x="1310" y="1238"/>
      <point x="1372" y="1128" type="qcurve"/>
      <point x="1382" y="1128" type="line"/>
      <point x="1318" y="1334"/>
      <point x="1090" y="1700"/>
      <point x="771" y="2003"/>
      <point x="570" y="2112" type="qcurve"/>
      <point x="590" y="2176" type="line"/>
      <point x="798" y="2065"/>
      <point x="1130" y="1753"/>
      <point x="1365" y="1379"/>
      <point x="1489" y="967"/>
      <point x="1490" y="754" type="qcurve"/>
      <point x="1491" y="515"/>
      <point x="1317" y="161"/>
      <point x="1020" y="-32"/>
    </contour>
    <contour>
      <point x="836" y="32" type="qcurve"/>
      <point x="1002" y="32"/>
      <point x="1270" y="213"/>
      <point x="1428" y="523"/>
      <point x="1428" y="714" type="qcurve"/>
      <point x="1428" y="905"/>
      <point x="1270" y="1214"/>
      <point x="1002" y="1396"/>
      <point x="836" y="1396" type="qcurve"/>
      <point x="671" y="1396"/>
      <point x="403" y="1214"/>
      <point x="244" y="905"/>
      <point x="244" y="714" type="qcurve"/>
      <point x="244" y="523"/>
      <point x="402" y="213"/>
      <point x="670" y="32"/>
    </contour>
  </outline>
</glyph>
<glyph name="odieresis" format="2">
  <advance width="1632"/>
  <unicode hex="00F6"/>
  <outline>
    <contour>
      <point x="816" y="-32" type="qcurve"/>
      <point x="635" y="-32"/>
      <point x="347" y="177"/>
      <point x="180" y="538"/>
      <point x="180" y="764" type="qcurve"/>
      <point x="180" y="991"/>
      <point x="347" y="1351"/>
      <point x="635" y="1560"/>
      <point x="816" y="1560" type="qcurve"/>
      <point x="997" y="1560"/>
      <point x="1284" y="1350"/>
      <point x="1452" y="990"/>
      <point x="1452" y="764" type="qcurve"/>
      <point x="1452" y="538"/>
      <point x="1285" y="177"/>
      <point x="997" y="-32"/>
    </contour>
    <contour>
      <point x="816" y="32" type="qcurve"/>
      <point x="979" y="32"/>
      <point x="1238" y="224"/>
      <point x="1388" y="556"/>
      <point x="1388" y="764" type="qcurve"/>
      <point x="1388" y="972"/>
      <point x="1237" y="1303"/>
      <point x="979" y="1496"/>
      <point x="816" y="1496" type="qcurve"/>
      <point x="654" y="1496"/>
      <point x="395" y="1303"/>
      <point x="244" y="972"/>
      <point x="244" y="764" type="qcurve"/>
      <point x="244" y="556"/>
      <point x="394" y="224"/>
      <point x="653" y="32"/>
    </contour>
    <contour>
      <point x="624" y="1816" type="qcurve"/>
      <point x="598" y="1816"/>
      <point x="560" y="1854"/>
      <point x="560" y="1880" type="qcurve"/>
      <point x="560" y="1906"/>
      <point x="598" y="1944"/>
      <point x="624" y="1944" type="qcurve"/>
      <point x="650" y="1944"/>
      <point x="688" y="1906"/>
      <point x="688" y="1880" type="qcurve"/>
      <point x="688" y="1854"/>
      <point x="650" y="1816"/>
    </contour>
    <contour>
      <point x="1008" y="1816" type="qcurve"/>
      <point x="982" y="1816"/>
      <point x="944" y="1854"/>
      <point x="944" y="1880" type="qcurve"/>
      <point x="944" y="1906"/>
      <point x="982" y="1944"/>
      <point x="1008" y="1944" type="qcurve"/>
      <point x="1034" y="1944"/>
      <point x="1072" y="1906"/>
      <point x="1072" y="1880" type="qcurve"/>
      <point x="1072" y="1854"/>
      <point x="1034" y="1816"/>
    </contour>
  </outline>
</glyph>
<glyph name="divide" format="2">
  <advance width="1792"/>
  <unicode hex="00F7"/>
  <outline>
    <contour>
      <point x="1476" y="832" type="line"/>
      <point x="1476" y="768" type="line"/>
      <point x="316" y="768" type="line"/>
      <point x="316" y="832" type="line"/>
    </contour>
    <contour>
      <point x="896" y="272" type="qcurve"/>
      <point x="866" y="272"/>
      <point x="824" y="314"/>
      <point x="824" y="344" type="qcurve"/>
      <point x="824" y="374"/>
      <point x="866" y="416"/>
      <point x="896" y="416" type="qcurve"/>
      <point x="926" y="416"/>
      <point x="968" y="374"/>
      <point x="968" y="344" type="qcurve"/>
      <point x="968" y="314"/>
      <point x="926" y="272"/>
    </contour>
    <contour>
      <point x="896" y="1184" type="qcurve"/>
      <point x="866" y="1184"/>
      <point x="824" y="1226"/>
      <point x="824" y="1256" type="qcurve"/>
      <point x="824" y="1286"/>
      <point x="866" y="1328"/>
      <point x="896" y="1328" type="qcurve"/>
      <point x="926" y="1328"/>
      <point x="968" y="1286"/>
      <point x="968" y="1256" type="qcurve"/>
      <point x="968" y="1226"/>
      <point x="926" y="1184"/>
    </contour>
  </outline>
</glyph>
<glyph name="oslash" format="2">
  <advance width="1632"/>
  <unicode hex="00F8"/>
  <outline>
    <contour>
      <point x="312" y="-40" type="line"/>
      <point x="256" y="-4" type="line"/>
      <point x="1320" y="1576" type="line"/>
      <point x="1376" y="1540" type="line"/>
    </contour>
    <contour>
      <point x="816" y="-28" type="qcurve"/>
      <point x="635" y="-28"/>
      <point x="347" y="181"/>
      <point x="180" y="542"/>
      <point x="180" y="768" type="qcurve"/>
      <point x="180" y="995"/>
      <point x="347" y="1355"/>
      <point x="635" y="1564"/>
      <point x="816" y="1564" type="qcurve"/>
      <point x="997" y="1564"/>
      <point x="1284" y="1354"/>
      <point x="1452" y="994"/>
      <point x="1452" y="768" type="qcurve"/>
      <point x="1452" y="542"/>
      <point x="1285" y="181"/>
      <point x="997" y="-28"/>
    </contour>
    <contour>
      <point x="816" y="36" type="qcurve"/>
      <point x="979" y="36"/>
      <point x="1238" y="228"/>
      <point x="1388" y="560"/>
      <point x="1388" y="768" type="qcurve"/>
      <point x="1388" y="976"/>
      <point x="1237" y="1307"/>
      <point x="979" y="1500"/>
      <point x="816" y="1500" type="qcurve"/>
      <point x="654" y="1500"/>
      <point x="395" y="1307"/>
      <point x="244" y="976"/>
      <point x="244" y="768" type="qcurve"/>
      <point x="244" y="560"/>
      <point x="394" y="228"/>
      <point x="653" y="36"/>
    </contour>
  </outline>
</glyph>
<glyph name="thorn" format="2">
  <advance width="1622"/>
  <unicode hex="00FE"/>
  <outline>
    <contour>
      <point x="264" y="2048" type="line"/>
      <point x="328" y="2048" type="line"/>
      <point x="328" y="944" type="line"/>
      <point x="308" y="768" type="line"/>
      <point x="328" y="584" type="line"/>
      <point x="328" y="-576" type="line"/>
      <point x="264" y="-576" type="line"/>
    </contour>
    <contour>
      <point x="298" y="1144" type="line"/>
      <point x="336" y="1144" type="line"/>
      <point x="378" y="1272"/>
      <point x="528" y="1458"/>
      <point x="733" y="1560"/>
      <point x="856" y="1560" type="qcurve"/>
      <point x="1038" y="1560"/>
      <point x="1303" y="1351"/>
      <point x="1448" y="991"/>
      <point x="1448" y="764" type="qcurve"/>
      <point x="1448" y="538"/>
      <point x="1302" y="178"/>
      <point x="1036" y="-32"/>
      <point x="856" y="-32" type="qcurve"/>
      <point x="734" y="-32"/>
      <point x="528" y="69"/>
      <point x="376" y="256"/>
      <point x="336" y="384" type="qcurve"/>
      <point x="298" y="384" type="line"/>
    </contour>
    <contour>
      <point x="1384" y="764" type="qcurve"/>
      <point x="1384" y="972"/>
      <point x="1256" y="1303"/>
      <point x="1019" y="1496"/>
      <point x="856" y="1496" type="qcurve"/>
      <point x="693" y="1496"/>
      <point x="456" y="1303"/>
      <point x="328" y="972"/>
      <point x="328" y="764" type="qcurve"/>
      <point x="328" y="556"/>
      <point x="457" y="225"/>
      <point x="694" y="32"/>
      <point x="856" y="32" type="qcurve"/>
      <point x="1018" y="32"/>
      <point x="1255" y="225"/>
      <point x="1384" y="556"/>
    </contour>
  </outline>
</glyph>
<glyph name="ydieresis" format="2">
  <advance width="1472"/>
  <unicode hex="00FF"/>
  <outline>
    <contour>
      <point x="342" y="-576" type="qcurve"/>
      <point x="303" y="-576"/>
      <point x="215" y="-555"/>
      <point x="170" y="-536" type="qcurve"/>
      <point x="194" y="-480" type="line"/>
      <point x="293" y="-522"/>
      <point x="456" y="-499"/>
      <point x="581" y="-371"/>
      <point x="622" y="-256" type="qcurve"/>
      <point x="704" y="-28" type="line"/>
      <point x="144" y="1536" type="line"/>
      <point x="212" y="1536" type="line"/>
      <point x="732" y="80" type="line"/>
      <point x="740" y="80" type="line"/>
      <point x="1260" y="1536" type="line"/>
      <point x="1328" y="1536" type="line"/>
      <point x="682" y="-280" type="line"/>
      <point x="648" y="-376"/>
      <point x="546" y="-508"/>
      <point x="417" y="-576"/>
    </contour>
    <contour>
      <point x="544" y="1816" type="qcurve"/>
      <point x="518" y="1816"/>
      <point x="480" y="1854"/>
      <point x="480" y="1880" type="qcurve"/>
      <point x="480" y="1906"/>
      <point x="518" y="1944"/>
      <point x="544" y="1944" type="qcurve"/>
      <point x="570" y="1944"/>
      <point x="608" y="1906"/>
      <point x="608" y="1880" type="qcurve"/>
      <point x="608" y="1854"/>
      <point x="570" y="1816"/>
    </contour>
    <contour>
      <point x="928" y="1816" type="qcurve"/>
      <point x="902" y="1816"/>
      <point x="864" y="1854"/>
      <point x="864" y="1880" type="qcurve"/>
      <point x="864" y="1906"/>
      <point x="902" y="1944"/>
      <point x="928" y="1944" type="qcurve"/>
      <point x="954" y="1944"/>
      <point x="992" y="1906"/>
      <point x="992" y="1880" type="qcurve"/>
      <point x="992" y="1854"/>
      <point x="954" y="1816"/>
    </contour>
  </outline>
</glyph>
<glyph name="Hbar" format="2">
  <advance width="2094"/>
  <unicode hex="0126"/>
  <outline>
    <contour>
      <point x="1924" y="1484" type="line"/>
      <point x="1924" y="1420" type="line"/>
      <point x="172" y="1420" type="line"/>
      <point x="172" y="1484" type="line"/>
    </contour>
    <contour>
      <point x="336" y="0" type="line"/>
      <point x="336" y="2048" type="line"/>
      <point x="400" y="2048" type="line"/>
      <point x="400" y="1056" type="line"/>
      <point x="1704" y="1056" type="line"/>
      <point x="1704" y="2048" type="line"/>
      <point x="1768" y="2048" type="line"/>
      <point x="1768" y="0" type="line"/>
      <point x="1704" y="0" type="line"/>
      <point x="1704" y="992" type="line"/>
      <point x="400" y="992" type="line"/>
      <point x="400" y="0" type="line"/>
    </contour>
  </outline>
</glyph>
<glyph name="hbar" format="2">
  <advance width="1600"/>
  <unicode hex="0127"/>
  <outline>
    <contour>
      <point x="336" y="1032" type="qcurve"/>
      <point x="336" y="0" type="line"/>
      <point x="272" y="0" type="line"/>
      <point x="272" y="2048" type="line"/>
      <point x="336" y="2048" type="line"/>
      <point x="336" y="1292" type="line"/>
      <point x="344" y="1292" type="line"/>
      <point x="398" y="1412"/>
      <point x="645" y="1556"/>
      <point x="804" y="1556" type="qcurve"/>
      <point x="958" y="1556"/>
      <point x="1194" y="1422"/>
      <point x="1328" y="1186"/>
      <point x="1328" y="1032" type="qcurve"/>
      <point x="1328" y="0" type="line"/>
      <point x="1264" y="0" type="line"/>
      <point x="1264" y="1032" type="line"/>
      <point x="1264" y="1236"/>
      <point x="1008" y="1492"/>
      <point x="804" y="1492" type="qcurve"/>
      <point x="668" y="1492"/>
      <point x="457" y="1374"/>
      <point x="336" y="1166"/>
    </contour>
    <contour>
      <point x="-76" y="1788" type="line"/>
      <point x="-76" y="1852" type="line"/>
      <point x="684" y="1852" type="line"/>
      <point x="684" y="1788" type="line"/>
    </contour>
  </outline>
</glyph>
<glyph name="dotlessi" format="2">
  <advance width="624"/>
  <unicode hex="0131"/>
  <outline>
    <contour>
      <point x="280" y="0" type="line"/>
      <point x="280" y="1536" type="line"/>
      <point x="344" y="1536" type="line"/>
      <point x="344" y="0" type="line"/>
    </contour>
  </outline>
</glyph>
<glyph name="kgreenlandic" format="2">
  <advance width="1580"/>
  <unicode hex="0138"/>
  <outline>
    <contour>
      <point x="324" y="1536" type="line"/>
      <point x="324" y="0" type="line"/>
      <point x="260" y="0" type="line"/>
      <point x="260" y="1536" type="line"/>
    </contour>
    <contour>
      <point x="1292" y="1536" type="line"/>
      <point x="510" y="742" type="line"/>
      <point x="284" y="744" type="line"/>
      <point x="284" y="808" type="line"/>
      <point x="482" y="808" type="line"/>
      <point x="1204" y="1536" type="line"/>
    </contour>
    <contour>
      <point x="1208" y="0" type="line"/>
      <point x="430" y="758" type="line"/>
      <point x="504" y="774" type="line"/>
      <point x="1300" y="0" type="line"/>
    </contour>
  </outline>
</glyph>
<glyph name="Lslash" format="2">
  <advance width="1519"/>
  <unicode hex="0141"/>
  <outline>
    <contour>
      <point x="696" y="1184" type="line"/>
      <point x="696" y="1118" type="line"/>
      <point x="0" y="862" type="line"/>
      <point x="0" y="932" type="line"/>
    </contour>
    <contour>
      <point x="232" y="0" type="line"/>
      <point x="232" y="2048" type="line"/>
      <point x="296" y="2048" type="line"/>
      <point x="296" y="64" type="line"/>
      <point x="1320" y="64" type="line"/>
      <point x="1320" y="0" type="line"/>
    </contour>
  </outline>
</glyph>
<glyph name="lslash" format="2">
  <advance width="579"/>
  <unicode hex="0142"/>
  <unicode hex="E051"/>
  <outline>
    <contour>
      <point x="540" y="1204" type="line"/>
      <point x="540" y="1134" type="line"/>
      <point x="-4" y="882" type="line"/>
      <point x="-4" y="952" type="line"/>
    </contour>
    <contour>
      <point x="244" y="2048" type="line"/>
      <point x="308" y="2048" type="line"/>
      <point x="308" y="248" type="line"/>
      <point x="308" y="113"/>
      <point x="443" y="43"/>
      <point x="552" y="68" type="qcurve"/>
      <point x="558" y="70"/>
      <point x="564" y="72"/>
      <point x="564" y="72" type="qcurve"/>
      <point x="580" y="12" type="line"/>
      <point x="580" y="12"/>
      <point x="562" y="6"/>
      <point x="556" y="4" type="qcurve"/>
      <point x="414" y="-26"/>
      <point x="244" y="88"/>
      <point x="244" y="248" type="qcurve"/>
    </contour>
  </outline>
</glyph>
<glyph name="Eng" format="2">
  <advance width="2176"/>
  <unicode hex="014A"/>
  <outline>
    <contour>
      <point x="1792" y="0" type="line"/>
      <point x="1856" y="0" type="line"/>
      <point x="1856" y="-232" type="line"/>
      <point x="1856" y="-342"/>
      <point x="1793" y="-494"/>
      <point x="1672" y="-572"/>
      <point x="1584" y="-572" type="qcurve"/>
      <point x="1562" y="-572"/>
      <point x="1520" y="-568"/>
      <point x="1506" y="-564" type="qcurve"/>
      <point x="1506" y="-500" type="line"/>
      <point x="1520" y="-504"/>
      <point x="1556" y="-508"/>
      <point x="1578" y="-508" type="qcurve"/>
      <point x="1686" y="-508"/>
      <point x="1792" y="-371"/>
      <point x="1792" y="-232" type="qcurve"/>
    </contour>
    <contour>
      <point x="1856" y="2048" type="line"/>
      <point x="1856" y="0" type="line"/>
      <point x="1792" y="0" type="line"/>
      <point x="392" y="1928" type="line"/>
      <point x="384" y="1928" type="line"/>
      <point x="384" y="0" type="line"/>
      <point x="320" y="0" type="line"/>
      <point x="320" y="2048" type="line"/>
      <point x="384" y="2048" type="line"/>
      <point x="1784" y="120" type="line"/>
      <point x="1792" y="120" type="line"/>
      <point x="1792" y="2048" type="line"/>
    </contour>
  </outline>
</glyph>
<glyph name="OE" format="2">
  <advance width="2596"/>
  <unicode hex="0152"/>
  <outline>
    <contour>
      <point x="1052" y="0" type="line"/>
      <point x="799" y="0"/>
      <point x="417" y="259"/>
      <point x="204" y="720"/>
      <point x="204" y="1024" type="qcurve"/>
      <point x="204" y="1329"/>
      <point x="418" y="1790"/>
      <point x="800" y="2048"/>
      <point x="1052" y="2048" type="qcurve"/>
      <point x="2364" y="2048" type="line"/>
      <point x="2364" y="1984" type="line"/>
      <point x="1336" y="1984" type="line"/>
      <point x="1336" y="1056" type="line"/>
      <point x="2304" y="1056" type="line"/>
      <point x="2304" y="992" type="line"/>
      <point x="1336" y="992" type="line"/>
      <point x="1336" y="64" type="line"/>
      <point x="2392" y="64" type="line"/>
      <point x="2392" y="0" type="line"/>
    </contour>
    <contour>
      <point x="1272" y="64" type="line"/>
      <point x="1272" y="1984" type="line"/>
      <point x="1052" y="1984" type="line"/>
      <point x="820" y="1985"/>
      <point x="467" y="1745"/>
      <point x="268" y="1312"/>
      <point x="268" y="1024" type="qcurve"/>
      <point x="268" y="740"/>
      <point x="464" y="307"/>
      <point x="817" y="64"/>
      <point x="1052" y="64" type="qcurve"/>
    </contour>
  </outline>
</glyph>
<glyph name="tbar" format="2">
  <advance width="980"/>
  <unicode hex="0167"/>
  <outline>
    <contour>
      <point x="116" y="962" type="line"/>
      <point x="116" y="1026" type="line"/>
      <point x="780" y="1026" type="line"/>
      <point x="780" y="962" type="line"/>
    </contour>
    <contour>
      <point x="752" y="1536" type="line"/>
      <point x="752" y="1472" type="line"/>
      <point x="144" y="1472" type="line"/>
      <point x="144" y="1536" type="line"/>
    </contour>
    <contour>
      <point x="368" y="1904" type="line"/>
      <point x="432" y="1904" type="line"/>
      <point x="432" y="324" type="line"/>
      <point x="432" y="234"/>
      <point x="512" y="105"/>
      <point x="644" y="36"/>
      <point x="720" y="36" type="qcurve"/>
      <point x="749" y="36"/>
      <point x="798" y="46"/>
      <point x="824" y="56" type="qcurve"/>
      <point x="844" y="-4" type="line"/>
      <point x="814" y="-15"/>
      <point x="756" y="-28"/>
      <point x="720" y="-28" type="qcurve"/>
      <point x="626" y="-28"/>
      <point x="465" y="58"/>
      <point x="368" y="216"/>
      <point x="368" y="324" type="qcurve"/>
    </contour>
  </outline>
</glyph>
<glyph name="Ydieresis" format="2">
  <advance width="1728"/>
  <unicode hex="0178"/>
  <outline>
    <contour>
      <point x="96" y="2048" type="line"/>
      <point x="176" y="2048" type="line"/>
      <point x="860" y="1044" type="line"/>
      <point x="868" y="1044" type="line"/>
      <point x="1552" y="2048" type="line"/>
      <point x="1632" y="2048" type="line"/>
      <point x="896" y="972" type="line"/>
      <point x="896" y="0" type="line"/>
      <point x="832" y="0" type="line"/>
      <point x="832" y="972" type="line"/>
    </contour>
    <contour>
      <point x="672" y="2328" type="qcurve"/>
      <point x="646" y="2328"/>
      <point x="608" y="2366"/>
      <point x="608" y="2392" type="qcurve"/>
      <point x="608" y="2418"/>
      <point x="646" y="2456"/>
      <point x="672" y="2456" type="qcurve"/>
      <point x="698" y="2456"/>
      <point x="736" y="2418"/>
      <point x="736" y="2392" type="qcurve"/>
      <point x="736" y="2366"/>
      <point x="698" y="2328"/>
    </contour>
    <contour>
      <point x="1056" y="2328" type="qcurve"/>
      <point x="1030" y="2328"/>
      <point x="992" y="2366"/>
      <point x="992" y="2392" type="qcurve"/>
      <point x="992" y="2418"/>
      <point x="1030" y="2456"/>
      <point x="1056" y="2456" type="qcurve"/>
      <point x="1082" y="2456"/>
      <point x="1120" y="2418"/>
      <point x="1120" y="2392" type="qcurve"/>
      <point x="1120" y="2366"/>
      <point x="1082" y="2328"/>
    </contour>
  </outline>
</glyph>
<glyph name="zcaron" format="2">
  <advance width="1432"/>
  <unicode hex="017E"/>
  <outline>
    <contour>
      <point x="216" y="0" type="line"/>
      <point x="216" y="64" type="line"/>
      <point x="1136" y="1464" type="line"/>
      <point x="1136" y="1472" type="line"/>
      <point x="276" y="1472" type="line"/>
      <point x="276" y="1536" type="line"/>
      <point x="1216" y="1536" type="line"/>
      <point x="1216" y="1472" type="line"/>
      <point x="296" y="72" type="line"/>
      <point x="296" y="64" type="line"/>
      <point x="1256" y="64" type="line"/>
      <point x="1256" y="0" type="line"/>
    </contour>
    <contour>
      <point x="416" y="2132" type="line"/>
      <point x="716" y="1824" type="line"/>
      <point x="1016" y="2132" type="line"/>
      <point x="1092" y="2132" type="line"/>
      <point x="1092" y="2124" type="line"/>
      <point x="724" y="1748" type="line"/>
      <point x="708" y="1748" type="line"/>
      <point x="340" y="2124" type="line"/>
      <point x="340" y="2132" type="line"/>
    </contour>
  </outline>
</glyph>
<glyph name="longs" format="2">
  <advance width="616"/>
  <unicode hex="017F"/>
  <outline>
    <contour>
      <point x="136" y="0" type="line"/>
      <point x="72" y="0" type="line"/>
      <point x="72" y="1788" type="line"/>
      <point x="72" y="1950"/>
      <point x="283" y="2140"/>
      <point x="428" y="2140" type="qcurve"/>
      <point x="458" y="2140"/>
      <point x="521" y="2132"/>
      <point x="546" y="2124" type="qcurve"/>
      <point x="534" y="2062" type="line"/>
      <point x="503" y="2070"/>
      <point x="456" y="2076"/>
      <point x="436" y="2076" type="qcurve"/>
      <point x="310" y="2076"/>
      <point x="136" y="1925"/>
      <point x="136" y="1788" type="qcurve"/>
    </contour>
  </outline>
</glyph>
<glyph name="Bhook" format="2">
  <advance width="2080"/>
  <unicode hex="0181"/>
  <outline>
    <contour>
      <point x="624" y="1984" type="line"/>
      <point x="448" y="1984" type="line"/>
      <point x="372" y="1984"/>
      <point x="278" y="1932"/>
      <point x="236" y="1818"/>
      <point x="236" y="1724" type="qcurve"/>
      <point x="236" y="1688" type="line"/>
      <point x="172" y="1688" type="line"/>
      <point x="172" y="1760" type="line"/>
      <point x="173" y="1900"/>
      <point x="312" y="2048"/>
      <point x="444" y="2048" type="qcurve"/>
      <point x="624" y="2048" type="line"/>
    </contour>
    <contour>
      <point x="596" y="0" type="line"/>
      <point x="596" y="2048" type="line"/>
      <point x="1236" y="2048" type="line"/>
      <point x="1408" y="2048"/>
      <point x="1653" y="1923"/>
      <point x="1784" y="1690"/>
      <point x="1784" y="1528" type="qcurve"/>
      <point x="1784" y="1408"/>
      <point x="1711" y="1206"/>
      <point x="1571" y="1069"/>
      <point x="1472" y="1044" type="qcurve"/>
      <point x="1472" y="1036" type="line"/>
      <point x="1583" y="1027"/>
      <point x="1761" y="891"/>
      <point x="1864" y="667"/>
      <point x="1864" y="524" type="qcurve"/>
      <point x="1864" y="366"/>
      <point x="1731" y="130"/>
      <point x="1480" y="0"/>
      <point x="1304" y="0" type="qcurve"/>
    </contour>
    <contour>
      <point x="660" y="64" type="line"/>
      <point x="1304" y="64" type="line"/>
      <point x="1529" y="64"/>
      <point x="1800" y="317"/>
      <point x="1800" y="524" type="qcurve"/>
      <point x="1800" y="666"/>
      <point x="1672" y="884"/>
      <point x="1449" y="1008"/>
      <point x="1304" y="1008" type="qcurve"/>
      <point x="660" y="1008" type="line"/>
    </contour>
    <contour>
      <point x="660" y="1072" type="line"/>
      <point x="1304" y="1072" type="line"/>
      <point x="1444" y="1072"/>
      <point x="1628" y="1198"/>
      <point x="1720" y="1406"/>
      <point x="1720" y="1528" type="qcurve"/>
      <point x="1720" y="1746"/>
      <point x="1460" y="1984"/>
      <point x="1236" y="1984" type="qcurve"/>
      <point x="660" y="1984" type="line"/>
    </contour>
  </outline>
</glyph>
<glyph name="Tonesix" format="2">
  <advance width="1774"/>
  <unicode hex="0184"/>
  <outline>
    <contour>
      <point x="552" y="2048" type="line"/>
      <point x="552" y="1984" type="line"/>
      <point x="22" y="1984" type="line"/>
      <point x="22" y="2048" type="line"/>
    </contour>
    <contour>
      <point x="524" y="1068" type="line"/>
      <point x="1256" y="1068" type="line"/>
      <point x="1430" y="1068"/>
      <point x="1687" y="942"/>
      <point x="1828" y="712"/>
      <point x="1828" y="556" type="qcurve"/>
      <point x="1828" y="385"/>
      <point x="1689" y="135"/>
      <point x="1433" y="0"/>
      <point x="1256" y="0" type="qcurve"/>
      <point x="488" y="0" type="line"/>
      <point x="488" y="2048" type="line"/>
      <point x="552" y="2048" type="line"/>
      <point x="552" y="64" type="line"/>
      <point x="1256" y="64" type="line"/>
      <point x="1416" y="64"/>
      <point x="1643" y="182"/>
      <point x="1764" y="404"/>
      <point x="1764" y="560" type="qcurve"/>
      <point x="1765" y="761"/>
      <point x="1487" y="1004"/>
      <point x="1256" y="1004" type="qcurve"/>
      <point x="524" y="1004" type="line"/>
    </contour>
  </outline>
</glyph>
<glyph name="tonesix" format="2">
  <advance width="1524"/>
  <unicode hex="0185"/>
  <outline>
    <contour>
      <point x="244" y="2112" type="line"/>
      <point x="304" y="2112" type="line"/>
      <point x="304" y="1440" type="line"/>
      <point x="244" y="1440" type="line"/>
      <point x="100" y="1768" type="line"/>
      <point x="100" y="1788" type="line"/>
    </contour>
    <contour>
      <point x="296" y="1144" type="line"/>
      <point x="342" y="1144" type="line"/>
      <point x="382" y="1272"/>
      <point x="534" y="1459"/>
      <point x="740" y="1560"/>
      <point x="862" y="1560" type="qcurve"/>
      <point x="1042" y="1560"/>
      <point x="1308" y="1350"/>
      <point x="1454" y="990"/>
      <point x="1454" y="764" type="qcurve"/>
      <point x="1454" y="537"/>
      <point x="1309" y="177"/>
      <point x="1044" y="-32"/>
      <point x="862" y="-32" type="qcurve"/>
      <point x="739" y="-32"/>
      <point x="534" y="70"/>
      <point x="384" y="257"/>
      <point x="342" y="384" type="qcurve"/>
      <point x="296" y="384" type="line"/>
    </contour>
    <contour>
      <point x="1390" y="764" type="qcurve"/>
      <point x="1390" y="972"/>
      <point x="1261" y="1303"/>
      <point x="1024" y="1496"/>
      <point x="862" y="1496" type="qcurve"/>
      <point x="700" y="1496"/>
      <point x="463" y="1303"/>
      <point x="334" y="972"/>
      <point x="334" y="764" type="qcurve"/>
      <point x="334" y="556"/>
      <point x="462" y="225"/>
      <point x="699" y="32"/>
      <point x="862" y="32" type="qcurve"/>
      <point x="1025" y="32"/>
      <point x="1262" y="225"/>
      <point x="1390" y="556"/>
    </contour>
    <contour>
      <point x="270" y="2048" type="line"/>
      <point x="334" y="2048" type="line"/>
      <point x="334" y="1144" type="line"/>
      <point x="316" y="768" type="line"/>
      <point x="334" y="384" type="line"/>
      <point x="334" y="0" type="line"/>
      <point x="270" y="0" type="line"/>
    </contour>
  </outline>
</glyph>
<glyph name="Oopen" format="2">
  <advance width="2036"/>
  <unicode hex="0186"/>
  <outline>
    <contour>
      <point x="200" y="640" type="qcurve"/>
      <point x="268" y="640" type="line"/>
      <point x="287" y="538"/>
      <point x="397" y="326"/>
      <point x="579" y="146"/>
      <point x="827" y="36"/>
      <point x="984" y="36" type="qcurve"/>
      <point x="1194" y="36"/>
      <point x="1551" y="265"/>
      <point x="1768" y="706"/>
      <point x="1768" y="1024" type="qcurve"/>
      <point x="1768" y="1346"/>
      <point x="1551" y="1786"/>
      <point x="1194" y="2012"/>
      <point x="984" y="2012" type="qcurve"/>
      <point x="827" y="2012"/>
      <point x="579" y="1903"/>
      <point x="397" y="1724"/>
      <point x="287" y="1512"/>
      <point x="268" y="1408" type="qcurve"/>
      <point x="200" y="1408" type="line"/>
      <point x="219" y="1516"/>
      <point x="333" y="1749"/>
      <point x="527" y="1951"/>
      <point x="803" y="2076"/>
      <point x="984" y="2076" type="qcurve"/>
      <point x="1236" y="2076"/>
      <point x="1618" y="1812"/>
      <point x="1832" y="1338"/>
      <point x="1832" y="1024" type="qcurve"/>
      <point x="1832" y="710"/>
      <point x="1618" y="236"/>
      <point x="1236" y="-28"/>
      <point x="984" y="-28" type="qcurve"/>
      <point x="803" y="-28"/>
      <point x="527" y="96"/>
      <point x="333" y="297"/>
      <point x="219" y="531"/>
    </contour>
  </outline>
</glyph>
<glyph name="Chook" format="2">
  <advance width="1985"/>
  <unicode hex="0187"/>
  <outline>
    <contour>
      <point x="1836" y="1408" type="line"/>
      <point x="1772" y="1408" type="line"/>
      <point x="1772" y="1748" type="line"/>
      <point x="1772" y="1850"/>
      <point x="1823" y="1981"/>
      <point x="1929" y="2044"/>
      <point x="2010" y="2044" type="qcurve"/>
      <point x="2025" y="2044"/>
      <point x="2051" y="2042"/>
      <point x="2060" y="2040" type="qcurve"/>
      <point x="2060" y="1976" type="line"/>
      <point x="2050" y="1978"/>
      <point x="2024" y="1980"/>
      <point x="2010" y="1980" type="qcurve"/>
      <point x="1947" y="1980"/>
      <point x="1871" y="1934"/>
      <point x="1836" y="1832"/>
      <point x="1836" y="1748" type="qcurve"/>
    </contour>
    <contour>
      <point x="1836" y="1408" type="qcurve"/>
      <point x="1768" y="1408" type="line"/>
      <point x="1749" y="1510"/>
      <point x="1639" y="1722"/>
      <point x="1457" y="1902"/>
      <point x="1209" y="2012"/>
      <point x="1052" y="2012" type="qcurve"/>
      <point x="842" y="2012"/>
      <point x="485" y="1783"/>
      <point x="268" y="1342"/>
      <point x="268" y="1024" type="qcurve"/>
      <point x="268" y="702"/>
      <point x="485" y="262"/>
      <point x="842" y="36"/>
      <point x="1052" y="36" type="qcurve"/>
      <point x="1209" y="36"/>
      <point x="1457" y="145"/>
      <point x="1639" y="324"/>
      <point x="1749" y="537"/>
      <point x="1768" y="640" type="qcurve"/>
      <point x="1836" y="640" type="line"/>
      <point x="1817" y="532"/>
      <point x="1703" y="299"/>
      <point x="1509" y="97"/>
      <point x="1233" y="-28"/>
      <point x="1052" y="-28" type="qcurve"/>
      <point x="800" y="-28"/>
      <point x="418" y="236"/>
      <point x="204" y="710"/>
      <point x="204" y="1024" type="qcurve"/>
      <point x="204" y="1338"/>
      <point x="418" y="1812"/>
      <point x="800" y="2076"/>
      <point x="1052" y="2076" type="qcurve"/>
      <point x="1233" y="2076"/>
      <point x="1509" y="1952"/>
      <point x="1703" y="1751"/>
      <point x="1817" y="1518"/>
    </contour>
  </outline>
</glyph>
<glyph name="Dafrican" format="2">
  <advance width="2012"/>
  <unicode hex="0189"/>
  <outline>
    <contour>
      <point x="856" y="0" type="qcurve"/>
      <point x="352" y="0" type="line"/>
      <point x="352" y="64" type="line"/>
      <point x="856" y="64" type="line"/>
      <point x="1140" y="64"/>
      <point x="1538" y="295"/>
      <point x="1745" y="729"/>
      <point x="1744" y="1032" type="qcurve"/>
      <point x="1743" y="1331"/>
      <point x="1546" y="1757"/>
      <point x="1174" y="1984"/>
      <point x="908" y="1984" type="qcurve"/>
      <point x="352" y="1984" type="line"/>
      <point x="352" y="2048" type="line"/>
      <point x="908" y="2048" type="line"/>
      <point x="1191" y="2048"/>
      <point x="1594" y="1805"/>
      <point x="1809" y="1351"/>
      <point x="1808" y="1032" type="qcurve"/>
      <point x="1807" y="705"/>
      <point x="1582" y="244"/>
      <point x="1157" y="0"/>
    </contour>
    <contour>
      <point x="384" y="2048" type="line"/>
      <point x="384" y="0" type="line"/>
      <point x="320" y="0" type="line"/>
      <point x="320" y="2048" type="line"/>
    </contour>
    <contour>
      <point x="-28" y="1008" type="line"/>
      <point x="-28" y="1072" type="line"/>
      <point x="732" y="1072" type="line"/>
      <point x="732" y="1008" type="line"/>
    </contour>
  </outline>
</glyph>
<glyph name="Dhook" format="2">
  <advance width="2312"/>
  <unicode hex="018A"/>
  <outline>
    <contour>
      <point x="172" y="1688" type="line"/>
      <point x="172" y="1760" type="line"/>
      <point x="173" y="1900"/>
      <point x="312" y="2048"/>
      <point x="444" y="2048" type="qcurve"/>
      <point x="644" y="2048" type="line"/>
      <point x="644" y="1984" type="line"/>
      <point x="448" y="1984" type="line"/>
      <point x="372" y="1984"/>
      <point x="278" y="1932"/>
      <point x="236" y="1818"/>
      <point x="236" y="1724" type="qcurve"/>
      <point x="236" y="1688" type="line"/>
    </contour>
    <contour>
      <point x="1156" y="0" type="qcurve"/>
      <point x="620" y="0" type="line"/>
      <point x="620" y="2048" type="line"/>
      <point x="1208" y="2048" type="line"/>
      <point x="1491" y="2048"/>
      <point x="1894" y="1805"/>
      <point x="2109" y="1351"/>
      <point x="2108" y="1032" type="qcurve"/>
      <point x="2107" y="705"/>
      <point x="1882" y="244"/>
      <point x="1457" y="0"/>
    </contour>
    <contour>
      <point x="684" y="64" type="line"/>
      <point x="1156" y="64" type="line"/>
      <point x="1440" y="64"/>
      <point x="1838" y="295"/>
      <point x="2045" y="729"/>
      <point x="2044" y="1032" type="qcurve"/>
      <point x="2043" y="1331"/>
      <point x="1846" y="1757"/>
      <point x="1474" y="1984"/>
      <point x="1208" y="1984" type="qcurve"/>
      <point x="684" y="1984" type="line"/>
    </contour>
  </outline>
</glyph>
<glyph name="Dtopbar" format="2">
  <advance width="1663"/>
  <unicode hex="018B"/>
  <outline>
    <contour>
      <point x="1502" y="0" type="line"/>
      <point x="734" y="0" type="line"/>
      <point x="558" y="0"/>
      <point x="301" y="135"/>
      <point x="162" y="385"/>
      <point x="162" y="556" type="qcurve"/>
      <point x="162" y="712"/>
      <point x="303" y="942"/>
      <point x="561" y="1068"/>
      <point x="734" y="1068" type="qcurve"/>
      <point x="1438" y="1068" type="line"/>
      <point x="1438" y="1984" type="line"/>
      <point x="390" y="1984" type="line"/>
      <point x="390" y="2048" type="line"/>
      <point x="1502" y="2048" type="line"/>
    </contour>
    <contour>
      <point x="1438" y="64" type="line"/>
      <point x="1438" y="1004" type="line"/>
      <point x="734" y="1004" type="line"/>
      <point x="503" y="1004"/>
      <point x="225" y="761"/>
      <point x="226" y="560" type="qcurve"/>
      <point x="227" y="404"/>
      <point x="347" y="182"/>
      <point x="574" y="64"/>
      <point x="734" y="64" type="qcurve"/>
    </contour>
  </outline>
</glyph>
<glyph name="dtopbar" format="2">
  <advance width="1684"/>
  <unicode hex="018C"/>
  <outline>
    <contour>
      <point x="340" y="2048" type="line"/>
      <point x="1332" y="2048" type="line"/>
      <point x="1332" y="1984" type="line"/>
      <point x="340" y="1984" type="line"/>
    </contour>
    <contour>
      <point x="1364" y="0" type="line"/>
      <point x="1300" y="0" type="line"/>
      <point x="1300" y="384" type="line"/>
      <point x="1292" y="384" type="line"/>
      <point x="1251" y="257"/>
      <point x="1100" y="70"/>
      <point x="896" y="-32"/>
      <point x="772" y="-32" type="qcurve"/>
      <point x="591" y="-32"/>
      <point x="325" y="177"/>
      <point x="180" y="537"/>
      <point x="180" y="764" type="qcurve"/>
      <point x="180" y="990"/>
      <point x="326" y="1350"/>
      <point x="592" y="1560"/>
      <point x="772" y="1560" type="qcurve"/>
      <point x="894" y="1560"/>
      <point x="1100" y="1459"/>
      <point x="1252" y="1272"/>
      <point x="1292" y="1144" type="qcurve"/>
      <point x="1300" y="1144" type="line"/>
      <point x="1300" y="2048" type="line"/>
      <point x="1364" y="2048" type="line"/>
    </contour>
    <contour>
      <point x="1300" y="764" type="qcurve"/>
      <point x="1300" y="972"/>
      <point x="1171" y="1303"/>
      <point x="934" y="1496"/>
      <point x="772" y="1496" type="qcurve"/>
      <point x="610" y="1496"/>
      <point x="373" y="1303"/>
      <point x="244" y="972"/>
      <point x="244" y="764" type="qcurve"/>
      <point x="244" y="556"/>
      <point x="372" y="225"/>
      <point x="609" y="32"/>
      <point x="772" y="32" type="qcurve"/>
      <point x="935" y="32"/>
      <point x="1172" y="225"/>
      <point x="1300" y="556"/>
    </contour>
  </outline>
</glyph>
<glyph name="deltaturned" format="2">
  <advance width="1312"/>
  <unicode hex="018D"/>
  <outline>
    <contour>
      <point x="1060" y="-516" type="line"/>
      <point x="230" y="-516" type="line"/>
      <point x="230" y="-452" type="line"/>
      <point x="962" y="-454" type="line"/>
      <point x="871" y="-356"/>
      <point x="686" y="-160"/>
      <point x="494" y="40"/>
      <point x="392" y="144" type="qcurve"/>
      <point x="277" y="263"/>
      <point x="130" y="482"/>
      <point x="60" y="700"/>
      <point x="60" y="814" type="qcurve"/>
      <point x="60" y="824" type="line"/>
      <point x="60" y="1054"/>
      <point x="210" y="1383"/>
      <point x="478" y="1560"/>
      <point x="656" y="1560" type="qcurve"/>
      <point x="835" y="1560"/>
      <point x="1103" y="1382"/>
      <point x="1252" y="1053"/>
      <point x="1252" y="824" type="qcurve"/>
      <point x="1252" y="812" type="line"/>
      <point x="1252" y="612"/>
      <point x="1099" y="301"/>
      <point x="830" y="124"/>
      <point x="656" y="124" type="qcurve"/>
      <point x="620" y="124"/>
      <point x="534" y="133"/>
      <point x="484" y="142" type="qcurve"/>
      <point x="547" y="78"/>
      <point x="687" y="-68"/>
      <point x="834" y="-225"/>
      <point x="985" y="-389"/>
      <point x="1060" y="-472" type="qcurve"/>
    </contour>
    <contour>
      <point x="1188" y="812" type="qcurve"/>
      <point x="1188" y="824" type="line"/>
      <point x="1188" y="1035"/>
      <point x="1057" y="1336"/>
      <point x="818" y="1496"/>
      <point x="656" y="1496" type="qcurve"/>
      <point x="496" y="1496"/>
      <point x="257" y="1335"/>
      <point x="124" y="1034"/>
      <point x="124" y="824" type="qcurve"/>
      <point x="124" y="814" type="line"/>
      <point x="124" y="663"/>
      <point x="256" y="388"/>
      <point x="404" y="224" type="qcurve"/>
      <point x="478" y="205"/>
      <point x="594" y="188"/>
      <point x="646" y="188" type="qcurve"/>
      <point x="806" y="188"/>
      <point x="1050" y="347"/>
      <point x="1188" y="628"/>
    </contour>
  </outline>
</glyph>
<glyph name="Ereversed" format="2">
  <advance width="1644"/>
  <unicode hex="018E"/>
  <outline>
    <contour>
      <point x="1324" y="2048" type="line"/>
      <point x="1324" y="0" type="line"/>
      <point x="232" y="0" type="line"/>
      <point x="232" y="64" type="line"/>
      <point x="1260" y="64" type="line"/>
      <point x="1260" y="992" type="line"/>
      <point x="292" y="992" type="line"/>
      <point x="292" y="1056" type="line"/>
      <point x="1260" y="1056" type="line"/>
      <point x="1260" y="1984" type="line"/>
      <point x="204" y="1984" type="line"/>
      <point x="204" y="2048" type="line"/>
    </contour>
  </outline>
</glyph>
<glyph name="Schwa" format="2">
  <advance width="1912"/>
  <unicode hex="018F"/>
  <outline>
    <contour>
      <point x="956" y="-28" type="qcurve"/>
      <point x="719" y="-28"/>
      <point x="369" y="216"/>
      <point x="178" y="661"/>
      <point x="178" y="964" type="qcurve"/>
      <point x="178" y="996" type="line"/>
      <point x="1698" y="996" type="line"/>
      <point x="1696" y="932" type="line"/>
      <point x="244" y="932" type="line"/>
      <point x="244" y="926" type="line"/>
      <point x="244" y="659"/>
      <point x="422" y="258"/>
      <point x="742" y="36"/>
      <point x="956" y="36" type="qcurve"/>
      <point x="1177" y="36"/>
      <point x="1497" y="259"/>
      <point x="1670" y="672"/>
      <point x="1670" y="956" type="qcurve"/>
      <point x="1670" y="1024" type="line"/>
      <point x="1670" y="1336"/>
      <point x="1490" y="1778"/>
      <point x="1151" y="2012"/>
      <point x="912" y="2012" type="qcurve"/>
      <point x="825" y="2012"/>
      <point x="662" y="1983"/>
      <point x="497" y="1922"/>
      <point x="406" y="1872" type="qcurve"/>
      <point x="380" y="1930" type="line"/>
      <point x="468" y="1980"/>
      <point x="640" y="2045"/>
      <point x="817" y="2076"/>
      <point x="912" y="2076" type="qcurve"/>
      <point x="1169" y="2076"/>
      <point x="1537" y="1824"/>
      <point x="1734" y="1353"/>
      <point x="1734" y="1024" type="qcurve"/>
      <point x="1734" y="954" type="line"/>
      <point x="1734" y="654"/>
      <point x="1543" y="213"/>
      <point x="1194" y="-28"/>
    </contour>
  </outline>
</glyph>
<glyph name="Eopen" format="2">
  <advance width="1632"/>
  <unicode hex="0190"/>
  <outline>
    <contour>
      <point x="1008" y="1054" type="line"/>
      <point x="668" y="1054" type="line"/>
      <point x="512" y="1089"/>
      <point x="308" y="1236"/>
      <point x="208" y="1440"/>
      <point x="208" y="1558" type="qcurve"/>
      <point x="208" y="1708"/>
      <point x="357" y="1942"/>
      <point x="627" y="2076"/>
      <point x="808" y="2076" type="qcurve"/>
      <point x="989" y="2076"/>
      <point x="1246" y="1938"/>
      <point x="1396" y="1694"/>
      <point x="1416" y="1536" type="qcurve"/>
      <point x="1352" y="1536" type="line"/>
      <point x="1322" y="1746"/>
      <point x="1053" y="2012"/>
      <point x="808" y="2012" type="qcurve"/>
      <point x="562" y="2012"/>
      <point x="272" y="1756"/>
      <point x="272" y="1558" type="qcurve"/>
      <point x="272" y="1418"/>
      <point x="422" y="1206"/>
      <point x="693" y="1088"/>
      <point x="876" y="1088" type="qcurve"/>
      <point x="1008" y="1088" type="line"/>
    </contour>
    <contour>
      <point x="654" y="1066" type="qcurve"/>
      <point x="1008" y="1066" type="line"/>
      <point x="1008" y="1024" type="line"/>
      <point x="876" y="1024" type="line"/>
      <point x="681" y="1024"/>
      <point x="392" y="895"/>
      <point x="232" y="669"/>
      <point x="232" y="522" type="qcurve"/>
      <point x="232" y="386"/>
      <point x="372" y="165"/>
      <point x="632" y="36"/>
      <point x="812" y="36" type="qcurve"/>
      <point x="1075" y="36"/>
      <point x="1390" y="305"/>
      <point x="1420" y="512" type="qcurve"/>
      <point x="1484" y="512" type="line"/>
      <point x="1464" y="358"/>
      <point x="1292" y="113"/>
      <point x="1004" y="-28"/>
      <point x="810" y="-28" type="qcurve"/>
      <point x="614" y="-28"/>
      <point x="326" y="116"/>
      <point x="168" y="365"/>
      <point x="168" y="522" type="qcurve"/>
      <point x="168" y="717"/>
      <point x="419" y="1008"/>
    </contour>
  </outline>
</glyph>
<glyph name="Fhook" format="2">
  <advance width="1584"/>
  <unicode hex="0191"/>
  <outline>
    <contour>
      <point x="256" y="0" type="line"/>
      <point x="320" y="0" type="line"/>
      <point x="320" y="-232" type="line"/>
      <point x="320" y="-314"/>
      <point x="285" y="-441"/>
      <point x="215" y="-528"/>
      <point x="114" y="-572"/>
      <point x="48" y="-572" type="qcurve"/>
      <point x="26" y="-572"/>
      <point x="-16" y="-568"/>
      <point x="-30" y="-564" type="qcurve"/>
      <point x="-30" y="-500" type="line"/>
      <point x="-16" y="-504"/>
      <point x="20" y="-508"/>
      <point x="42" y="-508" type="qcurve"/>
      <point x="150" y="-508"/>
      <point x="256" y="-371"/>
      <point x="256" y="-232" type="qcurve"/>
    </contour>
    <contour>
      <point x="256" y="0" type="line"/>
      <point x="256" y="2048" type="line"/>
      <point x="1356" y="2048" type="line"/>
      <point x="1356" y="1984" type="line"/>
      <point x="320" y="1984" type="line"/>
      <point x="320" y="1056" type="line"/>
      <point x="1260" y="1056" type="line"/>
      <point x="1260" y="992" type="line"/>
      <point x="320" y="992" type="line"/>
      <point x="320" y="0" type="line"/>
    </contour>
  </outline>
</glyph>
<glyph name="florin" format="2">
  <advance width="836"/>
  <unicode hex="0192"/>
  <outline>
    <contour>
      <point x="722" y="1476" type="line"/>
      <point x="722" y="1412" type="line"/>
      <point x="450" y="1412" type="line"/>
      <point x="450" y="-224" type="line"/>
      <point x="450" y="-386"/>
      <point x="239" y="-576"/>
      <point x="98" y="-576" type="qcurve"/>
      <point x="62" y="-576"/>
      <point x="4" y="-564"/>
      <point x="-26" y="-554" type="qcurve"/>
      <point x="-6" y="-494" type="line"/>
      <point x="20" y="-503"/>
      <point x="68" y="-512"/>
      <point x="98" y="-512" type="qcurve"/>
      <point x="212" y="-512"/>
      <point x="386" y="-359"/>
      <point x="386" y="-224" type="qcurve"/>
      <point x="386" y="1412" type="line"/>
      <point x="114" y="1412" type="line"/>
      <point x="114" y="1476" type="line"/>
      <point x="386" y="1476" type="line"/>
      <point x="386" y="1788" type="line"/>
      <point x="386" y="1950"/>
      <point x="597" y="2140"/>
      <point x="738" y="2140" type="qcurve"/>
      <point x="774" y="2140"/>
      <point x="832" y="2129"/>
      <point x="860" y="2118" type="qcurve"/>
      <point x="840" y="2058" type="line"/>
      <point x="816" y="2067"/>
      <point x="768" y="2076"/>
      <point x="738" y="2076" type="qcurve"/>
      <point x="624" y="2076"/>
      <point x="450" y="1923"/>
      <point x="450" y="1788" type="qcurve"/>
      <point x="450" y="1476" type="line"/>
    </contour>
  </outline>
</glyph>
<glyph name="Ghook" format="2">
  <advance width="2004"/>
  <unicode hex="0193"/>
  <unicode hex="E004"/>
  <outline>
    <contour>
      <point x="1836" y="1408" type="line"/>
      <point x="1772" y="1408" type="line"/>
      <point x="1772" y="1664" type="line"/>
      <point x="1772" y="1730"/>
      <point x="1801" y="1831"/>
      <point x="1857" y="1901"/>
      <point x="1936" y="1936"/>
      <point x="1986" y="1936" type="qcurve"/>
      <point x="2000" y="1936"/>
      <point x="2034" y="1933"/>
      <point x="2052" y="1930" type="qcurve"/>
      <point x="2052" y="1866" type="line"/>
      <point x="2033" y="1869"/>
      <point x="1998" y="1872"/>
      <point x="1986" y="1872" type="qcurve"/>
      <point x="1941" y="1872"/>
      <point x="1873" y="1831"/>
      <point x="1836" y="1739"/>
      <point x="1836" y="1660" type="qcurve"/>
    </contour>
    <contour>
      <point x="1060" y="-28" type="qcurve"/>
      <point x="800" y="-28"/>
      <point x="415" y="237"/>
      <point x="204" y="711"/>
      <point x="204" y="1024" type="qcurve"/>
      <point x="204" y="1260"/>
      <point x="325" y="1647"/>
      <point x="550" y="1926"/>
      <point x="862" y="2076"/>
      <point x="1052" y="2076" type="qcurve"/>
      <point x="1232" y="2076"/>
      <point x="1509" y="1952"/>
      <point x="1703" y="1751"/>
      <point x="1818" y="1518"/>
      <point x="1836" y="1408" type="qcurve"/>
      <point x="1772" y="1408" type="line"/>
      <point x="1754" y="1513"/>
      <point x="1643" y="1726"/>
      <point x="1461" y="1904"/>
      <point x="1210" y="2012"/>
      <point x="1052" y="2012" type="qcurve"/>
      <point x="817" y="2012"/>
      <point x="464" y="1765"/>
      <point x="268" y="1320"/>
      <point x="268" y="1024" type="qcurve"/>
      <point x="268" y="732"/>
      <point x="462" y="287"/>
      <point x="818" y="36"/>
      <point x="1060" y="36" type="qcurve"/>
      <point x="1274" y="36"/>
      <point x="1606" y="239"/>
      <point x="1792" y="620"/>
      <point x="1788" y="888" type="qcurve"/>
      <point x="1816" y="864" type="line"/>
      <point x="1080" y="864" type="line"/>
      <point x="1080" y="928" type="line"/>
      <point x="1852" y="928" type="line"/>
      <point x="1852" y="0" type="line"/>
      <point x="1788" y="0" type="line"/>
      <point x="1788" y="474" type="line"/>
      <point x="1780" y="474" type="line"/>
      <point x="1689" y="228"/>
      <point x="1310" y="-28"/>
    </contour>
  </outline>
</glyph>
<glyph name="Gamma" format="2">
  <advance width="1454"/>
  <unicode hex="0194"/>
  <outline>
    <contour>
      <point x="-60" y="2048" type="line"/>
      <point x="10" y="2048" type="line"/>
      <point x="794" y="98" type="line"/>
      <point x="861" y="-69"/>
      <point x="933" y="-263"/>
      <point x="960" y="-366"/>
      <point x="960" y="-396" type="qcurve"/>
      <point x="960" y="-455"/>
      <point x="903" y="-551"/>
      <point x="799" y="-608"/>
      <point x="728" y="-608" type="qcurve"/>
      <point x="620" y="-608"/>
      <point x="494" y="-484"/>
      <point x="494" y="-396" type="qcurve"/>
      <point x="494" y="-378"/>
      <point x="502" y="-333"/>
      <point x="522" y="-268"/>
      <point x="557" y="-171"/>
      <point x="612" y="-30"/>
      <point x="652" y="68" type="qcurve"/>
      <point x="1450" y="2048" type="line"/>
      <point x="1520" y="2048" type="line"/>
      <point x="746" y="126" type="line"/>
      <point x="675" y="-50"/>
      <point x="593" y="-262"/>
      <point x="558" y="-376"/>
      <point x="558" y="-404" type="qcurve"/>
      <point x="558" y="-462"/>
      <point x="652" y="-544"/>
      <point x="728" y="-544" type="qcurve"/>
      <point x="802" y="-544"/>
      <point x="895" y="-462"/>
      <point x="896" y="-404" type="qcurve"/>
      <point x="897" y="-376"/>
      <point x="864" y="-261"/>
      <point x="781" y="-38"/>
      <point x="704" y="152" type="qcurve"/>
    </contour>
  </outline>
</glyph>
<glyph name="hv" format="2">
  <advance width="2584"/>
  <unicode hex="0195"/>
  <outline>
    <contour>
      <point x="272" y="0" type="line"/>
      <point x="272" y="2048" type="line"/>
      <point x="336" y="2048" type="line"/>
      <point x="336" y="1292" type="line"/>
      <point x="344" y="1292" type="line"/>
      <point x="399" y="1414"/>
      <point x="647" y="1556"/>
      <point x="804" y="1556" type="qcurve"/>
      <point x="958" y="1556"/>
      <point x="1194" y="1422"/>
      <point x="1328" y="1186"/>
      <point x="1328" y="1032" type="qcurve"/>
      <point x="1328" y="680" type="line"/>
      <point x="1264" y="680" type="line"/>
      <point x="1264" y="1032" type="line"/>
      <point x="1264" y="1236"/>
      <point x="1008" y="1492"/>
      <point x="804" y="1492" type="qcurve"/>
      <point x="668" y="1492"/>
      <point x="457" y="1374"/>
      <point x="336" y="1166"/>
      <point x="336" y="1032" type="qcurve"/>
      <point x="336" y="0" type="line"/>
    </contour>
    <contour>
      <point x="1688" y="-26" type="qcurve"/>
      <point x="1546" y="-26"/>
      <point x="1358" y="111"/>
      <point x="1264" y="390"/>
      <point x="1264" y="604" type="qcurve"/>
      <point x="1264" y="856" type="line"/>
      <point x="1328" y="856" type="line"/>
      <point x="1328" y="604" type="line"/>
      <point x="1328" y="408"/>
      <point x="1405" y="157"/>
      <point x="1565" y="38"/>
      <point x="1688" y="38" type="qcurve"/>
      <point x="1879" y="38"/>
      <point x="2127" y="346"/>
      <point x="2248" y="960"/>
      <point x="2248" y="1420" type="qcurve"/>
      <point x="2248" y="1536" type="line"/>
      <point x="2312" y="1536" type="line"/>
      <point x="2312" y="1396" type="line"/>
      <point x="2312" y="925"/>
      <point x="2176" y="292"/>
      <point x="1900" y="-26"/>
    </contour>
  </outline>
</glyph>
<glyph name="Khook" format="2">
  <advance width="1844"/>
  <unicode hex="0198"/>
  <outline>
    <contour>
      <point x="320" y="0" type="line"/>
      <point x="320" y="2048" type="line"/>
      <point x="384" y="2048" type="line"/>
      <point x="384" y="772" type="line"/>
      <point x="392" y="772" type="line"/>
      <point x="1464" y="1952" type="line"/>
      <point x="1513" y="2011"/>
      <point x="1646" y="2062"/>
      <point x="1776" y="2042"/>
      <point x="1820" y="1994" type="qcurve"/>
      <point x="1776" y="1952" type="line"/>
      <point x="1706" y="2003"/>
      <point x="1574" y="1977"/>
      <point x="1512" y="1908" type="qcurve"/>
      <point x="736" y="1056" type="line"/>
      <point x="1728" y="0" type="line"/>
      <point x="1640" y="0" type="line"/>
      <point x="692" y="1008" type="line"/>
      <point x="384" y="668" type="line"/>
      <point x="384" y="0" type="line"/>
    </contour>
  </outline>
</glyph>
<glyph name="khook" format="2">
  <advance width="1375"/>
  <unicode hex="0199"/>
  <outline>
    <contour>
      <point x="1192" y="0" type="line"/>
      <point x="534" y="830" type="line"/>
      <point x="336" y="636" type="line"/>
      <point x="336" y="0" type="line"/>
      <point x="272" y="0" type="line"/>
      <point x="272" y="1708" type="line"/>
      <point x="336" y="1708" type="line"/>
      <point x="336" y="736" type="line"/>
      <point x="344" y="736" type="line"/>
      <point x="1160" y="1536" type="line"/>
      <point x="1252" y="1536" type="line"/>
      <point x="578" y="874" type="line"/>
      <point x="1276" y="0" type="line"/>
    </contour>
    <contour>
      <point x="336" y="1688" type="line"/>
      <point x="272" y="1688" type="line"/>
      <point x="272" y="1780" type="line"/>
      <point x="272" y="1858"/>
      <point x="302" y="1970"/>
      <point x="364" y="2042"/>
      <point x="460" y="2076"/>
      <point x="526" y="2076" type="qcurve"/>
      <point x="547" y="2076"/>
      <point x="599" y="2073"/>
      <point x="624" y="2070" type="qcurve"/>
      <point x="624" y="2006" type="line"/>
      <point x="599" y="2009"/>
      <point x="546" y="2012"/>
      <point x="526" y="2012" type="qcurve"/>
      <point x="421" y="2012"/>
      <point x="336" y="1908"/>
      <point x="336" y="1780" type="qcurve"/>
    </contour>
  </outline>
</glyph>
<glyph name="lambdastroke" format="2">
  <advance width="1690"/>
  <unicode hex="019B"/>
  <outline>
    <contour>
      <point x="796" y="1974" type="line"/>
      <point x="796" y="1904" type="line"/>
      <point x="252" y="1648" type="line"/>
      <point x="252" y="1718" type="line"/>
    </contour>
    <contour>
      <point x="738" y="1448" type="line"/>
      <point x="224" y="0" type="line"/>
      <point x="156" y="0" type="line"/>
      <point x="710" y="1552" type="line"/>
      <point x="748" y="1490" type="line"/>
    </contour>
    <contour>
      <point x="344" y="2076" type="qcurve"/>
      <point x="464" y="2073"/>
      <point x="608" y="1952"/>
      <point x="662" y="1804" type="qcurve"/>
      <point x="1206" y="312" type="line"/>
      <point x="1244" y="209"/>
      <point x="1301" y="94"/>
      <point x="1357" y="48"/>
      <point x="1392" y="48" type="qcurve"/>
      <point x="1404" y="48"/>
      <point x="1437" y="54"/>
      <point x="1454" y="58" type="qcurve"/>
      <point x="1480" y="-4" type="line"/>
      <point x="1462" y="-10"/>
      <point x="1422" y="-16"/>
      <point x="1400" y="-16" type="qcurve"/>
      <point x="1346" y="-16"/>
      <point x="1265" y="33"/>
      <point x="1196" y="152"/>
      <point x="1158" y="256" type="qcurve"/>
      <point x="746" y="1382" type="line"/>
      <point x="602" y="1784" type="line"/>
      <point x="559" y="1906"/>
      <point x="439" y="2011"/>
      <point x="344" y="2014" type="qcurve"/>
      <point x="319" y="2015"/>
      <point x="264" y="2006"/>
      <point x="232" y="1998" type="qcurve"/>
      <point x="208" y="2058" type="line"/>
      <point x="242" y="2067"/>
      <point x="311" y="2077"/>
    </contour>
  </outline>
</glyph>
<glyph name="Mturned" format="2">
  <advance width="2344"/>
  <unicode hex="019C"/>
  <outline>
    <contour>
      <point x="2044" y="314" type="line"/>
      <point x="2044" y="2048" type="line"/>
      <point x="2108" y="2048" type="line"/>
      <point x="2108" y="0" type="line"/>
      <point x="2052" y="0" type="line"/>
    </contour>
    <contour>
      <point x="2044" y="504" type="qcurve"/>
      <point x="2088" y="504" type="line"/>
      <point x="2098" y="350"/>
      <point x="1976" y="114"/>
      <point x="1758" y="-20"/>
      <point x="1624" y="-20" type="qcurve"/>
      <point x="1470" y="-20"/>
      <point x="1254" y="114"/>
      <point x="1140" y="350"/>
      <point x="1140" y="504" type="qcurve"/>
      <point x="1140" y="2048" type="line"/>
      <point x="1204" y="2048" type="line"/>
      <point x="1204" y="504" type="line"/>
      <point x="1204" y="368"/>
      <point x="1301" y="161"/>
      <point x="1488" y="44"/>
      <point x="1624" y="44" type="qcurve"/>
      <point x="1740" y="44"/>
      <point x="1931" y="161"/>
      <point x="2044" y="368"/>
    </contour>
    <contour>
      <point x="1140" y="504" type="qcurve"/>
      <point x="1184" y="504" type="line"/>
      <point x="1194" y="350"/>
      <point x="1072" y="114"/>
      <point x="854" y="-20"/>
      <point x="720" y="-20" type="qcurve"/>
      <point x="566" y="-20"/>
      <point x="350" y="114"/>
      <point x="236" y="350"/>
      <point x="236" y="504" type="qcurve"/>
      <point x="236" y="2048" type="line"/>
      <point x="300" y="2048" type="line"/>
      <point x="300" y="504" type="line"/>
      <point x="300" y="368"/>
      <point x="397" y="161"/>
      <point x="584" y="44"/>
      <point x="720" y="44" type="qcurve"/>
      <point x="836" y="44"/>
      <point x="1027" y="161"/>
      <point x="1140" y="368"/>
    </contour>
  </outline>
</glyph>
<glyph name="Nhookleft" format="2">
  <advance width="2112"/>
  <unicode hex="019D"/>
  <outline>
    <contour>
      <point x="256" y="0" type="line"/>
      <point x="320" y="0" type="line"/>
      <point x="320" y="-232" type="line"/>
      <point x="320" y="-314"/>
      <point x="285" y="-441"/>
      <point x="215" y="-528"/>
      <point x="114" y="-572"/>
      <point x="48" y="-572" type="qcurve"/>
      <point x="26" y="-572"/>
      <point x="-16" y="-568"/>
      <point x="-30" y="-564" type="qcurve"/>
      <point x="-30" y="-500" type="line"/>
      <point x="-16" y="-504"/>
      <point x="20" y="-508"/>
      <point x="42" y="-508" type="qcurve"/>
      <point x="150" y="-508"/>
      <point x="256" y="-371"/>
      <point x="256" y="-232" type="qcurve"/>
    </contour>
    <contour>
      <point x="1792" y="2048" type="line"/>
      <point x="1792" y="0" type="line"/>
      <point x="1728" y="0" type="line"/>
      <point x="328" y="1928" type="line"/>
      <point x="320" y="1928" type="line"/>
      <point x="320" y="0" type="line"/>
      <point x="256" y="0" type="line"/>
      <point x="256" y="2048" type="line"/>
      <point x="320" y="2048" type="line"/>
      <point x="1720" y="120" type="line"/>
      <point x="1728" y="120" type="line"/>
      <point x="1728" y="2048" type="line"/>
    </contour>
  </outline>
</glyph>
<glyph name="Ohorn" format="2">
  <advance width="2070"/>
  <unicode hex="01A0"/>
  <outline>
    <contour>
      <point x="1880" y="2204" type="qcurve"/>
      <point x="1944" y="2204" type="line"/>
      <point x="1945" y="2015"/>
      <point x="1787" y="1819"/>
      <point x="1604" y="1780" type="qcurve"/>
      <point x="1604" y="1844" type="line"/>
      <point x="1761" y="1884"/>
      <point x="1879" y="2040"/>
    </contour>
    <contour>
      <point x="1900" y="1024" type="qcurve"/>
      <point x="1900" y="711"/>
      <point x="1686" y="237"/>
      <point x="1304" y="-28"/>
      <point x="1052" y="-28" type="qcurve"/>
      <point x="799" y="-28"/>
      <point x="417" y="238"/>
      <point x="204" y="712"/>
      <point x="204" y="1024" type="qcurve"/>
      <point x="204" y="1337"/>
      <point x="418" y="1810"/>
      <point x="800" y="2076"/>
      <point x="1052" y="2076" type="qcurve"/>
      <point x="1304" y="2076"/>
      <point x="1686" y="1811"/>
      <point x="1900" y="1337"/>
    </contour>
    <contour>
      <point x="1836" y="1024" type="qcurve"/>
      <point x="1836" y="1318"/>
      <point x="1638" y="1763"/>
      <point x="1285" y="2012"/>
      <point x="1052" y="2012" type="qcurve"/>
      <point x="820" y="2012"/>
      <point x="467" y="1765"/>
      <point x="268" y="1320"/>
      <point x="268" y="1024" type="qcurve"/>
      <point x="268" y="732"/>
      <point x="464" y="287"/>
      <point x="817" y="36"/>
      <point x="1052" y="36" type="qcurve"/>
      <point x="1285" y="36"/>
      <point x="1639" y="285"/>
      <point x="1837" y="730"/>
    </contour>
  </outline>
</glyph>
<glyph name="ohorn" format="2">
  <advance width="1588"/>
  <unicode hex="01A1"/>
  <outline>
    <contour>
      <point x="1470" y="1678" type="qcurve"/>
      <point x="1534" y="1678" type="line"/>
      <point x="1534" y="1500"/>
      <point x="1396" y="1306"/>
      <point x="1234" y="1294" type="qcurve"/>
      <point x="1234" y="1358" type="line"/>
      <point x="1323" y="1366"/>
      <point x="1426" y="1438"/>
      <point x="1470" y="1574"/>
    </contour>
    <contour>
      <point x="816" y="-32" type="qcurve"/>
      <point x="635" y="-32"/>
      <point x="347" y="177"/>
      <point x="180" y="538"/>
      <point x="180" y="764" type="qcurve"/>
      <point x="180" y="991"/>
      <point x="347" y="1351"/>
      <point x="635" y="1560"/>
      <point x="816" y="1560" type="qcurve"/>
      <point x="997" y="1560"/>
      <point x="1284" y="1350"/>
      <point x="1452" y="990"/>
      <point x="1452" y="764" type="qcurve"/>
      <point x="1452" y="538"/>
      <point x="1285" y="177"/>
      <point x="997" y="-32"/>
    </contour>
    <contour>
      <point x="816" y="32" type="qcurve"/>
      <point x="979" y="32"/>
      <point x="1238" y="224"/>
      <point x="1388" y="556"/>
      <point x="1388" y="764" type="qcurve"/>
      <point x="1388" y="972"/>
      <point x="1237" y="1303"/>
      <point x="979" y="1496"/>
      <point x="816" y="1496" type="qcurve"/>
      <point x="654" y="1496"/>
      <point x="395" y="1303"/>
      <point x="244" y="972"/>
      <point x="244" y="764" type="qcurve"/>
      <point x="244" y="556"/>
      <point x="394" y="224"/>
      <point x="653" y="32"/>
    </contour>
  </outline>
</glyph>
<glyph name="Oi" format="2">
  <advance width="2174"/>
  <unicode hex="01A2"/>
  <outline>
    <contour>
      <point x="1548" y="1080" type="line"/>
      <point x="1548" y="238" type="line"/>
      <point x="1492" y="154"/>
      <point x="1325" y="35"/>
      <point x="1123" y="-28"/>
      <point x="1012" y="-28" type="qcurve"/>
      <point x="846" y="-28"/>
      <point x="554" y="112"/>
      <point x="331" y="368"/>
      <point x="204" y="716"/>
      <point x="204" y="924" type="qcurve"/>
      <point x="204" y="982" type="line"/>
      <point x="268" y="982" type="line"/>
      <point x="268" y="924" type="line"/>
      <point x="269" y="664"/>
      <point x="471" y="263"/>
      <point x="810" y="36"/>
      <point x="1016" y="36" type="qcurve"/>
      <point x="1163" y="36"/>
      <point x="1420" y="157"/>
      <point x="1484" y="254" type="qcurve"/>
      <point x="1484" y="1080" type="line"/>
    </contour>
    <contour>
      <point x="1548" y="1830" type="qcurve"/>
      <point x="1548" y="922" type="line"/>
      <point x="1484" y="922" type="line"/>
      <point x="1484" y="1798" type="line"/>
      <point x="1410" y="1899"/>
      <point x="1155" y="2012"/>
      <point x="1012" y="2012" type="qcurve"/>
      <point x="800" y="2012"/>
      <point x="463" y="1770"/>
      <point x="268" y="1349"/>
      <point x="268" y="1082" type="qcurve"/>
      <point x="268" y="964" type="line"/>
      <point x="204" y="964" type="line"/>
      <point x="204" y="1082" type="line"/>
      <point x="204" y="1294"/>
      <point x="325" y="1656"/>
      <point x="544" y="1926"/>
      <point x="839" y="2076"/>
      <point x="1012" y="2076" type="qcurve"/>
      <point x="1118" y="2076"/>
      <point x="1316" y="2018"/>
      <point x="1485" y="1908"/>
    </contour>
    <contour>
      <point x="1854" y="2048" type="line"/>
      <point x="1854" y="-576" type="line"/>
      <point x="1790" y="-576" type="line"/>
      <point x="1790" y="1988" type="line"/>
      <point x="1498" y="1758" type="line"/>
      <point x="1498" y="1840" type="line"/>
      <point x="1762" y="2048" type="line"/>
    </contour>
  </outline>
</glyph>
<glyph name="oi" format="2">
  <advance width="1459"/>
  <unicode hex="01A3"/>
  <outline>
    <contour>
      <point x="696" y="32" type="qcurve"/>
      <point x="773" y="32"/>
      <point x="912" y="74"/>
      <point x="970" y="114" type="qcurve"/>
      <point x="970" y="1014" type="line"/>
      <point x="1034" y="1014" type="line"/>
      <point x="1034" y="80" type="line"/>
      <point x="979" y="42"/>
      <point x="869" y="-8"/>
      <point x="757" y="-32"/>
      <point x="696" y="-32" type="qcurve"/>
      <point x="515" y="-32"/>
      <point x="237" y="167"/>
      <point x="80" y="515"/>
      <point x="80" y="740" type="qcurve"/>
      <point x="80" y="744" type="line"/>
      <point x="80" y="991"/>
      <point x="237" y="1358"/>
      <point x="515" y="1560"/>
      <point x="696" y="1560" type="qcurve"/>
      <point x="757" y="1560"/>
      <point x="871" y="1537"/>
      <point x="980" y="1492"/>
      <point x="1034" y="1460" type="qcurve"/>
      <point x="1034" y="610" type="line"/>
      <point x="970" y="610" type="line"/>
      <point x="970" y="1422" type="line"/>
      <point x="912" y="1457"/>
      <point x="773" y="1496"/>
      <point x="696" y="1496" type="qcurve"/>
      <point x="534" y="1496"/>
      <point x="285" y="1310"/>
      <point x="144" y="972"/>
      <point x="144" y="744" type="qcurve"/>
      <point x="144" y="740" type="line"/>
      <point x="144" y="533"/>
      <point x="285" y="214"/>
      <point x="534" y="32"/>
    </contour>
    <contour>
      <point x="1380" y="1536" type="line"/>
      <point x="1380" y="-576" type="line"/>
      <point x="1316" y="-576" type="line"/>
      <point x="1316" y="1476" type="line"/>
      <point x="1018" y="1278" type="line"/>
      <point x="1018" y="1354" type="line"/>
      <point x="1292" y="1536" type="line"/>
    </contour>
  </outline>
</glyph>
<glyph name="Phook" format="2">
  <advance width="1916"/>
  <unicode hex="01A4"/>
  <outline>
    <contour>
      <point x="236" y="1688" type="line"/>
      <point x="172" y="1688" type="line"/>
      <point x="172" y="1760" type="line"/>
      <point x="173" y="1900"/>
      <point x="312" y="2048"/>
      <point x="444" y="2048" type="qcurve"/>
      <point x="1084" y="2048" type="line"/>
      <point x="1256" y="2048"/>
      <point x="1521" y="1894"/>
      <point x="1672" y="1624"/>
      <point x="1672" y="1448" type="qcurve"/>
      <point x="1672" y="1274"/>
      <point x="1521" y="1005"/>
      <point x="1256" y="852"/>
      <point x="1084" y="852" type="qcurve"/>
      <point x="548" y="852" type="line"/>
      <point x="548" y="0" type="line"/>
      <point x="484" y="0" type="line"/>
      <point x="484" y="1984" type="line"/>
      <point x="448" y="1984" type="line"/>
      <point x="372" y="1984"/>
      <point x="278" y="1932"/>
      <point x="236" y="1818"/>
      <point x="236" y="1724" type="qcurve"/>
    </contour>
    <contour>
      <point x="548" y="916" type="line"/>
      <point x="1084" y="916" type="line"/>
      <point x="1238" y="916"/>
      <point x="1474" y="1052"/>
      <point x="1608" y="1292"/>
      <point x="1608" y="1448" type="qcurve"/>
      <point x="1608" y="1605"/>
      <point x="1474" y="1847"/>
      <point x="1238" y="1984"/>
      <point x="1084" y="1984" type="qcurve"/>
      <point x="548" y="1984" type="line"/>
    </contour>
  </outline>
</glyph>
